{"glyphs":{"0":{"ha":875,"x_min":64,"x_max":813,"o":"m 813 482 q 738 158 813 285 q 433 -7 640 -7 q 133 165 228 -7 q 64 482 64 292 q 135 803 64 676 q 433 972 229 972 q 600 935 529 972 q 813 482 813 822 m 775 482 q 704 769 775 653 q 429 918 614 918 q 167 765 250 918 q 104 482 104 651 q 167 200 104 314 q 429 47 250 47 q 703 194 611 47 q 775 482 775 310 m 647 482 q 632 342 647 386 q 624 335 631 340 l 624 635 l 629 633 q 647 482 647 582 m 257 624 l 254 329 q 243 342 246 335 q 229 482 229 413 q 247 628 229 574 q 257 624 249 628 z "},"1":{"ha":875,"x_min":150,"x_max":628,"o":"m 622 75 q 585 3 628 18 q 506 -3 568 -3 q 424 4 440 -3 q 390 76 386 19 l 399 189 l 399 450 q 411 486 399 472 q 424 465 418 485 q 429 435 429 446 l 429 185 q 444 117 429 151 q 506 65 467 65 q 564 111 542 65 q 581 174 581 146 l 581 785 q 565 842 581 814 q 511 878 546 878 q 463 863 493 878 q 431 849 433 849 q 421 861 421 849 q 429 896 421 868 q 535 963 449 963 q 622 882 622 963 l 614 788 l 614 171 l 622 75 m 313 760 q 294 734 313 758 q 275 693 275 710 q 291 656 275 672 q 307 629 307 639 q 229 603 307 603 q 150 682 150 603 q 206 760 150 742 q 293 769 232 769 q 301 768 296 769 q 308 767 307 767 q 313 760 313 763 z "},"2":{"ha":875,"x_min":60,"x_max":822,"o":"m 803 678 q 793 592 803 633 q 747 504 775 536 q 682 442 719 472 q 581 372 671 431 q 453 304 478 304 q 438 315 438 304 q 493 383 438 349 q 629 460 539 407 q 743 607 714 514 q 753 678 753 638 q 653 872 753 806 q 454 928 571 928 q 192 813 279 928 q 153 724 153 761 q 197 674 153 674 q 242 691 215 674 q 278 708 269 708 q 290 689 286 708 q 272 622 290 649 q 175 592 251 592 q 111 600 129 592 q 78 658 78 614 q 113 776 78 704 q 451 972 207 972 q 690 906 594 972 q 803 678 803 826 m 822 93 q 736 3 822 3 q 697 6 736 3 q 639 10 657 10 l 308 13 q 251 11 310 13 q 179 6 228 11 q 131 0 131 0 q 60 63 60 0 q 99 172 60 100 q 290 372 156 278 q 518 517 404 444 q 543 531 528 522 l 550 531 q 553 522 553 528 q 525 476 553 507 q 458 414 506 454 q 275 311 397 383 q 186 225 228 279 q 139 128 139 165 q 214 50 139 65 q 317 46 238 44 l 622 50 q 674 57 671 57 q 708 94 708 67 q 685 127 708 115 q 639 139 663 139 l 581 139 q 521 147 571 139 q 501 158 508 151 q 507 169 501 167 q 543 178 544 178 l 628 178 l 740 186 q 822 93 822 192 z "},"3":{"ha":875,"x_min":49,"x_max":819,"o":"m 789 718 q 783 667 789 704 q 765 622 781 650 q 724 585 744 585 q 707 606 707 585 q 720 651 707 613 q 733 721 733 690 q 721 783 733 754 q 443 922 661 922 q 402 917 443 922 q 343 911 361 911 q 249 874 307 910 q 178 785 178 832 q 215 747 178 747 q 247 756 218 747 q 281 764 276 764 q 293 751 293 764 q 281 713 293 736 q 253 678 268 685 q 171 663 222 663 q 81 724 81 663 q 139 845 81 775 q 251 935 197 915 q 279 946 261 939 q 308 956 289 949 q 363 968 328 964 q 438 974 407 974 q 661 922 565 974 q 789 718 789 853 m 521 450 q 464 438 508 438 q 365 510 365 438 q 465 585 365 585 q 517 574 501 585 q 500 511 500 515 q 521 450 500 524 m 819 296 q 685 58 819 139 q 435 -6 579 -6 q 310 7 367 -6 q 244 29 288 15 q 110 131 172 51 q 49 274 49 210 q 143 339 49 339 q 207 332 174 339 q 247 296 232 326 q 260 246 260 271 q 246 231 260 231 q 216 243 242 231 q 172 256 190 256 q 131 211 131 256 q 163 147 131 183 q 438 46 251 46 q 550 57 488 46 q 707 138 646 74 q 768 289 768 201 q 744 385 768 336 q 721 442 721 435 q 736 458 721 458 q 791 414 763 458 q 819 296 819 369 z "},"4":{"ha":875,"x_min":49,"x_max":826,"o":"m 826 310 q 764 225 826 225 q 731 250 731 225 q 736 281 731 253 q 742 311 742 308 q 736 341 742 314 q 731 371 731 368 q 764 397 731 397 q 826 310 826 397 m 518 549 q 511 524 518 535 q 503 549 503 531 q 508 574 503 567 q 518 549 518 568 m 697 888 q 692 818 697 885 q 686 749 686 751 l 686 542 q 674 515 686 531 q 656 571 656 525 l 656 786 q 633 861 656 825 q 563 906 606 906 q 456 854 510 906 q 407 747 399 799 q 413 717 410 728 q 413 690 413 690 q 335 569 406 656 q 285 508 288 511 q 222 472 250 472 q 209 474 219 472 q 194 475 199 475 q 125 429 153 475 q 104 360 104 393 q 147 289 104 318 q 217 265 183 265 l 339 265 q 360 258 343 265 q 378 247 376 251 q 369 238 374 240 q 340 231 346 231 l 221 231 l 125 221 q 49 300 49 221 q 58 425 49 390 q 101 496 64 446 q 156 567 129 532 q 285 728 168 585 q 393 846 293 738 q 451 921 413 871 q 512 958 478 953 q 613 964 546 964 q 697 888 697 964 m 697 74 q 656 8 697 24 q 588 0 635 0 q 518 8 539 0 q 479 74 479 25 q 485 107 479 86 q 504 136 493 136 q 537 108 510 136 q 588 79 564 79 q 638 108 613 79 q 671 136 664 136 q 692 107 683 136 q 697 74 697 86 z "},"5":{"ha":875,"x_min":47,"x_max":810,"o":"m 810 343 q 692 74 810 167 q 421 -8 588 -8 q 96 119 188 -8 q 47 226 47 186 q 132 283 47 283 q 218 275 190 283 q 285 203 271 257 l 285 194 q 274 189 274 189 q 237 200 269 189 q 189 211 204 211 q 143 169 143 211 q 211 86 143 125 q 303 53 268 54 q 331 47 313 50 q 413 42 358 42 q 751 253 690 42 q 765 336 765 301 q 760 393 765 346 q 691 525 751 468 q 565 582 631 582 q 511 547 511 582 q 515 528 511 544 q 519 511 519 513 q 510 500 519 507 l 415 500 q 390 496 415 500 q 331 483 356 490 q 313 474 321 481 q 161 428 258 428 q 81 489 81 428 q 94 543 81 489 q 114 631 110 603 q 151 897 126 719 q 233 961 161 961 q 266 958 236 961 q 299 954 296 954 l 597 954 l 688 964 q 765 872 765 964 q 686 781 765 781 l 585 790 l 472 790 q 424 804 435 790 q 433 817 424 814 q 519 828 456 828 l 582 828 q 624 839 601 828 q 651 874 651 851 q 614 908 651 899 q 568 917 592 913 l 357 919 q 220 876 263 921 q 164 728 178 832 q 143 586 143 574 q 217 493 143 493 q 265 503 232 493 q 313 538 299 514 q 324 558 318 544 q 490 649 350 649 q 719 571 633 649 q 810 343 810 489 z "},"6":{"ha":875,"x_min":65,"x_max":818,"o":"m 818 336 q 700 76 818 171 q 440 -10 594 -10 q 139 156 236 -10 q 65 472 65 282 q 169 828 65 693 q 476 972 281 972 q 750 857 649 972 q 790 778 790 811 q 707 725 790 725 q 618 743 644 725 q 554 814 601 754 q 539 822 547 822 q 489 828 517 828 q 424 820 461 828 q 390 813 388 813 l 371 813 q 376 828 376 826 q 399 851 388 840 q 414 875 414 868 q 375 888 414 888 q 263 849 314 888 q 106 469 106 729 q 175 188 106 301 q 446 43 264 43 q 678 123 588 43 q 768 331 768 203 q 740 451 768 393 q 644 558 708 521 q 558 586 599 586 q 500 554 500 586 q 519 510 500 551 q 501 500 510 500 q 419 493 475 499 q 369 478 404 490 q 332 467 333 467 l 318 467 q 314 476 314 469 q 320 501 314 479 q 328 531 326 522 q 332 557 329 539 q 400 633 335 608 q 499 650 444 650 q 726 560 633 650 q 818 336 818 469 m 653 838 q 618 876 653 861 q 565 890 589 890 q 526 876 540 890 q 622 819 546 819 q 653 838 653 819 z "},"7":{"ha":875,"x_min":92,"x_max":788,"o":"m 788 875 q 768 778 788 808 q 699 693 742 749 q 524 354 558 483 q 499 271 511 313 q 478 168 478 194 l 478 63 q 457 19 478 39 q 415 0 436 0 q 350 -1 379 0 q 324 -3 321 -3 q 244 64 244 -3 q 267 154 244 79 q 317 314 301 269 q 382 475 347 407 q 432 564 397 504 q 510 657 486 657 q 522 643 521 657 q 511 610 522 632 q 494 582 507 600 q 378 374 444 525 q 310 149 310 215 q 322 100 310 122 q 365 71 338 71 q 443 150 414 71 q 464 242 447 164 q 549 510 494 385 q 607 625 583 589 q 674 713 629 654 q 722 833 722 779 q 561 922 722 924 l 283 921 q 222 908 251 921 q 186 867 186 893 q 311 810 186 810 l 379 810 q 401 804 385 810 q 421 794 418 799 q 375 776 408 776 l 269 776 l 169 767 q 92 865 92 767 q 104 933 92 913 q 172 963 122 963 q 207 959 175 963 q 242 956 239 956 l 300 956 l 613 953 q 710 963 729 963 q 772 941 756 963 q 788 875 788 919 z "},"8":{"ha":875,"x_min":50,"x_max":826,"o":"m 789 719 q 786 699 789 718 q 783 671 783 679 q 758 613 783 650 q 713 576 732 576 q 697 599 697 576 q 714 649 697 613 q 731 724 731 686 q 678 843 731 793 q 558 893 625 893 q 517 878 517 893 q 527 856 517 876 q 538 828 538 835 q 517 824 531 824 q 478 826 513 824 q 440 828 443 828 q 397 824 436 828 q 354 821 357 821 q 338 833 338 821 q 346 855 338 838 q 351 878 354 872 q 314 889 346 889 q 199 836 249 889 q 149 722 149 783 q 167 647 149 689 q 185 596 185 606 q 167 576 185 576 q 135 595 154 576 q 110 628 115 614 q 90 718 90 676 q 221 922 90 851 q 440 976 319 976 q 661 924 564 976 q 789 719 789 853 m 532 447 q 522 442 529 442 l 347 442 q 342 453 342 447 q 351 473 342 453 q 361 510 361 493 q 354 539 361 518 q 347 561 347 560 q 354 574 347 560 l 494 576 q 531 568 519 576 q 517 510 517 519 q 532 447 517 524 m 826 282 q 685 50 826 128 q 439 -8 579 -8 q 190 49 294 -8 q 50 276 50 124 q 53 321 50 268 q 87 404 54 354 q 147 454 119 454 q 163 439 163 454 q 132 378 163 429 q 101 272 101 326 q 172 121 101 182 q 318 65 236 65 q 378 85 378 65 q 347 129 378 86 l 347 140 q 364 146 356 146 q 403 143 368 146 q 440 140 438 140 q 476 143 443 140 q 513 146 510 146 q 532 140 518 146 l 532 129 q 519 108 533 126 q 504 88 504 90 q 560 68 504 68 q 710 131 644 68 q 775 276 775 193 q 756 360 775 314 q 733 400 756 361 q 717 440 717 429 q 732 456 717 456 q 797 396 765 456 q 824 328 824 347 q 824 301 822 321 q 826 282 826 282 z "},"9":{"ha":875,"x_min":64,"x_max":817,"o":"m 817 503 q 735 163 817 294 q 408 -8 629 -8 q 381 -6 407 -8 q 344 -4 356 -4 q 185 60 275 -6 q 94 186 94 125 q 174 239 94 239 q 259 222 228 239 q 322 160 290 206 q 339 147 331 151 q 408 138 349 138 q 517 156 457 138 l 524 156 q 529 147 529 153 q 516 124 529 143 q 504 94 503 106 q 528 86 515 86 q 629 122 581 86 q 747 296 708 181 q 779 500 779 390 q 701 785 779 672 q 428 918 608 918 q 208 844 297 918 q 113 632 113 764 q 121 563 113 597 q 198 433 139 488 q 321 378 257 378 q 379 408 379 378 q 360 451 379 400 q 422 463 364 458 q 476 472 442 464 q 528 489 493 476 q 561 500 558 500 q 572 486 572 500 q 565 467 572 486 q 558 438 558 447 q 388 314 560 314 q 156 403 247 314 q 64 633 64 492 q 178 882 64 786 q 428 972 282 972 q 736 819 636 972 q 817 503 817 696 m 374 79 q 333 129 369 110 q 260 149 297 149 q 224 126 224 149 q 267 81 224 99 q 326 67 300 67 q 374 79 356 67 z "}," ":{"ha":438,"x_min":0,"x_max":0,"o":""},"!":{"ha":411,"x_min":86,"x_max":326,"o":"m 322 918 l 313 824 l 313 747 q 306 713 313 744 q 299 668 300 681 q 274 415 293 583 q 251 365 269 388 q 208 342 233 342 q 160 371 179 342 q 139 432 142 396 q 124 617 135 494 q 111 710 121 644 q 103 769 103 768 l 103 849 q 99 882 103 851 q 96 915 96 913 q 132 985 96 969 q 208 992 149 992 q 282 985 263 992 q 322 918 322 969 m 326 124 q 325 58 326 75 q 276 7 322 18 q 208 3 260 3 q 126 10 144 3 q 88 78 92 24 q 86 124 86 94 q 88 183 86 169 q 119 235 92 218 q 144 242 131 240 q 243 243 164 243 q 321 207 306 243 q 326 124 326 192 m 278 813 q 264 876 278 846 q 208 918 244 918 q 154 876 174 918 q 139 817 139 846 q 153 669 139 749 q 208 561 174 561 q 264 668 243 561 q 278 813 278 744 m 261 125 q 246 162 261 144 q 208 179 231 179 q 169 163 186 179 q 153 125 153 146 q 171 87 153 104 q 208 69 189 69 q 244 87 228 69 q 261 125 261 104 z "},"\"":{"ha":694,"x_min":94,"x_max":603,"o":"m 603 550 q 588 519 603 543 q 567 503 582 511 q 511 496 553 496 q 458 503 475 496 q 435 526 447 507 q 422 551 422 544 l 422 929 q 432 956 422 943 q 513 988 456 988 q 552 985 535 988 q 586 963 569 982 q 603 931 603 944 l 603 550 m 276 553 q 240 503 276 525 q 188 496 229 496 q 133 502 146 496 q 107 525 119 508 q 94 553 94 542 l 94 929 q 106 956 94 944 q 186 988 129 988 q 247 975 231 988 q 276 931 276 954 l 276 553 m 557 743 q 513 874 557 874 q 469 743 469 874 q 513 608 469 608 q 554 671 551 608 l 557 743 m 229 742 q 188 874 229 874 q 157 853 169 874 q 144 817 144 832 l 144 667 q 156 632 144 651 q 188 608 168 608 q 229 742 229 608 z "},"#":{"ha":875,"x_min":103,"x_max":774,"o":"m 715 893 q 703 810 715 864 q 665 740 686 740 q 646 744 664 740 q 625 747 628 747 q 607 745 622 747 q 589 743 592 743 q 563 800 563 743 q 649 964 563 964 q 715 893 715 964 m 774 635 q 753 588 774 606 q 706 571 732 571 q 678 601 678 571 q 690 692 678 653 q 708 704 692 704 q 756 681 738 704 q 774 635 774 658 m 439 896 q 415 774 439 856 q 381 747 407 747 q 371 749 379 747 q 360 750 363 750 q 335 747 357 750 q 310 743 314 743 q 285 797 285 743 q 371 964 285 964 q 439 896 439 964 m 642 490 q 621 456 642 456 q 602 461 618 456 q 583 467 586 467 q 567 463 581 467 q 549 458 553 458 q 533 467 544 458 q 537 490 529 475 q 556 504 544 504 q 569 501 557 504 q 583 497 581 497 q 606 506 586 497 q 628 514 625 514 q 642 490 642 514 m 732 332 q 708 284 732 301 q 661 267 685 267 q 635 279 643 267 q 641 349 638 314 q 657 399 644 385 q 708 381 683 403 q 732 332 732 360 m 254 669 q 239 583 254 632 q 214 568 235 568 q 166 588 189 568 q 143 635 143 608 q 168 685 143 667 q 217 700 188 700 q 254 669 254 700 m 363 490 q 339 465 363 465 q 326 469 338 465 q 311 474 314 474 q 290 465 308 474 q 268 456 271 456 q 254 474 254 456 q 276 507 254 507 q 295 500 282 507 q 311 493 308 493 q 328 501 314 493 q 346 510 342 510 q 363 490 363 510 m 611 171 q 607 113 611 150 q 588 31 600 54 q 524 -1 569 -1 q 456 69 456 -1 q 468 154 456 104 q 501 217 482 213 q 554 218 521 217 q 574 222 560 218 q 590 226 588 226 q 611 171 611 226 m 211 367 q 204 315 211 350 q 193 275 197 279 q 174 265 186 265 q 124 285 146 265 q 103 332 103 306 q 174 394 103 394 q 211 367 211 394 m 333 167 q 331 144 333 165 q 329 111 329 122 q 247 -1 329 -1 q 178 69 178 -1 q 210 210 178 154 q 233 222 217 222 q 250 220 236 222 q 267 218 264 218 q 288 222 269 218 q 308 225 306 225 q 333 167 333 225 z "},"$":{"ha":875,"x_min":19,"x_max":863,"o":"m 826 757 q 753 699 826 699 q 644 703 688 699 q 604 724 624 704 q 586 768 585 743 q 608 778 592 778 q 644 771 613 778 q 679 764 676 764 q 731 813 731 764 q 678 890 731 853 q 582 943 650 911 q 532 975 531 967 q 558 983 538 983 q 693 937 618 983 q 801 829 768 890 q 826 757 826 785 m 511 983 q 450 976 488 976 q 382 981 415 976 l 378 986 q 407 1026 388 1000 q 447 1072 431 1072 q 482 1036 457 1072 q 511 992 497 1014 l 511 983 m 478 797 q 450 733 478 779 q 442 739 444 733 q 422 801 422 786 q 446 825 422 825 q 478 797 478 825 m 486 607 q 464 592 486 596 q 428 603 446 592 q 406 632 406 615 q 446 710 406 644 q 451 706 447 708 q 454 703 454 703 q 486 607 486 631 m 863 299 q 699 33 863 108 q 569 -1 622 -1 q 539 7 547 -1 q 585 39 551 29 q 813 289 813 110 q 590 533 813 460 q 556 558 583 538 q 578 567 563 567 q 692 533 599 567 q 863 299 863 472 m 365 982 q 294 940 365 963 q 115 793 150 894 q 106 765 111 783 q 97 711 97 735 q 319 471 97 561 q 344 450 332 468 q 326 442 336 442 q 215 474 294 442 q 46 707 46 542 q 208 953 46 875 q 315 988 282 988 l 363 988 q 365 982 365 988 m 494 378 q 451 303 494 360 q 442 308 443 304 q 410 408 422 354 q 431 418 419 418 q 469 406 443 418 q 494 378 494 394 m 481 175 q 447 150 481 150 q 427 158 439 150 q 415 175 415 167 q 428 212 415 185 q 446 246 440 239 q 467 215 454 242 q 481 175 481 188 m 508 -10 q 503 -19 508 -8 q 481 -56 492 -37 q 447 -86 460 -86 q 432 -77 439 -86 q 410 -45 425 -68 q 385 -10 394 -22 q 450 8 392 8 q 508 -1 493 8 l 508 -10 m 356 7 q 322 -1 350 -1 q 182 40 257 -1 q 57 153 99 85 q 19 251 19 214 q 94 313 19 315 l 186 310 q 249 282 224 308 q 269 229 269 258 q 257 214 269 214 q 214 230 244 214 q 160 246 183 246 q 108 193 108 246 q 172 99 108 142 q 292 42 210 74 q 356 7 356 15 z "},"%":{"ha":1415,"x_min":113,"x_max":1308,"o":"m 1308 251 q 1081 -8 1308 -8 q 900 72 960 -8 q 850 250 850 139 q 900 429 850 361 q 1082 511 961 511 q 1308 251 1308 511 m 1018 953 q 938 785 1018 936 q 538 42 686 313 q 514 7 529 29 q 454 -29 490 -29 q 410 14 410 -29 q 489 182 410 64 q 574 343 501 213 q 714 601 658 497 q 810 779 747 661 q 865 883 829 814 q 971 993 917 993 q 1018 953 1018 993 m 571 715 q 519 533 571 600 q 343 456 461 456 q 164 533 224 456 q 113 713 113 600 q 164 893 113 824 q 343 975 224 975 q 521 896 463 975 q 571 715 571 828 m 1164 251 q 1079 403 1164 403 q 994 251 994 403 q 1079 101 994 101 q 1164 251 1164 101 m 426 714 q 343 865 426 865 q 274 810 296 865 q 256 714 256 769 q 269 626 256 665 q 343 563 292 563 q 426 714 426 563 z "},"&":{"ha":1003,"x_min":57,"x_max":958,"o":"m 739 760 q 719 668 739 717 q 661 586 697 614 q 626 568 638 568 q 613 583 611 568 q 645 651 613 592 q 678 758 678 711 q 645 856 678 813 q 565 899 613 899 q 534 886 549 899 q 506 874 519 874 q 450 883 467 874 q 429 910 444 893 q 393 918 418 918 q 288 867 326 918 q 251 761 251 821 q 256 719 251 760 q 261 675 261 678 q 249 647 261 647 q 217 676 236 647 q 196 768 196 715 q 288 946 196 878 q 469 1007 368 1007 q 654 940 575 1007 q 739 760 739 869 m 901 415 q 879 349 901 389 q 825 299 853 303 q 811 328 815 308 q 804 361 804 360 q 764 391 799 378 q 729 422 729 404 q 821 474 729 474 q 901 415 901 474 m 958 39 q 875 -1 958 -1 q 772 6 806 -1 q 739 21 758 8 q 715 54 715 38 q 731 71 715 71 l 789 71 q 832 150 832 71 q 839 160 836 158 q 909 114 860 163 q 958 39 958 65 m 499 343 l 493 338 q 478 356 481 342 q 488 355 483 358 q 494 349 493 351 q 499 343 496 347 m 593 63 q 574 36 590 49 q 381 -17 493 -17 q 158 60 251 -17 q 57 275 57 142 q 81 388 57 322 q 135 462 90 417 q 206 507 179 507 q 219 496 219 507 q 190 453 219 485 q 138 381 154 411 q 108 271 108 329 q 197 93 108 158 q 376 36 274 36 q 490 55 418 36 q 572 74 563 74 q 593 63 582 74 z "},"'":{"ha":411,"x_min":115,"x_max":304,"o":"m 299 569 q 207 492 304 492 q 137 510 158 492 q 115 574 115 528 q 119 610 115 576 q 122 647 122 644 l 122 826 q 119 863 122 829 q 115 900 115 897 q 207 983 115 983 q 299 903 304 983 l 286 738 l 299 569 m 254 739 q 206 869 254 869 q 160 738 160 869 q 206 604 160 604 q 254 739 254 604 z "},"(":{"ha":411,"x_min":68,"x_max":388,"o":"m 388 -196 q 311 -247 388 -247 q 235 -225 260 -247 q 210 -194 215 -208 q 104 93 135 -22 q 68 379 68 229 q 100 663 68 536 q 210 961 129 783 q 237 994 215 975 q 311 1014 258 1014 q 385 960 385 1014 q 363 890 385 938 q 329 822 331 825 q 254 379 254 619 q 329 -56 254 157 q 364 -128 333 -67 q 388 -196 388 -174 m 289 -79 q 257 88 289 -72 q 225 383 225 247 q 258 693 225 526 q 289 846 289 846 q 263 889 289 889 q 213 846 238 889 q 186 792 200 819 q 143 656 172 764 q 108 467 108 529 l 108 297 q 114 246 108 299 q 192 -37 128 114 q 264 -122 228 -122 q 289 -79 289 -122 z "},")":{"ha":411,"x_min":28,"x_max":343,"o":"m 343 283 q 331 185 343 264 q 206 -190 311 61 q 176 -228 196 -214 q 103 -247 149 -247 q 28 -194 28 -247 q 62 -98 28 -169 q 96 -22 96 -26 q 129 96 108 19 q 163 379 163 239 q 142 599 163 474 q 92 803 121 724 q 69 854 78 838 q 28 960 28 929 q 103 1014 28 1014 q 178 993 153 1014 q 221 929 204 972 q 246 860 233 894 q 300 713 278 790 q 343 479 343 557 l 343 283 m 306 301 l 306 465 q 265 689 306 546 q 213 825 251 739 q 151 889 183 889 q 125 847 125 889 q 157 683 125 840 q 189 383 189 526 q 171 161 189 272 q 161 104 167 140 q 143 22 161 101 q 125 -82 125 -57 q 151 -122 125 -122 q 258 64 204 -122 q 306 301 306 225 z "},"*":{"ha":617,"x_min":63,"x_max":554,"o":"m 554 788 q 514 732 554 756 q 451 714 479 714 q 416 739 429 714 q 403 788 403 764 q 442 831 403 814 q 494 843 471 843 q 554 788 554 843 m 371 901 q 358 848 371 863 q 308 833 346 833 q 257 851 271 833 q 246 903 246 865 q 310 982 246 982 q 371 901 371 982 m 483 561 q 467 519 483 536 q 426 503 450 503 q 367 540 396 503 q 340 596 340 574 q 367 636 340 615 q 411 657 393 657 q 458 618 432 657 q 482 576 478 590 q 483 561 483 571 m 215 786 q 204 742 215 765 q 168 714 189 714 q 104 732 139 714 q 63 788 63 756 q 80 828 63 813 q 121 843 97 843 q 179 829 149 843 q 215 786 215 811 m 276 599 q 244 539 276 575 q 186 503 213 503 q 148 522 165 503 q 131 560 131 540 q 158 619 131 579 q 208 660 186 660 q 250 638 224 660 q 276 599 276 615 z "},"+":{"ha":833,"x_min":69,"x_max":768,"o":"m 508 618 q 503 569 508 599 q 485 532 496 532 q 458 559 479 532 q 418 586 438 586 q 379 559 400 586 q 354 532 358 532 q 328 617 331 532 q 418 699 328 699 q 508 618 508 699 m 768 350 q 685 260 768 260 q 638 265 665 260 q 600 285 600 272 q 627 310 600 292 q 654 349 654 328 q 627 389 654 369 q 600 415 600 408 q 636 435 600 428 q 685 440 663 440 q 768 350 768 440 m 508 82 q 418 0 508 0 q 328 82 328 0 q 333 131 328 104 q 354 167 342 167 q 377 140 358 167 q 418 113 396 113 q 458 139 442 113 q 483 165 475 165 q 508 82 508 165 m 233 285 q 151 260 233 264 q 69 350 69 260 q 150 440 69 440 q 197 435 171 440 q 233 414 233 426 q 208 389 233 404 q 182 349 182 374 q 208 310 182 328 q 233 285 233 292 z "},",":{"ha":439,"x_min":101,"x_max":343,"o":"m 343 174 q 340 152 343 171 q 338 131 338 133 l 338 44 q 335 -42 338 -10 q 269 -158 329 -99 q 157 -218 210 -218 q 113 -175 113 -218 q 150 -112 113 -151 q 207 -32 194 -65 q 211 -22 211 -24 q 281 38 239 -3 q 293 96 293 60 q 275 155 293 125 q 224 185 257 185 q 181 165 197 185 q 164 121 164 146 q 174 81 164 118 q 185 42 185 44 q 158 18 185 18 q 123 33 139 18 q 106 74 107 49 l 103 168 q 140 244 101 228 q 222 251 158 251 q 304 244 286 251 q 343 174 343 229 z "},"-":{"ha":565,"x_min":74,"x_max":497,"o":"m 497 376 q 413 285 497 278 l 283 296 l 157 285 q 74 376 74 285 q 154 468 74 468 q 219 465 157 468 q 283 461 281 461 q 349 465 286 461 q 414 468 411 468 q 497 376 497 468 m 383 376 q 282 421 383 421 q 183 376 183 421 q 228 338 183 350 q 283 329 256 329 q 383 376 383 329 z "},".":{"ha":439,"x_min":103,"x_max":344,"o":"m 344 81 q 300 10 344 24 q 224 4 283 4 q 157 6 185 4 q 107 54 117 7 q 103 126 103 71 q 124 228 103 210 q 224 247 144 247 q 299 240 279 247 q 344 171 344 225 l 344 81 m 276 126 q 260 163 276 144 q 224 182 244 182 q 185 164 203 182 q 168 128 168 146 q 183 93 168 111 q 222 71 200 71 q 260 88 243 71 q 276 126 276 106 z "},"/":{"ha":565,"x_min":24,"x_max":551,"o":"m 551 960 q 519 872 551 933 q 489 807 488 811 q 488 798 490 803 q 485 791 485 793 q 482 783 485 789 l 240 108 q 208 19 232 79 q 107 -22 188 -22 q 24 32 24 -22 q 47 107 24 57 q 78 168 63 138 q 319 839 160 392 q 351 940 336 889 q 390 998 367 982 q 468 1014 413 1014 q 551 960 551 1014 m 463 865 q 431 910 463 910 q 353 815 383 910 q 315 714 339 781 q 265 578 296 661 q 161 290 222 460 q 111 129 111 147 q 144 82 111 82 q 208 144 179 82 q 243 238 226 190 q 293 376 264 293 q 435 765 342 506 q 463 865 463 847 z "},":":{"ha":439,"x_min":104,"x_max":344,"o":"m 344 590 q 343 525 344 551 q 299 475 342 486 q 224 471 281 471 q 164 471 164 471 q 108 518 119 475 q 104 592 104 535 q 122 692 104 671 q 224 713 140 713 q 332 688 311 713 q 344 590 344 669 m 344 119 q 326 17 344 35 q 222 0 307 0 q 157 0 157 0 q 108 51 118 6 q 104 121 104 67 q 122 221 104 200 q 224 242 140 242 q 326 222 308 242 q 344 119 344 201 m 278 590 q 224 644 278 644 q 186 628 203 644 q 169 590 169 611 q 187 553 169 571 q 225 536 204 536 q 260 552 243 536 q 278 590 278 568 m 278 121 q 263 158 278 140 q 224 176 247 176 q 187 158 204 176 q 169 121 169 139 q 187 84 169 103 q 224 65 204 65 q 260 82 243 65 q 278 121 278 99 z "},";":{"ha":439,"x_min":101,"x_max":343,"o":"m 343 592 q 322 491 343 510 q 222 472 301 472 q 121 492 139 472 q 103 593 103 513 q 122 694 103 675 q 222 714 140 714 q 325 694 307 714 q 343 592 343 674 m 343 167 q 340 142 343 165 q 336 106 338 118 q 339 21 335 92 q 332 -64 342 -31 q 282 -158 315 -121 q 224 -206 258 -185 q 158 -228 185 -228 q 110 -186 110 -228 q 144 -126 110 -162 q 200 -56 189 -81 q 210 -35 201 -51 q 243 -6 218 -19 q 274 19 268 8 q 293 88 293 57 q 274 148 293 118 q 222 178 254 178 q 181 157 197 178 q 164 114 164 136 q 174 72 164 111 q 185 29 185 32 q 160 6 185 6 q 104 61 111 6 l 103 161 q 140 235 101 219 q 221 243 160 243 q 299 238 281 243 q 343 167 343 222 m 276 592 q 261 629 276 613 q 222 646 246 646 q 185 631 201 646 q 168 593 168 615 q 183 556 168 574 q 222 538 199 538 q 258 553 240 538 q 276 592 276 568 z "},"<":{"ha":833,"x_min":64,"x_max":764,"o":"m 764 101 q 710 19 764 19 q 676 25 693 19 q 547 85 633 47 q 432 126 507 99 q 238 203 368 153 q 124 238 200 214 q 64 351 64 258 q 113 461 64 439 q 303 525 208 493 q 376 553 308 528 q 672 674 458 582 q 710 682 697 682 q 764 600 764 682 q 755 539 764 560 q 731 506 746 518 q 692 486 715 493 q 603 461 661 478 q 467 422 490 422 q 449 428 454 422 l 449 435 q 536 485 449 454 q 606 511 560 492 q 653 563 653 531 q 614 589 653 589 q 525 563 593 589 q 444 532 496 551 q 322 492 400 518 q 208 449 222 456 q 131 351 131 408 q 151 299 131 328 q 200 256 171 271 q 294 218 236 238 q 438 172 346 203 q 518 140 478 157 q 611 113 594 113 q 653 139 653 113 q 590 199 653 176 q 485 238 556 211 q 449 265 463 247 l 449 274 q 468 279 457 279 q 589 244 471 279 q 668 222 639 229 q 756 161 742 203 q 764 101 764 136 z "},"=":{"ha":833,"x_min":71,"x_max":767,"o":"m 767 522 q 747 452 767 472 q 682 432 728 432 q 644 436 681 432 q 603 440 607 440 l 232 440 q 193 436 229 440 q 154 432 157 432 q 71 522 71 432 q 150 614 71 614 l 246 604 l 592 604 l 686 614 q 767 522 767 614 m 767 171 q 688 79 767 79 l 582 89 l 250 89 l 149 79 q 71 171 71 79 q 150 263 71 269 l 253 254 l 582 254 l 686 263 q 767 171 767 269 m 651 522 q 621 557 651 544 q 572 567 597 567 l 268 567 q 215 557 240 567 q 183 522 183 544 q 226 485 183 497 q 276 478 251 478 l 561 478 q 651 522 651 478 m 651 171 q 571 214 651 214 l 268 214 q 221 207 244 214 q 183 171 183 194 q 214 139 183 151 q 253 129 236 129 l 585 129 q 622 139 601 129 q 651 171 651 151 z "},">":{"ha":833,"x_min":68,"x_max":767,"o":"m 767 350 q 760 286 767 304 q 694 232 746 249 q 594 203 658 222 q 272 81 488 161 q 189 40 251 72 q 122 19 147 19 q 68 103 68 19 q 82 178 68 149 q 129 211 97 203 q 207 232 156 219 q 278 257 242 244 q 365 279 344 279 q 383 274 378 279 l 383 265 q 357 242 383 257 q 246 200 319 229 q 178 140 178 169 q 218 113 178 113 q 313 142 235 113 q 393 172 353 157 q 579 232 454 194 q 660 278 621 242 q 700 350 700 314 q 676 408 700 379 q 619 453 653 438 q 454 508 601 461 q 339 551 396 529 q 217 589 233 589 q 178 561 178 589 q 249 499 178 525 q 322 475 286 486 q 338 468 328 472 q 381 440 353 463 q 385 433 382 440 q 364 422 382 422 q 228 461 335 422 q 153 481 224 463 q 82 524 104 493 q 68 599 68 543 q 121 682 68 682 q 189 661 147 682 q 249 631 246 632 q 494 536 290 615 q 707 464 625 486 q 767 350 767 447 z "},"?":{"ha":797,"x_min":57,"x_max":746,"o":"m 746 731 q 703 592 746 647 q 547 485 656 532 l 542 490 q 610 564 550 507 q 643 599 632 585 q 694 731 694 660 q 593 908 694 847 q 408 957 514 957 q 268 931 342 957 q 186 879 225 915 q 143 800 143 838 q 188 753 143 753 q 230 765 200 753 q 267 778 260 778 q 282 761 282 778 q 260 705 282 729 q 201 679 238 681 q 154 677 171 678 q 136 676 138 676 q 57 740 57 676 q 129 886 57 803 q 239 972 196 964 q 296 992 257 981 q 407 1004 357 1004 q 632 943 538 1004 q 746 731 746 868 m 501 432 q 478 365 501 397 q 375 333 456 333 q 282 406 282 333 q 294 463 282 425 q 328 519 304 490 q 381 563 342 533 q 444 601 429 601 l 454 601 q 457 594 457 596 q 413 538 457 585 q 369 454 369 492 q 407 411 369 411 q 451 424 421 411 q 496 444 474 435 q 501 432 501 439 m 504 121 q 503 60 504 78 q 456 6 500 17 q 383 1 439 1 q 304 7 321 1 q 261 78 261 22 q 263 81 261 76 q 264 104 264 86 q 264 182 265 131 q 277 217 264 197 q 311 239 290 236 q 425 242 328 242 q 499 201 483 242 q 504 121 504 185 m 436 122 q 421 160 436 142 q 382 178 406 178 q 345 159 361 178 q 329 122 329 140 q 345 86 329 104 q 382 68 361 68 q 419 83 403 68 q 436 122 436 99 z "},"@":{"ha":1111,"x_min":47,"x_max":1064,"o":"m 1064 585 q 1042 443 1064 504 q 914 264 1001 331 q 738 200 832 200 q 676 214 701 200 q 632 228 650 228 q 571 210 614 228 q 496 193 528 193 q 400 221 444 193 q 275 446 275 299 q 346 651 275 564 q 549 749 425 749 q 646 725 600 749 q 706 701 692 701 q 744 715 718 701 q 789 729 771 729 q 843 672 843 729 q 835 631 843 671 q 822 569 825 586 q 810 481 817 525 q 785 382 801 421 q 750 360 775 360 q 739 361 747 360 q 726 363 731 363 q 661 311 661 363 q 719 261 661 261 q 762 281 743 261 q 800 324 781 301 q 874 350 825 329 q 949 546 949 401 q 883 753 949 661 q 793 839 842 810 q 578 892 701 892 q 291 778 399 892 q 183 488 183 664 q 306 194 183 304 q 597 89 421 89 q 783 126 690 89 q 888 164 875 164 q 916 155 900 164 q 932 131 932 146 q 886 69 932 104 q 586 -29 754 -29 q 208 115 364 -29 q 47 490 47 265 q 206 863 47 713 q 579 1010 360 1010 q 903 903 763 1010 q 1064 585 1064 782 m 736 603 l 736 613 q 731 621 733 618 l 724 621 q 721 600 713 613 l 736 603 m 682 501 q 667 569 682 554 q 563 607 628 607 q 459 559 499 607 q 419 450 419 511 q 522 336 419 336 q 592 347 554 336 q 626 360 615 354 q 653 379 647 368 q 682 501 682 431 z "},"A":{"ha":978,"x_min":17,"x_max":965,"o":"m 607 494 q 600 489 604 489 q 578 526 589 489 q 568 568 568 558 q 574 583 568 578 q 584 577 582 582 q 596 549 586 572 q 607 511 607 521 l 607 494 m 965 51 q 890 0 965 -1 l 797 1 q 731 36 754 1 q 711 100 711 65 q 724 122 711 122 q 767 95 732 122 q 826 68 803 68 q 871 94 854 68 q 883 136 883 115 q 838 282 883 157 l 790 410 q 739 546 764 481 l 646 790 q 610 868 636 818 q 492 939 557 939 q 413 909 454 939 q 354 838 371 879 q 211 458 299 690 q 99 138 99 163 q 111 94 99 115 q 153 68 126 68 q 210 95 174 68 q 254 122 247 122 q 268 104 268 122 q 246 36 268 67 q 181 1 221 1 l 92 0 q 17 51 17 -1 q 32 101 17 69 q 54 144 43 122 q 214 557 79 201 q 313 822 244 646 q 348 931 329 878 q 433 985 367 985 l 547 985 q 629 942 607 985 q 667 829 647 886 l 765 561 q 803 460 779 522 q 833 378 817 424 q 872 281 833 378 q 910 182 885 247 q 942 121 925 151 q 965 51 965 72 m 413 569 q 401 524 413 553 q 378 486 390 494 q 369 503 369 492 q 401 583 369 542 q 413 569 413 576 m 586 207 l 576 197 q 489 190 553 190 q 393 206 417 190 q 490 232 407 232 q 586 207 582 232 z "},"B":{"ha":1003,"x_min":92,"x_max":943,"o":"m 542 829 q 486 817 526 817 q 433 826 449 817 l 433 835 q 482 847 451 847 q 542 829 526 847 m 604 460 q 492 443 597 443 q 390 474 390 443 q 395 496 390 476 q 400 518 400 515 q 395 539 400 521 q 390 558 390 557 q 489 589 390 589 q 586 574 568 589 q 577 544 585 565 q 569 522 569 524 q 585 490 569 511 q 604 460 601 469 m 943 297 q 938 239 943 278 q 571 7 904 4 l 269 10 l 171 0 q 92 75 92 0 l 101 161 l 101 828 l 92 911 q 169 986 92 992 l 308 975 l 615 979 q 831 917 753 981 q 904 749 904 854 q 889 674 904 719 q 836 614 860 614 q 821 633 821 614 q 834 683 821 642 q 847 751 847 724 q 744 904 847 854 q 575 939 671 939 l 413 939 l 310 944 q 218 933 263 947 q 159 885 183 922 q 135 815 135 849 l 135 171 q 175 83 135 124 q 272 43 215 43 l 551 44 q 622 51 597 50 q 819 123 744 58 q 894 289 894 188 q 865 399 894 342 q 836 463 836 457 q 850 478 836 478 q 896 444 869 478 q 919 411 908 428 q 936 364 926 396 q 943 297 943 318 m 560 169 q 494 149 554 149 q 438 164 456 149 q 494 179 447 179 q 560 169 531 179 z "},"C":{"ha":1054,"x_min":69,"x_max":994,"o":"m 994 310 q 940 181 994 269 q 846 72 885 92 q 815 51 835 64 q 799 42 810 49 q 791 37 797 40 q 782 32 785 33 q 751 18 771 26 q 657 -8 719 6 q 556 -17 621 -17 q 199 132 333 -17 q 69 489 69 274 q 196 847 69 703 q 551 1000 329 1000 q 747 961 651 1000 q 933 822 861 914 q 992 703 992 749 q 917 644 992 642 l 828 647 q 821 649 826 647 q 760 681 788 646 q 735 732 735 710 q 746 746 735 746 q 791 727 750 746 q 850 708 832 708 q 900 763 900 708 q 842 854 900 808 q 550 956 713 956 q 403 931 476 956 q 174 743 251 879 q 110 493 110 631 q 226 164 110 294 q 554 25 350 25 q 854 140 739 25 q 910 243 910 196 q 858 301 910 301 q 809 286 836 301 q 756 257 782 271 l 746 257 q 740 267 740 260 q 761 328 740 299 q 819 364 785 363 l 913 367 q 994 310 994 369 z "},"D":{"ha":1054,"x_min":89,"x_max":994,"o":"m 994 496 q 881 143 994 271 q 529 7 760 4 l 274 10 l 171 0 q 96 76 89 0 l 104 175 l 104 810 l 96 908 q 171 986 89 986 l 278 976 l 528 979 q 878 846 754 982 q 994 496 994 717 m 954 494 q 867 786 954 668 q 556 938 761 929 q 512 940 542 938 q 479 943 482 943 l 268 943 q 192 918 229 943 q 140 843 149 888 q 135 801 135 811 l 135 185 q 225 51 135 81 q 268 42 256 42 l 485 42 q 518 45 488 42 q 556 49 549 49 q 744 99 657 54 q 903 260 856 156 q 954 494 954 374 m 326 354 q 314 322 326 335 q 301 343 307 324 q 296 375 296 363 l 296 610 q 301 640 296 618 q 311 665 307 663 q 326 629 321 663 l 326 354 m 538 185 q 489 172 526 172 q 463 178 468 172 q 465 185 463 181 q 501 190 488 190 l 532 190 l 538 185 z "},"E":{"ha":951,"x_min":92,"x_max":890,"o":"m 831 506 q 750 414 831 407 l 632 424 l 475 424 q 436 435 458 424 l 436 444 q 496 461 467 461 l 635 461 q 718 507 718 461 q 690 540 718 528 q 650 550 668 550 l 506 550 q 436 567 467 550 l 436 576 q 472 588 438 578 l 665 590 q 747 597 728 597 q 813 575 796 597 q 831 506 831 553 m 890 99 q 878 26 890 47 q 810 -3 860 -3 l 703 7 l 272 7 l 169 -3 q 92 74 92 -3 l 101 165 l 101 810 l 92 907 q 169 983 92 983 l 276 974 l 710 976 q 760 980 726 976 q 794 983 794 983 q 878 890 878 983 q 799 794 878 794 l 707 804 l 467 807 q 436 819 454 808 q 492 842 438 842 l 681 842 q 772 890 772 842 q 706 936 772 928 l 269 942 q 172 903 210 943 q 135 811 135 864 l 135 168 q 158 96 135 138 q 208 56 172 72 q 265 40 240 40 l 707 40 q 761 53 732 40 q 803 99 803 69 q 663 160 803 160 l 482 160 q 460 166 476 160 q 443 178 444 172 q 499 193 453 193 l 724 193 l 814 201 q 890 99 890 201 z "},"F":{"ha":849,"x_min":92,"x_max":819,"o":"m 753 479 q 672 386 753 386 l 582 396 l 486 396 q 440 408 465 396 l 440 415 q 511 432 450 426 q 585 436 549 433 q 640 479 640 444 q 614 513 640 503 q 522 525 588 524 q 440 542 464 526 q 490 563 447 563 l 575 563 l 672 572 q 753 479 753 572 m 819 893 q 739 797 819 797 l 649 807 l 469 810 q 435 825 457 811 q 446 835 439 829 q 490 844 467 844 l 622 844 q 713 894 713 844 q 646 939 713 929 l 272 944 q 171 901 211 946 q 135 808 135 863 l 135 178 q 154 108 135 142 q 214 67 176 67 q 285 140 265 67 q 294 221 285 143 q 308 274 294 238 q 319 265 315 274 q 328 150 322 222 q 335 78 335 64 q 292 4 335 18 q 214 0 278 0 q 135 6 151 0 q 92 75 92 19 l 101 160 l 101 829 l 92 913 q 169 986 92 986 l 279 976 l 653 979 q 703 983 669 979 q 736 986 736 986 q 819 893 819 986 z "},"G":{"ha":1081,"x_min":60,"x_max":999,"o":"m 999 79 q 925 -3 999 -3 q 882 8 904 -3 q 851 49 851 24 q 863 72 851 65 q 908 94 885 83 q 947 140 939 113 q 957 178 957 174 l 957 364 q 935 429 957 399 q 813 488 893 488 q 707 428 707 488 q 711 401 707 417 q 711 382 715 389 q 664 360 699 360 q 592 444 592 360 q 675 532 592 532 q 742 527 678 532 q 810 522 807 522 q 868 527 813 522 q 926 532 924 532 q 999 453 999 532 l 989 364 l 989 172 q 994 126 989 171 q 999 79 999 82 m 975 721 q 899 664 975 664 q 793 669 829 664 q 754 686 772 672 q 717 746 717 724 l 717 757 q 728 760 718 760 q 780 744 732 760 q 831 728 828 728 q 865 744 851 728 q 879 779 879 760 q 831 860 879 818 q 544 958 714 958 q 217 819 340 958 q 100 493 100 689 q 332 79 100 206 q 528 31 422 31 q 649 49 585 31 q 719 68 713 68 q 738 57 738 68 q 717 29 738 50 q 603 -11 683 4 q 543 -17 574 -17 q 269 64 389 -17 q 78 340 129 160 q 60 493 60 404 q 201 865 60 722 q 543 1003 339 1003 q 636 994 582 1003 q 714 975 663 990 q 876 882 808 947 q 975 721 975 788 z "},"H":{"ha":1029,"x_min":89,"x_max":946,"o":"m 942 75 q 906 3 946 17 q 822 -3 890 -3 q 746 0 768 -3 q 711 26 724 3 q 700 71 699 50 l 711 201 l 711 261 q 724 296 711 274 q 736 274 731 293 q 742 243 742 254 l 742 185 q 758 110 742 144 q 822 64 781 64 q 885 110 863 64 q 901 178 901 143 l 901 803 q 885 872 901 838 q 822 918 861 918 q 758 868 781 918 q 742 782 742 831 q 728 733 740 767 q 714 751 717 739 q 700 908 700 881 q 744 979 700 965 q 822 983 760 983 q 906 978 889 983 q 942 906 946 963 l 933 786 l 933 192 l 942 75 m 589 594 q 517 576 575 576 q 446 592 468 576 q 517 607 460 607 q 589 594 576 607 m 589 439 q 517 424 579 424 q 446 436 469 424 q 517 454 460 454 q 589 439 571 454 m 332 74 q 292 1 338 15 q 211 -3 278 -3 q 136 1 151 -3 q 90 71 90 15 l 101 189 l 101 789 l 93 904 q 126 976 89 963 q 213 983 143 983 q 290 978 274 983 q 332 907 332 964 q 319 756 332 918 q 311 736 319 749 q 300 744 308 736 q 285 842 293 793 q 211 918 265 918 q 138 846 158 918 q 131 765 131 821 l 131 222 q 179 74 131 106 q 213 64 194 64 q 286 150 269 64 q 293 246 289 197 q 306 293 293 258 q 315 289 311 293 q 324 249 324 251 l 324 172 l 332 74 z "},"I":{"ha":438,"x_min":101,"x_max":342,"o":"m 342 76 q 299 3 342 17 q 221 -1 285 -1 q 142 4 158 -1 q 101 75 101 19 l 111 186 l 111 796 l 101 907 q 140 979 101 964 q 222 985 157 985 q 299 979 283 985 q 342 908 342 965 l 332 807 l 332 179 l 342 76 m 301 203 l 301 782 q 289 858 301 821 q 221 919 267 919 q 160 869 182 919 q 143 803 143 833 l 143 176 q 161 111 143 146 q 221 65 185 65 q 289 125 267 65 q 301 203 301 163 z "},"J":{"ha":824,"x_min":49,"x_max":731,"o":"m 731 904 q 721 804 731 911 l 724 307 q 388 -18 725 -18 q 206 15 274 -18 q 71 188 108 63 q 49 301 49 261 q 82 368 49 354 q 156 375 99 375 q 228 368 208 375 q 269 303 269 354 q 251 260 269 260 q 215 281 242 260 q 165 301 189 301 q 111 233 111 301 q 142 144 111 192 q 390 25 218 25 q 690 369 690 25 l 690 808 q 672 874 690 840 q 611 917 649 917 q 531 760 531 917 l 531 381 q 525 353 531 374 q 515 328 519 332 q 507 333 513 328 q 500 390 500 382 l 500 804 l 490 906 q 531 976 490 963 q 611 982 546 982 q 692 976 676 982 q 731 904 731 961 z "},"K":{"ha":1029,"x_min":92,"x_max":994,"o":"m 931 950 q 906 901 931 925 q 819 824 876 875 q 678 688 771 771 l 669 688 q 667 694 667 693 q 729 776 667 710 q 792 876 792 843 q 747 921 792 921 q 683 899 721 921 q 583 806 642 874 q 485 703 518 729 q 472 700 482 700 q 469 707 469 706 q 513 772 469 718 q 558 826 547 815 q 638 926 575 843 q 710 981 674 974 q 854 990 764 990 q 931 950 931 990 m 994 42 q 919 -3 994 -3 q 888 0 915 -3 q 858 3 861 3 l 775 3 q 730 22 754 3 q 693 67 706 42 q 599 226 667 119 q 543 322 543 315 l 543 333 q 550 336 544 336 q 569 321 557 336 q 635 228 582 306 q 686 149 661 189 q 769 75 725 97 q 826 57 806 57 q 866 74 851 57 q 881 115 881 92 q 768 316 881 157 q 656 497 656 475 q 661 506 656 503 q 681 492 674 501 q 896 183 751 389 q 956 114 925 149 q 994 42 994 68 m 335 78 q 294 6 335 19 q 215 0 279 0 q 136 6 153 0 q 96 76 92 21 l 107 225 l 107 764 l 96 910 q 135 981 92 967 q 215 986 151 986 q 294 981 279 986 q 335 910 335 967 q 322 781 335 856 q 313 763 322 769 q 299 796 304 767 q 290 842 294 819 q 263 897 283 872 q 215 921 242 921 q 147 860 168 921 q 135 785 135 824 l 135 203 q 151 117 135 154 q 215 67 174 67 q 286 135 263 67 q 310 221 297 178 q 321 214 318 221 q 335 78 335 100 z "},"L":{"ha":849,"x_min":96,"x_max":811,"o":"m 811 100 q 797 28 811 50 q 729 -1 778 -1 l 621 8 l 275 8 l 172 -1 q 96 75 96 -1 l 106 165 l 106 824 q 101 867 106 826 q 96 910 96 907 q 136 979 96 965 q 214 985 151 985 q 293 979 275 985 q 336 910 336 964 l 326 824 l 326 383 q 321 332 326 360 q 311 317 318 324 q 296 353 296 328 l 296 763 q 214 919 296 919 q 167 893 192 919 q 136 776 136 861 l 136 207 q 226 50 136 76 q 269 42 256 42 l 628 42 q 683 54 656 42 q 721 100 721 71 q 586 161 721 161 l 483 161 q 446 176 457 161 q 458 189 453 188 q 501 194 489 194 l 643 194 l 733 204 q 811 100 811 204 z "},"M":{"ha":1286,"x_min":90,"x_max":1197,"o":"m 1197 79 q 1114 -3 1197 -3 l 1057 -3 q 971 75 971 -3 l 981 160 l 982 388 q 993 458 988 435 q 1000 456 996 458 q 1011 390 1004 442 l 1014 197 q 1028 119 1011 160 q 1083 74 1049 74 q 1140 115 1119 74 q 1157 188 1157 149 l 1157 801 q 1113 910 1157 871 q 1006 944 1072 944 q 849 863 894 944 q 811 738 833 836 q 788 622 804 697 q 722 450 760 450 q 707 474 707 450 q 726 571 707 490 q 817 929 763 690 q 849 974 819 949 q 900 983 864 986 l 1006 975 l 1121 986 q 1197 908 1197 986 l 1188 801 l 1188 185 l 1197 79 m 869 524 q 854 443 869 506 q 771 157 825 349 q 753 63 765 125 q 707 7 742 19 q 644 0 689 0 q 558 24 579 0 q 522 142 538 49 q 469 325 521 154 q 422 522 422 482 q 433 546 422 536 q 451 529 442 543 q 506 357 482 483 q 538 215 518 308 q 568 129 546 169 q 647 71 601 71 q 731 140 699 71 q 782 336 746 174 q 808 457 796 396 q 858 543 825 514 q 869 524 869 539 m 582 476 q 568 451 582 451 q 536 488 551 451 q 522 528 529 507 q 482 724 497 654 q 471 775 478 742 q 286 944 446 944 q 142 846 169 944 q 136 814 136 826 l 136 172 q 153 115 136 146 q 207 74 174 74 q 279 225 279 74 l 279 368 q 294 461 279 435 q 303 436 300 456 q 307 401 307 401 l 310 164 l 319 75 q 232 -3 319 -3 l 181 -3 q 93 74 93 -3 l 104 188 l 104 799 l 96 907 q 172 986 90 986 l 286 975 l 397 986 q 479 914 458 986 q 501 801 490 858 q 506 783 503 797 q 544 646 525 715 q 582 476 582 507 z "},"N":{"ha":1029,"x_min":89,"x_max":944,"o":"m 939 74 q 858 -1 944 -1 q 808 0 856 -1 q 757 1 760 1 q 696 13 715 1 q 646 77 668 28 q 606 161 624 126 q 511 328 558 244 q 433 482 433 465 l 433 493 q 442 494 440 494 q 464 476 446 494 q 531 367 496 433 q 589 257 582 269 q 665 125 606 219 q 717 79 686 97 q 793 53 761 53 q 831 60 818 53 q 892 135 878 86 q 899 221 899 161 l 896 800 q 881 868 896 835 q 825 911 861 911 q 753 767 753 911 l 753 611 q 747 582 753 604 q 738 557 742 560 q 729 561 738 557 q 722 626 722 599 l 722 814 l 713 908 q 806 985 713 994 q 835 985 815 983 q 854 988 854 988 q 939 908 939 988 l 929 814 l 926 224 l 939 74 m 594 503 q 588 494 590 494 q 557 521 576 494 q 454 700 532 554 q 368 847 393 815 q 233 933 304 933 q 149 875 178 933 q 132 793 132 842 l 132 190 q 143 122 132 154 q 201 71 161 71 q 256 114 236 71 q 272 189 272 149 l 272 357 q 282 431 272 382 l 290 439 q 303 393 296 433 l 306 156 l 315 74 q 225 -4 315 -4 l 178 -4 q 89 72 89 -4 l 101 207 l 101 783 q 95 846 101 786 q 89 910 89 906 q 168 985 89 985 q 201 982 171 985 q 233 979 231 979 q 254 981 236 979 q 275 982 272 982 q 349 957 324 982 q 400 867 364 940 q 585 535 463 756 q 594 503 592 522 z "},"O":{"ha":1081,"x_min":65,"x_max":1022,"o":"m 1022 492 q 900 132 1022 272 q 543 -17 768 -17 q 186 132 315 -17 q 65 490 65 271 q 186 849 65 710 q 543 1000 315 1000 q 901 849 769 1000 q 1022 492 1022 708 m 982 489 q 868 818 982 689 q 542 956 747 956 q 218 818 339 956 q 103 489 103 688 q 217 164 103 292 q 543 26 338 26 q 772 85 669 26 q 946 293 897 156 q 982 489 982 396 z "},"P":{"ha":951,"x_min":90,"x_max":911,"o":"m 514 821 q 486 810 508 810 q 454 818 461 810 q 482 829 461 829 q 514 821 500 829 m 911 668 q 807 406 911 485 q 544 339 719 339 q 440 357 451 339 q 449 367 440 363 q 561 381 471 379 q 793 463 715 383 q 867 661 867 535 q 817 828 867 758 q 643 926 758 908 q 547 939 610 932 l 307 944 q 146 844 175 947 q 139 811 139 819 l 139 171 q 157 107 139 142 q 217 64 181 64 q 278 110 254 64 q 297 183 296 146 q 310 217 297 197 q 324 200 324 211 q 336 76 336 128 q 279 -1 336 3 q 176 -4 240 -4 q 97 74 90 -4 l 106 169 l 106 814 l 97 908 q 175 985 97 985 q 213 980 175 985 q 268 975 251 975 l 551 978 q 911 668 911 982 m 528 494 q 485 478 521 478 q 444 489 454 478 q 486 501 453 501 q 528 494 517 501 m 311 643 l 310 667 q 311 643 325 657 z "},"Q":{"ha":1081,"x_min":64,"x_max":1019,"o":"m 1019 493 q 957 224 1019 324 q 936 204 954 219 l 928 204 q 924 221 924 221 q 944 294 924 238 q 965 351 954 324 q 982 492 982 461 q 867 821 982 693 q 542 957 746 957 q 214 819 333 957 q 104 493 104 692 q 219 161 104 289 q 544 28 339 28 q 610 33 547 28 q 675 38 672 38 q 707 29 700 38 l 707 22 q 542 -14 664 -14 q 185 135 314 -14 q 64 492 64 274 q 185 851 64 713 q 542 1000 315 1000 q 825 919 708 1000 q 1010 628 961 824 q 1019 493 1019 589 m 686 313 q 646 268 686 294 q 593 242 606 242 q 558 281 558 242 q 583 331 558 306 q 633 357 607 357 q 669 342 651 357 q 686 313 686 328 m 996 6 q 969 -50 996 -25 q 914 -75 942 -75 q 853 -43 888 -75 q 819 11 819 -11 q 835 26 819 21 q 876 47 850 32 q 897 71 878 49 q 921 88 913 88 q 970 58 944 88 q 996 6 996 28 z "},"R":{"ha":1003,"x_min":90,"x_max":947,"o":"m 554 818 q 499 808 549 808 q 446 818 451 808 q 494 833 454 833 q 554 818 533 833 m 947 57 q 867 -4 947 -7 l 783 -1 q 722 44 736 7 q 714 115 714 64 q 722 203 714 178 q 732 197 729 203 q 761 122 746 160 q 828 69 788 69 q 890 160 890 69 q 863 292 890 215 q 835 375 835 369 q 846 393 835 393 q 894 342 871 393 q 915 282 911 306 q 926 164 918 240 q 938 101 929 143 q 947 57 947 58 m 561 522 q 496 504 539 504 q 442 519 458 504 q 497 538 440 538 q 561 522 551 538 m 938 713 q 929 642 938 683 q 904 579 928 621 q 850 528 876 528 q 839 546 839 528 q 863 603 839 547 q 886 708 886 658 q 790 883 886 821 q 583 939 708 936 l 307 944 q 138 776 138 947 l 138 206 q 218 64 138 64 q 299 211 285 64 q 313 253 299 238 q 322 238 322 246 q 338 74 338 118 q 278 -1 338 1 q 175 -4 226 -4 q 97 76 97 -4 l 107 185 l 107 794 l 97 907 q 174 985 90 985 q 268 975 161 985 l 589 978 q 817 928 726 979 q 938 713 938 860 m 544 388 q 489 375 535 375 q 442 385 457 375 l 442 393 q 488 406 457 406 q 544 388 526 406 z "},"S":{"ha":926,"x_min":46,"x_max":888,"o":"m 850 764 q 771 704 850 701 l 682 707 q 675 708 679 707 q 624 737 649 710 q 599 785 599 764 q 600 790 599 788 q 601 794 601 792 l 625 794 q 660 781 628 794 q 707 768 693 768 q 741 783 728 768 q 754 817 754 797 q 713 885 754 854 q 472 957 613 957 q 238 901 333 957 q 125 714 125 836 q 207 550 125 614 q 378 471 264 507 q 521 421 504 431 q 535 407 528 417 q 522 403 533 403 q 286 461 472 403 q 192 503 233 478 q 74 713 74 574 q 215 944 74 865 q 467 1004 324 1004 q 640 974 553 1004 q 808 860 754 935 q 850 764 850 801 m 888 304 q 742 44 888 125 q 467 -15 633 -15 q 82 160 194 -15 q 46 257 46 215 q 121 318 46 318 q 128 317 121 318 q 151 315 136 315 q 208 317 174 315 q 272 290 246 318 q 297 228 297 261 q 283 218 297 218 q 242 235 278 218 q 186 253 206 253 q 132 200 132 253 q 160 139 132 172 q 465 29 250 29 q 658 60 572 29 q 815 193 779 101 q 839 293 839 253 q 771 454 839 390 q 617 538 719 501 q 451 590 533 564 q 422 610 436 596 l 428 615 l 446 615 q 554 590 456 615 q 668 560 649 567 q 765 518 729 539 q 888 304 888 446 z "},"T":{"ha":900,"x_min":29,"x_max":876,"o":"m 876 886 q 865 815 876 838 q 800 782 849 782 q 706 794 771 782 q 683 807 693 797 q 710 822 689 817 q 740 832 725 828 q 789 886 789 854 q 750 933 789 915 q 686 947 719 947 l 224 947 q 158 933 189 947 q 119 886 119 917 q 161 836 119 856 q 222 810 192 822 q 210 797 222 797 q 108 782 118 782 q 29 885 29 782 q 42 956 29 933 q 111 988 60 988 q 156 983 113 988 q 203 978 200 978 l 706 978 q 750 983 708 978 q 796 988 792 988 q 865 958 847 988 q 876 886 876 938 m 575 78 q 531 6 575 19 q 454 1 517 1 q 372 7 389 1 q 333 76 329 21 l 342 179 l 342 621 q 354 669 342 653 q 365 661 361 669 q 375 590 375 619 l 375 174 q 394 108 375 144 q 454 64 418 64 q 514 108 490 64 q 533 172 533 144 l 533 608 q 540 657 533 629 q 550 669 542 658 q 560 660 556 669 q 565 628 565 646 l 565 183 l 575 78 z "},"U":{"ha":1029,"x_min":85,"x_max":949,"o":"m 944 908 l 933 747 l 938 385 q 517 -15 942 -15 q 101 300 133 -15 q 97 421 97 342 l 97 808 l 89 908 q 125 978 85 964 q 208 985 143 985 q 289 979 272 985 q 329 908 333 965 l 319 794 l 319 451 q 308 369 319 396 q 289 449 289 382 l 289 757 q 207 918 289 918 q 140 860 160 918 q 129 783 129 826 l 129 465 q 131 442 129 464 q 132 407 132 419 q 514 24 135 24 q 790 106 697 24 q 903 421 901 201 l 906 771 q 894 853 906 815 q 824 918 874 918 q 794 908 813 918 q 744 776 744 882 l 744 439 q 738 390 744 425 q 728 375 735 382 q 717 408 721 379 l 714 811 l 706 908 q 746 979 700 965 q 825 985 761 985 q 904 979 889 985 q 944 908 949 965 z "},"V":{"ha":900,"x_min":14,"x_max":892,"o":"m 892 929 q 865 847 892 901 q 836 781 838 788 q 829 757 836 779 q 775 592 808 697 q 693 331 724 425 q 615 72 664 243 q 525 -4 599 -4 l 447 4 l 371 -4 q 297 42 318 -4 q 269 138 283 89 q 69 778 204 351 q 38 853 68 783 q 14 928 14 906 q 88 983 14 985 l 185 982 q 235 960 214 982 q 261 911 257 939 q 275 832 265 883 q 339 586 293 757 q 378 435 378 436 l 378 403 q 372 400 378 400 q 307 588 356 400 q 246 813 288 663 q 225 860 240 832 q 147 915 196 915 q 92 840 92 915 q 113 740 92 810 q 263 272 163 585 q 313 124 271 232 q 372 65 331 89 q 447 40 414 40 q 528 64 490 40 q 594 143 574 92 q 671 376 619 221 q 817 840 817 818 q 801 892 817 868 q 760 915 786 915 q 679 850 715 915 q 646 761 654 804 q 607 618 632 714 q 551 422 592 557 q 535 400 549 411 q 526 415 526 406 q 543 501 526 438 q 558 565 551 535 q 629 828 565 596 q 646 922 638 875 q 721 982 665 981 l 817 983 q 892 929 892 985 z "},"W":{"ha":1338,"x_min":21,"x_max":1319,"o":"m 1319 931 q 1293 838 1319 908 q 1267 764 1281 800 q 1229 626 1265 758 q 1147 321 1211 561 q 1086 83 1122 240 q 996 0 1075 0 l 892 0 q 840 13 857 0 q 806 71 814 32 q 799 138 803 104 q 779 236 790 188 q 726 504 726 463 q 746 542 726 542 q 771 528 756 542 q 799 501 792 506 q 807 574 807 517 q 792 729 807 635 q 765 847 778 814 q 726 901 754 876 q 672 926 697 926 q 576 850 613 926 q 554 756 565 828 q 539 608 539 661 q 554 529 539 529 q 573 538 557 529 q 593 546 589 546 q 614 507 614 546 q 599 401 614 483 q 533 60 571 286 q 510 20 532 40 q 467 0 488 0 l 328 0 q 283 19 306 0 q 256 68 261 39 q 238 154 250 97 q 194 318 226 211 q 156 454 171 396 q 135 538 149 482 q 71 775 114 615 q 57 819 63 804 q 21 932 21 913 q 100 988 21 989 l 186 986 q 234 963 214 986 q 257 911 254 939 q 282 738 263 850 q 308 606 296 671 q 329 474 329 503 q 324 454 329 468 q 306 474 313 460 q 263 676 292 522 q 222 850 238 811 q 191 895 213 875 q 146 915 169 915 q 93 840 93 915 q 119 713 93 807 q 268 174 171 540 q 317 90 279 128 q 393 51 354 51 q 456 76 421 51 q 503 138 490 100 q 531 340 531 221 q 519 418 531 400 l 514 418 q 495 409 511 418 q 476 400 479 400 q 454 433 454 400 q 465 524 454 472 q 528 794 486 610 q 538 858 528 794 q 542 903 539 881 q 558 954 544 932 q 590 979 569 972 q 708 986 611 986 q 796 926 781 986 q 810 822 800 892 q 851 640 831 732 q 886 442 886 485 q 869 404 886 404 q 843 418 856 404 q 817 447 824 442 q 811 446 814 447 q 807 374 807 411 q 818 243 807 321 q 828 182 825 190 q 847 122 835 143 q 944 54 888 54 q 1039 115 1000 54 q 1082 228 1069 161 q 1172 549 1090 267 q 1249 840 1249 808 q 1236 889 1249 868 q 1194 915 1222 915 q 1147 892 1171 915 q 1115 840 1124 869 q 1078 656 1103 797 q 1036 471 1054 522 q 1019 447 1032 460 q 1011 468 1011 461 q 1024 554 1011 492 q 1069 785 1040 631 q 1089 935 1074 828 q 1109 965 1092 949 q 1139 982 1126 981 q 1239 988 1189 988 q 1319 931 1319 988 z "},"X":{"ha":978,"x_min":38,"x_max":939,"o":"m 908 942 q 879 881 908 918 q 806 793 853 850 q 738 694 772 743 q 665 604 693 628 q 657 614 657 604 q 726 731 657 631 q 796 864 796 832 q 750 917 796 917 q 622 811 690 917 q 579 769 593 765 q 575 776 575 774 q 604 843 575 796 q 644 926 625 885 q 713 979 674 976 q 838 988 857 988 q 908 942 908 988 m 400 783 q 397 771 400 774 q 361 807 383 775 q 326 858 343 833 q 228 919 279 919 q 182 867 182 919 q 186 835 182 844 q 247 736 199 806 q 315 629 299 663 q 322 615 322 618 l 322 607 l 317 601 q 281 635 297 614 q 181 779 247 685 q 107 867 178 783 q 68 940 68 913 q 138 988 68 988 q 162 985 140 988 q 185 983 183 983 l 249 983 q 313 961 293 983 q 336 933 322 951 q 372 857 346 914 q 400 783 400 793 m 939 38 q 861 -6 939 -6 q 828 -3 858 -6 q 794 0 797 0 l 722 0 q 631 104 678 0 q 572 229 606 146 q 581 235 578 235 q 606 211 590 235 q 656 135 631 174 q 729 69 692 89 q 775 56 757 56 q 826 114 826 56 q 742 274 826 151 q 657 415 657 396 q 663 425 657 419 q 686 406 674 422 q 815 218 729 343 q 914 93 846 175 q 939 38 939 64 m 397 228 q 324 85 397 222 q 304 47 304 49 q 271 13 289 25 q 215 -3 249 -3 l 154 -3 q 131 -6 151 -3 q 107 -8 110 -8 q 38 38 38 -8 q 74 107 38 63 q 129 174 101 140 q 293 408 186 257 q 317 425 301 418 q 321 415 321 421 q 235 273 321 396 q 149 113 149 150 q 197 61 149 61 q 354 201 269 61 q 386 238 365 218 q 397 228 397 238 z "},"Y":{"ha":926,"x_min":21,"x_max":915,"o":"m 915 940 q 886 875 915 915 q 843 818 865 847 q 632 463 772 699 q 604 429 624 449 q 594 436 594 425 q 607 472 594 447 q 690 624 638 535 q 799 813 726 686 q 811 863 811 835 q 763 921 811 921 q 717 906 742 921 q 622 789 665 875 q 558 685 578 699 q 553 697 553 689 q 565 736 553 708 q 643 913 597 797 q 681 964 650 943 q 740 985 711 985 l 839 986 q 915 940 915 988 m 381 690 q 375 688 381 688 q 354 707 367 688 q 300 808 344 722 q 267 863 289 831 q 224 902 253 883 q 172 921 194 921 q 135 901 149 921 q 122 863 122 882 q 147 792 122 836 q 185 728 167 760 q 307 515 226 657 q 340 432 322 488 l 335 426 q 311 450 322 433 q 135 750 251 550 q 90 819 118 778 q 47 876 68 849 q 21 939 21 914 q 96 986 21 988 l 193 985 q 203 982 197 983 q 303 888 268 982 q 351 776 317 851 q 381 708 381 711 l 381 690 m 588 76 q 550 3 593 17 q 468 -1 536 -1 q 386 4 400 -1 q 347 76 347 18 l 357 188 l 357 258 q 369 304 357 286 q 388 242 382 290 q 393 147 389 224 q 418 92 394 122 q 468 61 442 61 q 514 87 492 61 q 542 145 536 113 q 547 190 547 178 l 547 251 q 563 307 547 272 q 571 303 569 307 q 578 261 578 268 l 578 190 l 588 76 z "},"Z":{"ha":926,"x_min":43,"x_max":900,"o":"m 879 899 q 854 781 879 817 q 717 638 785 710 q 435 338 622 529 l 422 338 q 440 376 429 363 q 607 564 450 389 q 736 703 672 633 q 815 856 815 794 q 768 928 815 903 q 692 947 733 947 l 265 947 q 200 933 232 947 q 161 886 161 915 q 196 840 161 858 q 257 825 225 825 l 360 825 q 388 819 368 825 q 410 810 408 814 q 403 800 410 807 q 340 792 344 792 l 231 792 l 151 782 q 74 885 74 782 q 85 957 74 936 q 154 988 103 988 q 199 983 157 988 q 244 978 242 978 l 713 978 q 756 983 715 978 q 801 988 797 988 q 879 899 879 988 m 900 101 q 819 1 900 1 l 710 11 l 231 11 l 122 1 q 43 79 43 1 q 58 200 43 164 q 82 236 68 222 q 267 431 163 317 q 456 636 394 572 q 482 651 465 647 q 486 643 486 647 q 435 569 486 629 q 157 261 340 467 q 124 204 140 242 q 104 136 104 163 q 154 60 104 86 q 233 42 192 42 l 706 42 q 763 51 733 42 q 810 101 810 68 q 692 164 810 164 l 542 164 q 497 179 513 164 q 506 189 501 186 q 586 197 539 197 l 740 197 l 821 206 q 900 101 900 206 z "},"[":{"ha":514,"x_min":106,"x_max":501,"o":"m 501 -154 q 419 -244 501 -244 l 294 -233 l 182 -244 q 106 -167 106 -244 l 115 -62 l 115 828 l 106 933 q 185 1010 106 1010 q 240 1006 188 1010 q 296 1003 292 1003 q 359 1008 299 1003 q 422 1013 419 1013 q 501 921 501 1013 q 429 831 501 831 q 374 858 374 831 q 385 883 374 864 q 396 915 396 901 q 293 968 396 968 q 151 860 172 968 q 150 849 151 857 q 149 840 149 842 l 149 -72 q 153 -104 149 -71 q 211 -182 165 -156 q 290 -201 247 -201 q 396 -147 396 -201 q 385 -115 396 -132 q 374 -92 374 -97 q 396 -69 374 -79 q 429 -62 414 -62 q 501 -154 501 -62 m 299 114 q 293 65 299 90 q 283 50 289 54 q 274 57 278 53 q 264 147 264 93 l 264 618 q 269 692 264 664 q 281 715 269 707 q 289 713 288 715 q 299 651 299 690 l 299 114 z "},"\\":{"ha":565,"x_min":21,"x_max":549,"o":"m 549 29 q 464 -22 549 -22 q 378 0 403 -22 q 333 103 353 22 q 281 254 332 108 q 235 381 264 299 q 192 499 218 425 q 158 590 181 526 q 126 682 147 621 q 83 800 118 708 q 56 865 67 843 q 21 958 21 931 q 103 1014 21 1014 q 190 987 165 1014 q 238 876 215 960 q 290 731 256 828 l 349 565 q 383 467 361 528 q 419 369 396 435 q 492 169 456 263 q 525 100 508 135 q 549 29 549 49 m 461 124 q 408 293 461 147 q 346 460 376 376 q 231 779 306 576 q 204 849 218 814 q 142 910 175 910 q 108 863 108 910 q 199 590 108 843 q 331 228 253 438 q 358 147 344 188 q 426 79 389 79 q 461 124 461 79 z "},"]":{"ha":514,"x_min":19,"x_max":415,"o":"m 256 92 q 240 50 256 65 q 232 56 238 50 q 225 89 225 81 l 225 685 q 235 718 225 699 l 243 718 q 256 681 256 696 l 256 92 m 415 -162 q 340 -242 415 -242 l 226 -231 l 103 -242 q 19 -151 19 -242 q 92 -60 19 -60 q 124 -67 107 -60 q 147 -89 147 -75 q 136 -117 147 -92 q 125 -144 125 -142 q 229 -199 125 -199 q 334 -161 293 -199 q 375 -61 375 -124 l 375 831 q 334 934 375 897 q 228 971 293 971 q 125 918 125 971 q 137 888 125 915 q 149 860 149 861 q 125 839 149 847 q 90 832 107 832 q 19 924 19 832 q 99 1015 19 1015 q 161 1010 101 1015 q 225 1006 221 1006 q 282 1009 228 1006 q 339 1013 336 1013 q 415 933 415 1013 l 406 828 l 406 -57 l 415 -162 z "},"^":{"ha":833,"x_min":101,"x_max":733,"o":"m 733 513 q 650 461 733 461 q 600 464 631 461 q 548 499 563 472 q 511 599 533 526 q 490 674 490 664 q 492 680 490 676 q 494 684 493 683 q 496 686 494 685 q 501 688 497 688 q 545 628 513 688 q 607 569 578 569 q 633 606 633 569 q 617 665 633 628 l 549 819 q 492 880 533 853 q 418 907 451 907 q 346 881 386 907 q 285 813 301 851 q 242 711 268 775 q 203 606 203 615 q 229 569 203 569 q 296 640 258 569 q 311 667 306 660 q 335 688 324 685 q 344 669 344 679 q 324 594 344 672 q 271 481 300 506 q 186 461 247 461 q 101 513 101 461 q 128 582 101 532 q 165 647 147 614 q 244 825 213 746 q 268 889 251 847 q 361 956 297 956 l 475 956 q 567 893 543 956 q 597 815 576 865 q 663 665 618 764 q 696 603 674 642 q 733 513 733 538 z "},"_":{"ha":694,"x_min":0,"x_max":0,"o":""},"`":{"ha":411,"x_min":33,"x_max":286,"o":"m 286 849 q 224 806 286 806 q 157 825 178 806 q 88 883 122 854 q 33 961 33 935 q 114 1001 33 1001 q 180 991 150 1001 q 248 928 210 981 q 286 849 286 876 z "},"a":{"ha":824,"x_min":56,"x_max":756,"o":"m 756 65 q 679 3 756 3 q 593 10 615 3 q 557 26 582 14 q 522 35 540 35 q 438 8 508 35 q 310 -19 368 -19 q 136 28 204 -19 q 56 193 56 85 q 121 342 56 293 q 318 417 194 397 q 490 442 472 442 q 525 399 525 442 q 517 350 525 367 q 465 321 510 333 q 424 312 451 317 q 385 303 397 307 q 286 271 272 271 q 260 297 275 271 q 217 322 244 322 q 138 271 168 322 q 113 190 113 231 q 144 100 113 142 q 232 54 179 54 q 282 86 267 54 q 301 119 285 100 q 318 119 301 119 q 347 117 322 119 q 375 115 372 115 q 476 141 428 115 q 525 167 524 167 q 542 140 536 167 q 557 92 549 106 q 618 65 575 65 q 708 196 710 65 l 706 429 q 679 563 704 501 q 564 651 640 651 q 519 622 529 651 q 488 593 508 593 q 453 595 485 593 q 419 597 422 597 q 306 553 343 597 q 182 508 268 508 q 96 563 96 508 q 126 631 96 597 q 419 736 224 736 q 621 704 540 736 q 740 538 740 654 l 739 210 q 747 133 739 175 q 756 65 756 90 z "},"b":{"ha":875,"x_min":83,"x_max":821,"o":"m 821 368 q 753 110 821 215 q 510 -19 669 -19 q 453 -15 478 -19 q 383 17 429 -10 q 326 71 326 49 q 329 90 326 72 q 332 115 332 107 q 336 165 332 161 q 351 165 344 168 l 410 146 q 478 129 432 142 q 493 117 493 129 q 488 99 493 114 q 482 81 482 83 q 549 42 482 42 q 688 106 625 42 q 768 264 750 171 q 778 363 778 314 q 765 468 778 410 q 687 610 747 554 q 554 667 626 667 q 486 628 486 667 q 491 608 486 626 q 496 583 496 590 q 451 568 482 574 q 408 558 411 560 q 353 543 363 543 q 340 553 340 543 q 346 572 340 554 q 351 600 351 590 q 524 726 353 726 q 756 606 675 726 q 821 368 821 507 m 306 906 q 292 796 306 879 q 283 781 292 789 q 272 788 286 781 q 253 858 263 822 q 197 907 232 907 q 129 782 129 907 l 129 200 q 169 81 129 114 q 243 57 193 61 q 283 40 283 54 q 168 -3 283 -3 q 89 76 83 -3 l 97 200 l 97 782 l 89 906 q 121 975 85 958 q 197 985 140 985 q 272 975 253 985 q 306 906 306 960 z "},"c":{"ha":824,"x_min":56,"x_max":764,"o":"m 764 215 q 692 92 764 163 q 568 10 621 22 q 544 1 561 8 q 424 -15 483 -15 q 159 85 263 -15 q 56 347 56 185 q 153 619 56 514 q 422 731 254 731 q 717 603 607 731 q 757 519 757 556 q 675 464 757 464 q 529 553 550 464 q 544 558 535 558 q 576 553 549 558 q 606 549 603 549 q 639 576 639 549 q 542 657 639 629 q 418 667 507 667 q 325 661 350 667 q 149 536 207 635 q 100 351 100 456 q 143 183 100 256 q 307 58 196 93 q 417 49 338 49 q 524 54 492 49 q 625 103 581 65 q 656 156 656 128 q 621 188 656 188 q 588 179 618 188 q 554 171 557 171 q 540 182 543 171 q 560 226 540 196 q 593 258 581 257 q 617 267 601 263 q 683 272 654 272 q 764 215 764 272 z "},"d":{"ha":875,"x_min":51,"x_max":789,"o":"m 789 75 q 706 -1 789 -1 q 592 49 593 -1 q 611 60 603 60 q 715 93 681 53 q 746 189 746 128 l 746 800 q 731 869 746 838 q 678 910 711 910 q 622 864 642 910 q 604 797 614 831 q 592 783 600 790 q 582 800 586 790 q 569 908 569 878 q 603 978 569 963 q 678 988 622 988 q 750 979 729 988 q 789 911 789 963 l 779 829 l 779 158 l 789 75 m 549 75 q 518 36 549 63 q 365 -18 454 -18 q 118 117 203 -18 q 51 371 51 224 q 121 611 51 511 q 351 729 203 729 q 518 650 488 729 q 535 560 535 607 q 521 547 535 547 q 397 576 522 547 q 376 592 376 581 q 383 611 376 596 q 389 629 389 626 q 319 669 389 669 q 210 630 264 669 q 125 519 156 590 q 97 365 97 457 q 128 203 97 278 q 247 64 167 107 q 329 42 289 42 q 393 82 393 42 q 383 124 393 71 q 397 132 400 132 q 536 171 443 146 q 542 136 544 164 q 545 100 542 124 q 549 75 549 76 z "},"e":{"ha":849,"x_min":56,"x_max":804,"o":"m 804 375 q 728 308 804 308 q 693 311 725 308 q 658 314 661 314 l 553 304 l 349 304 q 289 360 289 304 q 363 424 289 424 l 556 424 q 599 392 567 424 q 660 361 632 361 q 715 390 693 361 q 736 443 736 415 q 688 557 736 494 q 581 622 635 622 q 551 606 554 622 q 542 568 547 575 q 490 581 535 569 q 435 589 457 589 q 377 580 406 589 q 322 561 349 571 q 306 561 322 561 q 297 592 301 568 q 267 610 293 610 q 206 585 239 610 q 100 349 100 506 q 106 286 100 326 q 163 157 115 221 q 276 85 215 85 q 306 97 301 85 q 307 143 307 101 q 310 144 308 143 q 315 146 313 146 q 359 133 317 146 q 438 121 401 121 q 554 160 503 121 q 678 200 606 200 q 764 154 764 200 q 699 63 764 114 q 606 8 646 22 q 511 -18 543 -12 q 439 -24 479 -24 q 161 79 267 -24 q 56 354 56 182 q 167 623 56 514 q 435 732 278 732 q 635 676 547 732 q 778 479 739 610 q 804 375 804 392 z "},"f":{"ha":514,"x_min":21,"x_max":515,"o":"m 515 911 q 438 838 515 838 q 390 880 399 838 q 336 922 381 922 q 250 888 289 922 q 200 825 228 868 q 171 790 178 790 q 156 817 156 790 q 204 926 156 881 q 331 979 253 972 q 386 986 344 981 q 426 990 424 990 q 515 911 515 990 m 504 644 q 431 578 504 578 q 382 619 382 578 q 386 681 382 665 q 435 713 397 713 q 484 692 464 713 q 504 644 504 671 m 125 646 q 124 599 125 603 q 90 578 118 578 q 21 644 21 578 q 42 694 21 675 q 92 713 63 713 q 125 692 119 713 q 125 646 125 689 m 358 75 q 318 7 358 24 q 249 -1 297 -1 q 175 8 194 -1 q 142 78 142 24 q 147 127 142 81 q 151 176 151 174 l 151 417 q 164 463 151 454 q 176 438 171 458 q 182 410 182 418 l 182 179 q 196 119 182 151 q 249 76 215 76 q 300 118 281 76 q 315 175 315 150 l 315 403 q 333 465 315 444 q 343 453 338 461 q 349 403 349 432 l 349 158 l 358 75 z "},"g":{"ha":849,"x_min":50,"x_max":772,"o":"m 538 554 q 524 546 532 546 q 458 568 533 546 q 381 586 432 576 q 368 600 368 590 q 374 619 368 603 q 379 639 379 636 q 314 675 379 675 q 224 647 268 675 q 92 385 92 565 q 121 247 92 315 q 225 124 157 160 q 307 99 272 99 q 379 140 379 99 q 374 158 379 142 q 368 183 369 175 q 378 192 375 190 q 443 206 401 199 q 488 218 457 208 q 521 228 518 228 q 532 214 532 228 q 528 196 532 211 q 524 172 525 181 q 356 44 513 44 q 117 151 196 44 q 50 390 50 242 q 122 628 50 532 q 357 736 206 736 q 513 675 444 736 q 538 653 538 657 l 538 554 m 772 640 l 763 531 l 765 89 q 750 -51 765 8 q 610 -214 721 -161 q 415 -253 526 -253 q 272 -233 347 -253 q 133 -165 176 -210 q 90 -86 90 -121 q 175 -36 90 -36 q 305 -75 265 -36 q 419 -114 344 -114 q 492 -104 454 -114 q 529 -94 531 -94 q 547 -122 539 -94 q 583 -149 556 -149 q 626 -133 600 -149 q 732 157 732 -72 l 732 518 q 729 541 732 521 q 726 572 726 561 q 702 624 725 596 q 653 656 679 653 q 594 658 633 656 q 575 671 582 663 q 688 719 581 719 q 772 640 772 719 z "},"h":{"ha":875,"x_min":89,"x_max":799,"o":"m 794 81 q 763 8 799 25 q 686 0 744 0 q 610 11 632 0 q 578 78 574 28 l 590 242 l 590 374 q 600 400 590 381 q 608 396 604 400 q 618 349 618 374 l 618 201 q 633 124 618 160 q 686 78 653 78 q 739 118 719 78 q 756 188 756 150 l 756 404 q 664 644 756 576 q 561 678 619 678 q 501 665 529 678 q 465 624 465 651 q 472 603 465 622 q 479 582 479 585 q 469 568 479 574 q 356 538 367 538 q 340 551 340 538 q 350 590 340 542 q 368 657 351 615 q 546 731 426 731 q 708 686 644 731 q 788 517 788 629 l 786 204 l 794 81 m 306 76 q 267 8 306 25 q 197 0 246 0 q 125 10 144 0 q 89 78 89 25 l 99 176 l 99 814 l 89 911 q 122 979 89 964 q 196 989 142 989 q 269 979 249 989 q 306 913 306 963 q 302 882 306 911 q 297 839 299 853 q 293 803 294 821 q 281 772 289 779 q 274 781 275 778 q 257 851 265 817 q 197 911 238 911 q 149 876 168 911 q 132 824 132 847 l 132 168 q 149 114 132 143 q 197 78 168 78 q 249 121 229 78 q 263 179 263 151 l 263 283 q 274 367 263 322 q 281 379 274 372 q 288 374 285 379 q 296 289 296 340 l 296 163 l 306 76 z "},"i":{"ha":411,"x_min":93,"x_max":324,"o":"m 324 908 q 285 835 324 853 q 210 824 261 824 q 135 835 158 824 q 97 908 97 853 q 133 979 97 961 q 210 992 157 992 q 324 908 324 992 m 318 79 q 282 8 318 25 q 210 0 264 0 q 100 76 93 0 l 111 211 l 111 508 l 100 638 q 138 707 96 690 q 210 714 157 714 q 288 703 267 714 q 318 633 318 686 l 308 526 l 308 190 l 318 79 m 278 206 l 278 508 q 268 576 278 543 q 210 636 251 636 q 157 594 176 636 q 142 524 142 561 l 142 190 q 157 119 142 153 q 210 78 176 78 q 267 136 250 78 q 278 206 278 171 z "},"j":{"ha":411,"x_min":-28,"x_max":321,"o":"m 321 911 q 285 839 321 856 q 210 828 264 828 q 135 839 158 828 q 97 911 97 858 q 133 982 97 964 q 210 994 157 994 q 288 982 264 994 q 321 911 321 964 m 318 639 l 308 549 l 311 -25 q 281 -164 311 -117 q 132 -235 239 -226 q 56 -242 39 -242 q -28 -157 -28 -242 q 46 -67 -28 -67 q 71 -85 74 -67 q 68 -121 68 -104 q 125 -182 68 -182 q 178 -169 146 -182 q 254 -85 226 -150 q 276 24 276 -32 l 276 546 q 260 601 276 571 q 208 639 239 639 q 157 596 176 639 q 142 522 142 561 l 142 118 q 125 60 142 85 q 111 99 115 65 l 108 560 l 100 642 q 138 708 100 693 q 208 717 158 717 q 285 707 264 717 q 318 639 318 690 z "},"k":{"ha":824,"x_min":86,"x_max":793,"o":"m 736 675 q 663 579 736 644 q 576 517 594 517 q 564 531 564 517 q 571 558 564 533 q 578 586 578 583 q 556 611 578 611 q 491 582 533 611 q 446 553 449 553 l 436 553 q 431 561 431 556 q 483 642 431 575 q 538 694 514 679 q 593 713 561 710 q 600 714 596 713 q 646 715 614 715 q 736 675 736 715 m 793 43 q 719 -3 793 -3 q 601 4 689 -3 q 544 42 565 7 q 464 194 461 178 l 464 206 l 469 211 q 510 169 488 200 q 549 119 540 128 q 636 69 596 69 q 679 118 679 69 q 672 158 679 140 q 621 242 664 175 q 567 335 579 304 l 569 350 l 578 350 q 633 278 603 324 q 682 204 675 214 q 761 107 721 156 q 793 43 793 68 m 308 911 l 296 775 l 296 668 q 283 631 288 635 q 265 694 265 643 l 265 799 q 250 868 265 835 q 199 910 231 910 q 129 779 129 910 l 129 206 q 139 135 129 168 q 197 76 157 76 q 244 106 224 76 q 281 157 263 131 q 306 76 306 144 q 269 8 306 24 q 197 0 251 0 q 124 10 144 0 q 86 76 86 25 l 96 158 l 96 829 l 86 910 q 125 979 86 963 q 199 988 146 988 q 271 979 249 988 q 308 911 308 963 z "},"l":{"ha":411,"x_min":99,"x_max":315,"o":"m 315 75 q 279 6 315 22 q 207 -3 260 -3 q 135 7 154 -3 q 99 75 99 22 l 108 185 l 108 797 l 99 907 q 132 976 99 961 q 207 986 151 986 q 282 976 263 986 q 315 907 315 961 l 306 801 l 306 182 l 315 75 m 275 182 l 275 800 q 260 868 275 836 q 208 908 240 908 q 154 867 174 908 q 139 794 139 835 l 139 192 q 154 118 139 151 q 207 75 172 75 q 261 118 242 75 q 275 182 275 150 z "},"m":{"ha":1286,"x_min":81,"x_max":1208,"o":"m 1208 75 q 1168 7 1208 24 q 1099 -1 1147 -1 q 1029 7 1050 -1 q 989 76 989 24 l 999 163 l 1000 363 q 1011 401 1003 378 q 1021 392 1018 401 q 1029 356 1029 354 l 1029 231 q 1100 76 1029 76 q 1151 119 1132 76 q 1165 176 1165 151 l 1165 400 q 1163 417 1165 403 q 1161 440 1161 432 q 1111 606 1157 542 q 972 675 1060 675 q 878 617 878 675 q 882 592 878 606 q 881 572 886 579 q 840 551 875 565 q 775 529 819 543 q 765 542 771 532 q 746 618 746 628 q 785 665 746 631 q 958 729 856 729 q 1199 497 1201 729 l 1196 196 l 1208 75 m 671 656 q 653 646 661 646 q 601 660 651 646 q 532 675 551 675 q 476 661 506 675 q 439 615 439 644 q 444 593 439 606 q 444 576 447 586 q 433 564 440 568 q 342 536 357 536 q 328 543 338 536 l 328 624 q 354 661 328 638 q 521 729 432 729 q 607 714 567 729 q 671 656 661 694 m 754 76 q 717 7 754 24 q 644 -1 696 -1 q 571 8 592 -1 q 535 76 535 24 l 544 169 l 544 339 q 557 406 544 381 q 564 401 561 404 q 578 321 578 346 l 578 179 q 593 118 578 149 q 646 76 613 76 q 696 117 676 76 q 711 169 711 147 l 711 308 q 719 379 711 332 q 728 399 719 385 q 736 393 733 399 q 744 314 744 360 l 744 169 l 754 76 m 300 76 q 264 7 300 24 q 190 -1 244 -1 q 114 10 136 -1 q 81 76 81 26 l 90 182 l 90 532 l 81 633 q 171 713 81 713 q 258 698 235 713 q 281 668 281 683 q 243 647 281 651 q 197 646 221 647 q 121 490 121 632 l 121 226 q 190 76 121 76 q 239 111 219 76 q 257 172 257 142 l 260 314 q 275 390 261 340 q 282 386 278 390 q 290 300 290 349 l 290 167 l 300 76 z "},"n":{"ha":875,"x_min":79,"x_max":799,"o":"m 794 76 q 760 6 799 22 q 686 -3 739 -3 q 611 6 631 -3 q 578 76 578 22 q 583 126 578 79 q 588 175 588 172 l 588 332 q 597 394 588 381 q 606 392 604 394 q 613 363 608 389 q 618 326 618 336 l 618 176 q 632 118 618 150 q 686 75 651 75 q 738 115 718 75 q 753 171 753 146 l 753 419 q 750 442 753 422 q 746 471 747 463 q 687 619 739 563 q 560 675 635 675 q 499 663 528 675 q 463 621 463 647 q 468 601 463 618 q 475 572 474 581 q 413 545 464 561 q 347 529 361 529 q 333 535 339 529 q 336 622 333 543 q 379 672 336 638 q 501 724 431 714 q 547 724 501 724 q 788 500 789 724 l 786 182 l 794 76 m 303 75 q 265 6 303 21 q 194 -3 246 -3 q 119 6 140 -3 q 85 76 81 22 l 93 182 l 93 528 l 85 632 q 174 710 79 710 q 285 665 285 710 q 250 644 285 644 q 240 646 247 644 q 229 647 232 647 q 156 613 185 647 q 126 538 126 579 l 126 169 q 143 113 126 143 q 194 75 164 75 q 246 113 225 75 q 261 168 261 142 l 261 271 q 267 342 261 306 q 278 376 267 357 q 286 371 281 376 q 293 294 293 332 l 293 168 l 303 75 z "},"o":{"ha":849,"x_min":56,"x_max":794,"o":"m 794 354 q 688 90 794 194 q 425 -15 582 -15 q 160 90 264 -15 q 56 356 56 196 q 158 622 56 514 q 422 731 261 731 q 690 622 585 731 q 794 354 794 514 m 750 357 q 706 521 750 442 q 563 647 653 617 q 425 667 504 667 q 292 649 342 667 q 142 521 193 614 q 100 356 100 446 q 146 186 100 267 q 306 60 201 86 q 424 47 353 47 q 535 58 490 47 q 701 182 643 86 q 750 357 750 261 z "},"p":{"ha":875,"x_min":85,"x_max":819,"o":"m 819 343 q 742 92 819 190 q 521 -12 658 -12 q 436 3 479 -12 q 358 58 376 22 q 344 119 353 71 q 339 153 339 154 q 351 168 339 168 q 401 154 351 168 q 494 131 435 151 q 490 108 494 125 q 485 89 485 92 q 553 49 485 49 q 722 151 660 49 q 776 354 776 239 q 718 568 776 476 q 543 674 651 674 q 478 636 478 674 q 483 619 478 635 q 489 594 488 603 q 422 572 479 588 q 383 559 410 569 q 340 544 356 549 q 336 579 332 551 q 334 617 336 592 q 332 643 332 642 q 383 701 332 671 q 443 728 422 724 q 507 735 478 735 q 756 600 672 735 q 819 343 819 496 m 303 -161 q 268 -233 303 -217 q 194 -242 249 -242 q 122 -232 144 -242 q 85 -165 85 -215 q 90 -122 85 -172 q 96 -19 96 -71 l 94 560 l 85 643 q 167 719 85 719 q 235 714 196 719 q 256 706 242 711 q 282 675 282 688 q 271 660 282 661 q 238 658 260 660 q 204 654 215 657 q 192 650 201 654 q 181 646 183 646 q 126 511 126 625 l 126 -33 q 138 -107 126 -72 q 196 -164 156 -164 q 247 -124 226 -164 q 276 -62 263 -93 l 283 -62 q 303 -161 303 -79 z "},"q":{"ha":875,"x_min":60,"x_max":797,"o":"m 792 -161 q 756 -231 792 -214 q 682 -240 735 -240 q 610 -231 631 -240 q 572 -162 572 -214 q 585 -76 572 -136 q 597 -60 588 -67 q 612 -80 608 -68 q 619 -102 615 -92 q 633 -131 624 -112 q 683 -162 656 -162 q 738 -118 718 -162 q 751 -57 751 -86 l 751 539 q 733 608 751 575 q 675 656 713 649 q 620 661 647 658 q 593 678 593 664 q 631 711 593 699 q 672 719 651 715 l 704 719 q 792 642 797 719 l 779 469 l 782 -62 q 787 -121 782 -81 q 792 -161 792 -161 m 551 646 q 547 627 551 651 q 546 564 543 603 q 539 550 549 560 q 399 589 514 558 l 389 599 q 400 638 400 621 q 375 668 400 657 q 333 678 356 678 q 226 640 282 678 q 143 542 167 600 q 129 508 139 531 q 114 464 119 486 q 101 356 101 413 q 110 267 101 314 q 185 115 125 178 q 324 49 246 49 q 393 89 393 49 q 390 108 393 92 q 385 131 386 124 q 394 140 388 138 q 525 174 533 174 q 538 161 538 174 q 532 140 538 160 q 526 110 526 119 q 463 14 528 46 q 356 -10 415 -10 q 122 114 201 -10 q 60 350 60 211 q 126 606 60 501 q 369 736 208 736 q 421 733 407 736 q 496 701 450 728 q 551 646 551 671 z "},"r":{"ha":592,"x_min":90,"x_max":592,"o":"m 592 626 q 586 578 592 611 q 566 550 583 565 q 536 535 549 535 l 454 535 q 375 511 465 535 q 369 521 369 522 q 407 571 369 542 q 454 607 431 589 q 451 614 454 611 q 417 617 435 615 q 386 642 386 622 q 433 696 386 668 q 486 719 472 719 q 502 722 490 719 q 517 724 514 724 q 592 626 592 724 m 314 74 q 276 7 314 22 q 204 -1 257 -1 q 131 7 150 -1 q 94 75 90 22 l 107 233 l 104 543 l 94 636 q 125 701 94 685 q 193 711 146 711 q 292 668 292 711 q 269 643 292 643 l 210 643 q 176 626 200 643 q 138 497 138 599 l 138 214 q 206 76 138 76 q 256 117 238 76 q 271 186 271 149 l 271 256 q 286 335 271 304 q 301 292 296 332 l 304 157 l 314 74 z "},"s":{"ha":772,"x_min":54,"x_max":728,"o":"m 728 224 q 718 168 728 207 q 572 15 693 65 q 389 -21 486 -21 q 196 14 299 -21 q 104 76 150 29 q 54 168 54 126 q 143 224 54 224 q 247 196 217 224 q 286 146 267 171 q 390 118 317 118 q 427 122 392 118 q 465 125 463 125 q 499 99 489 125 q 542 72 508 72 q 633 124 594 72 q 668 218 668 169 q 606 335 668 290 q 486 374 551 374 q 431 357 431 374 q 443 330 431 354 q 454 297 456 306 q 429 289 444 289 q 310 313 419 289 q 138 372 192 338 q 60 517 60 424 q 185 694 60 635 q 383 736 274 736 q 560 704 469 736 q 646 651 607 688 q 690 571 690 611 q 610 515 690 515 q 585 518 608 515 q 553 521 563 521 q 507 544 535 521 q 463 581 485 563 q 422 593 454 586 q 401 597 403 597 l 326 597 q 290 622 314 597 q 238 647 265 647 q 155 605 189 647 q 121 518 121 563 q 183 407 121 450 q 299 369 238 369 q 356 386 356 369 q 342 413 356 393 q 335 439 338 421 q 356 449 343 449 q 547 413 361 449 q 680 344 632 396 q 728 224 728 292 m 250 100 q 210 129 250 129 q 189 114 189 129 q 203 92 189 103 q 229 82 217 82 q 250 100 250 82 z "},"t":{"ha":540,"x_min":19,"x_max":511,"o":"m 361 861 q 356 828 361 849 q 335 799 347 799 q 302 828 329 799 q 251 857 275 857 q 201 828 225 857 q 168 799 176 799 q 142 860 142 799 q 181 926 142 911 q 253 935 200 935 q 361 861 361 935 m 510 644 q 436 578 510 578 q 392 596 399 578 q 388 643 388 604 q 392 692 388 682 q 438 711 400 711 q 510 644 510 711 m 126 621 q 89 578 126 578 q 40 597 61 578 q 19 643 19 617 q 40 692 19 672 q 89 711 61 711 q 124 686 124 711 q 125 637 124 657 q 126 621 126 617 m 349 375 q 339 283 349 304 q 329 290 333 286 q 321 376 321 315 q 336 464 321 446 q 349 375 349 451 m 511 74 q 415 -7 511 -7 q 389 -5 414 -7 q 353 -3 364 -3 q 178 69 222 -1 q 149 229 147 118 l 151 421 q 164 461 153 436 q 174 454 171 461 q 185 390 185 415 l 185 269 q 194 186 185 246 q 249 87 204 126 q 340 47 293 47 q 397 86 393 47 q 401 143 396 108 q 433 154 408 154 q 511 74 511 154 z "},"u":{"ha":875,"x_min":86,"x_max":797,"o":"m 797 74 q 708 -3 797 -3 q 597 40 597 -3 q 674 61 597 61 q 736 110 714 65 q 754 185 754 144 l 754 524 q 739 593 754 561 q 688 633 719 633 q 629 581 647 633 q 618 510 618 549 l 618 389 q 603 332 618 363 q 590 361 590 339 l 588 531 l 578 633 q 622 706 578 690 q 707 713 640 713 q 797 633 797 713 q 791 587 797 643 q 785 474 785 531 l 788 165 l 797 74 m 547 165 q 539 76 547 142 q 493 28 536 58 q 379 -17 439 -10 l 342 -17 q 108 138 149 -17 q 96 211 96 185 l 96 551 l 86 635 q 122 701 86 685 q 196 713 144 713 q 269 701 247 713 q 306 635 306 685 l 296 547 l 293 344 q 283 304 290 324 q 272 314 276 300 q 263 371 263 344 l 263 488 q 196 633 263 633 q 139 582 156 633 q 128 513 128 550 l 128 335 q 157 150 128 208 q 325 35 215 35 q 421 88 421 35 q 413 108 421 90 q 406 129 406 126 q 417 142 406 139 q 535 181 508 181 q 547 165 547 181 z "},"v":{"ha":746,"x_min":24,"x_max":722,"o":"m 722 658 q 703 599 722 642 q 676 540 678 543 l 601 318 q 526 72 572 236 q 510 35 521 58 q 436 1 494 -3 l 371 6 q 340 3 368 6 q 310 1 313 1 q 233 38 246 1 q 121 393 197 156 q 75 529 106 439 q 44 594 74 532 q 24 658 24 638 q 110 714 24 714 q 215 697 193 714 q 247 647 238 679 q 257 596 251 621 q 283 486 264 564 q 301 417 301 419 l 301 394 l 296 389 q 260 454 283 396 q 149 635 218 635 q 113 611 125 635 q 103 572 103 593 q 158 382 103 549 q 218 206 181 318 q 243 143 231 165 q 293 81 263 103 q 372 49 336 49 q 451 78 410 49 q 510 156 492 108 q 579 365 532 225 q 642 571 642 550 q 599 629 642 629 q 513 519 543 629 q 494 454 503 486 q 461 385 481 413 l 453 385 q 449 403 449 392 q 489 565 449 428 q 503 640 496 603 q 539 699 510 678 q 633 714 560 714 q 722 658 722 714 z "},"w":{"ha":1157,"x_min":25,"x_max":1136,"o":"m 1136 654 q 1107 561 1136 633 q 1076 485 1076 485 q 1050 400 1067 456 q 976 165 1026 325 q 949 51 967 124 q 894 1 938 11 q 821 -3 879 -3 q 744 0 768 -3 q 711 22 728 1 q 692 61 694 43 q 679 146 689 92 q 650 250 665 199 q 631 346 631 322 q 667 408 631 368 q 685 478 685 428 q 676 546 685 508 q 640 614 668 583 q 581 644 611 644 q 523 614 551 644 q 488 553 494 583 q 479 485 479 515 q 506 402 479 428 q 532 346 532 376 q 524 292 532 332 q 485 156 510 246 q 467 50 479 119 q 414 1 458 11 q 343 -3 396 -3 q 271 1 288 -3 q 214 53 224 13 q 185 169 204 93 q 149 278 171 207 q 131 342 143 300 q 112 401 124 363 q 74 522 100 440 q 44 589 74 524 q 25 654 25 635 q 117 710 25 710 q 229 674 206 710 q 247 620 240 656 q 258 551 253 585 q 285 443 285 433 l 285 417 l 278 411 q 257 440 267 418 q 222 547 240 494 q 147 625 192 625 q 103 564 103 625 q 135 440 103 533 q 158 365 150 396 q 179 300 167 342 q 203 219 186 272 q 220 168 211 194 q 250 110 229 142 q 291 72 263 92 q 339 51 319 51 q 396 76 363 51 q 456 229 456 121 q 431 311 456 283 q 407 369 407 339 q 422 457 407 396 q 450 563 447 550 q 461 643 453 592 q 507 700 472 688 q 579 707 526 707 q 669 692 651 707 q 704 624 697 668 q 713 556 708 589 q 756 374 756 418 q 729 317 756 343 q 703 239 703 292 q 717 154 703 197 q 760 83 733 104 q 790 60 775 72 q 822 53 803 53 q 906 103 868 53 q 955 203 938 146 q 1010 386 972 261 q 1039 472 1024 429 q 1058 564 1058 533 q 1015 625 1058 625 q 943 560 967 625 q 917 471 938 544 q 888 411 907 438 q 879 431 879 414 q 918 639 879 433 q 953 694 925 675 q 1047 710 974 710 q 1136 654 1136 710 z "},"x":{"ha":746,"x_min":43,"x_max":707,"o":"m 676 674 q 649 611 676 651 q 593 546 629 589 q 524 465 571 513 q 515 478 515 472 q 537 530 515 489 q 558 589 558 571 q 524 625 558 625 q 493 616 521 625 q 461 607 465 607 q 446 625 446 607 q 474 683 446 654 q 529 714 503 711 q 599 719 592 719 q 676 674 676 719 m 304 626 q 289 608 304 608 q 253 620 286 608 q 215 632 219 632 q 179 592 179 632 q 204 524 179 567 q 229 471 229 481 q 222 461 229 461 q 182 499 213 461 q 153 539 157 531 q 96 607 125 572 q 64 672 64 649 q 100 714 64 706 q 151 717 113 717 q 231 711 172 717 q 280 680 256 708 q 304 626 304 651 m 707 43 q 622 0 707 0 q 543 4 601 0 q 483 42 508 7 q 450 119 450 88 q 461 133 450 133 q 501 109 463 133 q 556 85 539 85 q 592 124 592 85 q 560 203 592 153 q 518 276 524 258 l 521 293 l 529 293 q 553 269 538 285 q 633 158 578 232 q 682 100 657 129 q 707 43 707 65 m 294 118 q 272 53 294 90 q 224 10 249 17 q 124 0 189 0 q 43 44 43 0 q 58 89 43 67 q 126 175 82 118 q 218 293 151 215 l 225 293 q 229 282 229 292 q 194 211 229 267 q 158 126 158 156 q 192 86 158 86 q 244 108 214 86 q 283 131 275 131 q 294 118 294 131 z "},"y":{"ha":746,"x_min":22,"x_max":728,"o":"m 728 660 q 718 614 728 632 q 622 386 675 535 q 569 236 603 329 q 451 -92 526 117 q 353 -214 418 -182 q 226 -240 301 -239 q 180 -244 211 -240 q 147 -247 149 -247 q 64 -160 64 -247 q 142 -74 64 -74 q 185 -93 185 -74 q 178 -120 185 -97 q 171 -146 171 -143 q 233 -192 171 -192 q 374 -125 311 -192 q 450 3 424 -72 l 601 432 q 626 496 614 464 q 646 571 646 547 q 604 628 646 628 q 536 569 563 628 q 501 464 522 539 q 464 383 486 408 q 453 401 453 385 q 465 463 453 419 q 492 557 474 493 q 503 619 497 588 q 524 676 508 651 q 640 713 546 713 q 728 660 728 713 m 304 390 l 299 386 q 266 446 285 392 q 229 556 247 500 q 151 632 197 632 q 107 574 107 632 q 180 351 107 539 q 253 135 253 163 l 253 113 q 247 110 253 110 q 219 156 242 110 q 183 243 201 194 q 158 314 183 243 q 129 390 149 338 q 85 511 115 429 q 44 596 76 532 q 22 660 22 640 q 103 713 22 713 q 190 707 171 713 q 251 642 236 694 q 268 554 260 597 q 304 418 304 443 l 304 390 z "},"z":{"ha":746,"x_min":39,"x_max":718,"o":"m 690 628 q 671 539 690 560 q 653 515 665 531 q 553 425 621 488 q 414 294 507 375 l 406 294 q 403 301 403 297 q 458 375 403 321 q 561 479 544 458 q 617 589 617 543 q 483 672 617 672 q 363 663 435 672 q 264 629 264 650 q 279 606 264 626 q 294 583 294 586 q 275 563 294 565 q 154 550 200 550 q 67 633 67 550 q 151 715 67 721 l 261 708 l 347 708 l 474 703 q 542 708 476 703 q 611 713 608 713 q 690 628 690 713 m 718 82 q 632 0 718 0 q 603 2 629 0 q 576 4 578 4 l 508 4 l 256 11 q 160 7 199 13 q 115 1 121 1 q 39 90 39 1 q 56 178 39 149 q 106 232 68 200 q 164 282 135 257 q 314 424 217 339 l 322 424 q 325 414 325 421 q 310 386 325 404 q 182 258 246 322 q 108 125 108 181 q 249 44 108 44 q 428 65 358 44 q 450 72 433 65 q 467 86 467 78 q 450 109 467 89 q 433 133 433 129 q 451 151 433 147 q 625 164 497 164 q 718 82 718 164 z "},"{":{"ha":514,"x_min":31,"x_max":494,"o":"m 494 942 q 414 863 494 863 q 390 869 393 863 q 382 908 386 876 q 365 943 379 932 q 331 954 350 954 q 279 936 314 954 q 200 756 200 894 l 200 665 q 194 631 200 653 q 182 604 188 608 q 171 628 174 610 q 167 657 169 642 l 165 808 q 175 908 165 861 q 217 971 182 942 q 286 1006 251 1000 q 407 1015 349 1015 q 494 942 494 1015 m 356 554 q 343 490 356 519 q 299 451 328 451 q 281 474 281 451 q 294 519 281 475 q 313 583 308 564 q 319 669 317 610 q 335 733 319 707 q 343 725 339 731 q 350 685 349 700 q 356 554 356 574 m 356 233 l 350 92 q 339 39 350 72 q 328 47 332 39 q 318 99 318 74 l 318 157 q 283 303 318 196 q 282 328 282 307 q 300 338 294 338 q 344 299 328 338 q 356 233 357 265 m 132 458 q 124 431 132 453 q 115 385 115 408 q 122 342 115 368 q 129 313 129 315 q 114 296 129 296 q 75 308 101 296 q 43 333 49 321 q 31 386 31 361 q 39 429 31 399 q 71 463 44 449 q 115 476 97 476 q 132 458 132 476 m 494 -167 q 406 -242 494 -242 q 226 -203 276 -242 q 165 -26 164 -156 l 167 108 q 179 164 168 128 q 190 156 182 164 q 200 99 200 119 l 200 25 q 208 -44 200 19 q 251 -137 215 -96 q 332 -178 288 -178 q 381 -132 374 -178 q 410 -86 389 -86 q 471 -108 447 -86 q 494 -167 494 -129 z "},"|":{"ha":308,"x_min":65,"x_max":256,"o":"m 249 57 q 157 -25 256 -25 q 65 57 65 -25 l 75 156 l 75 831 l 65 928 q 157 1011 65 1011 q 249 928 256 1011 l 240 828 l 240 157 l 249 57 m 201 169 l 201 817 q 192 865 201 840 q 158 896 179 896 q 122 867 136 896 q 113 824 113 844 l 113 160 q 124 115 113 138 q 157 88 138 88 q 192 119 179 88 q 201 169 201 144 z "},"}":{"ha":514,"x_min":18,"x_max":482,"o":"m 350 822 l 349 661 q 336 601 347 639 q 322 614 325 604 q 315 650 315 639 l 315 718 q 286 882 315 824 q 239 934 269 914 q 181 954 208 954 q 128 882 128 954 q 121 866 128 869 q 99 863 114 863 q 40 884 63 863 q 18 940 18 906 q 107 1015 18 1015 q 288 979 233 1015 q 350 822 351 936 m 482 386 q 460 325 482 350 q 400 296 436 296 q 386 313 386 296 q 393 349 386 317 q 400 385 400 382 q 393 420 400 388 q 383 467 386 453 q 403 474 386 474 q 461 446 440 474 q 482 386 482 418 m 233 475 q 215 451 233 451 q 179 474 196 451 q 160 515 163 496 q 158 532 160 519 q 157 547 157 544 q 159 569 157 550 q 161 597 161 589 q 167 688 164 642 q 178 738 169 733 q 194 692 192 725 q 199 617 196 664 q 207 563 199 608 q 221 522 208 553 q 233 475 233 490 m 233 314 q 220 269 233 313 q 203 206 207 226 q 197 108 200 186 q 178 36 194 57 q 167 81 168 46 q 163 132 164 107 l 160 231 q 168 297 158 274 q 215 338 185 338 q 233 314 233 338 m 350 -37 q 279 -208 351 -162 q 108 -242 228 -242 q 18 -165 18 -242 q 44 -107 18 -128 q 103 -86 69 -86 q 132 -132 125 -86 q 181 -178 139 -178 q 261 -138 225 -178 q 304 -48 297 -99 q 314 64 311 3 q 315 114 315 89 q 333 167 319 150 q 344 135 343 158 q 349 101 347 104 l 350 -37 z "},"~":{"ha":833,"x_min":111,"x_max":725,"o":"m 725 349 q 668 251 725 292 q 568 215 618 215 q 426 264 510 215 q 317 322 390 283 q 324 329 319 326 q 346 333 344 333 q 447 308 381 333 q 546 282 513 282 q 606 321 606 282 q 588 353 606 336 q 569 375 569 369 q 601 401 569 379 q 645 428 632 422 q 669 435 658 435 q 711 403 694 435 q 725 349 725 376 m 515 383 q 485 374 513 374 q 390 397 451 374 q 294 421 329 421 q 231 382 231 421 q 274 333 231 367 l 274 324 q 225 296 250 310 q 169 272 185 272 q 125 301 142 272 q 111 357 111 326 q 168 453 111 414 q 265 486 217 486 q 393 451 311 486 q 515 383 475 417 z "},"":{"ha":978,"x_min":21,"x_max":967,"o":"m 740 1172 q 643 1090 740 1090 q 546 1174 546 1090 q 642 1256 546 1256 q 740 1172 740 1256 m 439 1172 q 342 1090 439 1090 q 244 1174 244 1090 q 340 1256 244 1256 q 439 1172 439 1256 m 608 492 q 603 489 608 489 q 581 522 592 489 q 569 563 571 547 l 572 582 l 581 582 q 596 553 583 579 q 608 518 608 528 l 608 492 m 967 54 q 893 1 967 1 q 884 3 894 1 q 858 4 874 4 q 803 4 836 6 q 735 38 761 3 q 713 114 710 74 q 717 119 713 114 q 725 124 722 124 q 768 97 732 124 q 826 69 804 69 q 882 139 882 69 q 867 207 882 164 q 757 506 824 328 q 626 844 713 618 q 569 913 613 883 q 493 943 526 943 q 412 909 456 943 q 328 769 368 875 q 249 556 297 690 q 171 350 225 493 q 132 251 151 301 q 100 140 100 164 q 154 72 100 72 q 213 98 181 72 q 254 124 246 124 q 269 103 269 124 q 247 38 269 65 q 175 4 221 6 l 92 1 q 21 56 21 -1 q 54 156 21 85 q 92 233 74 194 q 172 446 93 236 q 290 761 235 608 q 356 951 313 828 q 378 974 360 961 q 406 986 396 986 q 515 985 443 985 q 537 987 521 985 q 554 989 553 989 q 629 944 604 989 q 661 853 633 936 q 889 236 675 810 q 918 169 899 214 q 946 114 932 142 q 967 54 967 72 m 414 572 q 382 486 414 529 q 371 503 372 492 q 382 549 371 522 q 407 585 393 575 q 414 572 414 583 m 588 210 q 492 192 585 192 q 394 207 413 192 q 490 235 410 235 q 542 229 511 235 q 588 210 581 221 z "},"":{"ha":978,"x_min":21,"x_max":967,"o":"m 625 1183 q 581 1085 625 1128 q 493 1043 538 1043 q 399 1089 439 1043 q 360 1182 360 1135 q 400 1276 360 1235 q 493 1317 440 1317 q 586 1276 547 1317 q 625 1183 625 1236 m 967 51 q 894 -1 967 -1 q 875 1 904 -1 q 806 1 850 3 q 735 33 761 0 q 714 94 714 61 q 726 121 714 121 q 769 94 732 121 q 829 67 806 67 q 883 136 883 67 q 867 211 883 165 q 756 507 829 310 q 725 588 744 533 q 697 661 714 614 q 669 738 688 688 q 646 799 661 757 q 631 835 642 811 q 594 893 619 860 q 536 963 536 951 q 571 982 536 982 q 642 921 617 982 q 665 840 654 881 q 785 522 708 725 q 818 426 796 488 q 849 343 828 400 q 878 271 858 319 q 908 190 888 244 q 942 124 925 157 q 967 51 967 75 m 611 490 l 606 486 q 582 519 593 490 q 571 564 571 549 q 576 582 571 576 q 611 511 593 574 l 611 490 m 415 571 q 402 519 415 551 q 382 483 389 488 q 371 499 371 486 q 385 549 371 515 q 407 585 400 582 q 415 571 415 579 m 451 963 q 421 922 451 956 q 383 882 383 882 q 349 818 361 853 l 246 543 q 175 354 222 481 q 139 260 167 331 q 103 138 103 168 q 157 69 103 69 q 216 95 183 69 q 257 121 249 121 q 269 99 269 121 q 247 32 269 58 q 176 1 222 1 q 116 0 142 1 q 92 -1 90 -1 q 21 51 21 -1 q 28 88 21 71 q 99 244 54 142 q 326 861 203 524 q 351 935 339 897 q 415 982 374 982 q 451 963 451 982 m 590 207 q 582 197 590 201 q 492 189 560 189 q 394 204 407 189 q 404 217 399 213 q 492 232 439 232 q 544 226 514 232 q 590 207 583 218 m 568 1183 q 547 1235 568 1214 q 492 1257 525 1257 q 439 1238 460 1257 q 418 1185 418 1218 q 492 1110 418 1110 q 545 1130 522 1110 q 568 1183 568 1150 z "},"":{"ha":1054,"x_min":72,"x_max":997,"o":"m 994 703 q 921 643 994 643 q 884 647 926 643 q 813 649 842 650 q 763 679 789 647 q 736 735 736 711 q 746 747 736 747 q 790 728 749 747 q 853 710 832 710 q 903 760 903 710 q 849 849 903 803 q 553 954 724 954 q 229 817 353 954 q 113 490 113 685 q 172 250 113 360 q 378 57 243 121 q 425 21 411 42 q 404 11 422 11 q 316 41 372 11 q 232 99 260 71 q 118 261 157 171 q 110 282 117 268 q 93 329 99 304 q 72 490 72 413 q 200 847 72 704 q 554 999 335 999 q 763 954 660 999 q 953 800 886 900 q 994 703 994 738 m 997 308 q 963 211 997 290 q 835 63 926 128 q 672 -1 743 -1 q 647 4 654 -1 l 647 13 q 671 31 657 25 q 810 99 714 47 q 881 168 850 126 q 913 242 913 210 q 898 284 913 265 q 861 303 883 303 q 801 279 842 303 q 754 256 760 256 q 743 267 743 256 q 763 326 743 293 q 813 363 782 358 q 838 365 821 365 l 922 368 q 997 308 997 368 m 699 -212 q 646 -307 699 -274 q 547 -333 603 -333 q 481 -325 515 -333 q 435 -293 435 -314 q 463 -276 435 -281 q 494 -273 478 -275 q 535 -264 510 -271 q 569 -212 569 -254 q 521 -158 569 -175 q 472 -106 472 -140 q 481 -17 472 -71 q 513 -6 482 -6 q 531 -7 524 -6 q 561 -21 543 -10 q 565 -72 561 -39 q 590 -101 569 -92 q 626 -112 592 -101 q 665 -137 644 -118 q 690 -172 685 -156 q 699 -212 699 -201 z "},"":{"ha":951,"x_min":97,"x_max":894,"o":"m 643 1225 q 589 1149 643 1200 q 518 1088 554 1118 q 451 1068 492 1068 q 390 1113 390 1068 q 425 1188 390 1132 q 490 1253 457 1238 q 561 1264 514 1264 q 643 1225 643 1264 m 883 892 q 801 797 883 797 l 700 807 l 482 807 q 443 819 463 807 q 450 832 440 825 q 496 842 475 842 l 676 842 q 776 893 776 842 q 672 942 776 942 l 611 942 q 485 958 546 942 q 539 972 490 965 q 600 976 578 976 l 689 976 l 801 986 q 883 892 883 993 m 833 508 q 753 417 833 413 l 590 425 l 475 425 q 438 440 453 425 q 489 464 449 460 l 646 465 q 688 475 667 469 q 721 508 721 485 q 694 540 721 528 q 660 550 675 550 l 540 550 q 476 556 517 550 q 440 569 461 557 l 440 578 q 462 587 447 585 q 489 590 476 589 l 683 593 q 725 597 697 593 q 754 600 753 600 q 833 508 833 600 m 894 101 q 818 -3 894 -10 l 668 10 l 258 7 l 171 -3 q 97 74 97 -3 l 106 168 l 106 822 q 101 865 106 825 q 97 908 97 904 q 172 986 97 986 l 353 967 l 358 961 q 333 951 347 953 q 278 946 296 949 q 217 931 244 942 q 157 875 181 917 q 139 813 139 842 l 139 172 q 183 75 139 113 q 279 40 224 40 l 707 40 q 769 54 740 40 q 807 100 807 71 q 777 143 807 126 q 719 160 747 160 l 517 160 q 450 176 464 160 q 456 185 450 182 q 489 193 481 193 l 703 193 l 814 203 q 883 171 865 203 q 894 101 894 150 z "},"":{"ha":1029,"x_min":89,"x_max":949,"o":"m 757 1194 q 738 1147 757 1175 q 690 1103 718 1119 q 613 1088 661 1088 q 516 1106 578 1088 q 433 1125 454 1125 q 372 1106 404 1125 q 324 1088 339 1088 q 286 1126 286 1088 q 300 1171 286 1149 q 431 1244 347 1244 q 529 1224 469 1244 q 614 1203 589 1203 q 671 1218 636 1203 q 718 1233 706 1233 q 757 1194 757 1233 m 942 76 q 868 -3 949 -3 q 849 -1 865 -3 q 831 1 833 1 l 725 1 q 679 33 706 1 q 649 81 657 60 q 529 304 628 132 q 439 474 439 463 l 439 490 q 446 494 443 494 q 479 463 464 494 q 549 343 507 421 q 616 215 599 246 q 672 124 633 185 q 731 73 694 94 q 796 51 767 51 q 903 215 903 51 l 903 769 q 892 850 903 813 q 831 913 874 913 q 771 861 790 913 q 758 792 758 828 l 758 632 q 744 557 758 575 q 733 568 738 557 q 726 643 726 628 l 726 826 l 717 910 q 754 978 717 961 q 829 986 775 986 q 907 978 886 986 q 942 907 942 961 q 938 863 942 904 q 933 818 933 821 l 933 172 l 942 76 m 596 501 q 589 499 594 499 q 539 556 571 499 q 444 728 478 663 q 410 794 426 761 q 365 861 389 833 q 304 913 342 889 q 240 936 267 936 q 160 883 190 936 q 135 801 135 842 l 135 186 q 151 114 135 147 q 207 72 172 72 q 261 115 240 72 q 276 174 276 147 l 276 349 q 294 440 276 424 q 307 404 299 428 l 310 165 l 318 74 q 276 4 318 19 q 206 -3 258 -3 q 126 7 146 -3 q 96 78 92 22 l 104 188 l 104 801 l 96 907 q 168 986 89 986 l 242 979 q 261 981 243 979 q 282 981 279 981 q 382 919 354 981 q 442 797 419 836 q 596 517 596 528 l 596 501 z "},"":{"ha":1081,"x_min":64,"x_max":1022,"o":"m 792 1164 q 694 1085 792 1085 q 599 1164 599 1085 q 696 1246 599 1246 q 792 1164 792 1246 m 490 1165 q 393 1085 490 1085 q 294 1165 294 1085 q 393 1246 294 1246 q 490 1165 490 1246 m 1022 489 q 900 129 1022 269 q 543 -19 768 -19 q 183 135 314 -19 q 64 492 64 275 q 185 849 64 713 q 543 992 314 992 q 753 956 658 992 q 838 906 790 942 q 913 835 886 869 q 1022 489 1022 690 m 982 489 q 922 740 982 631 q 736 917 858 858 q 542 961 644 961 q 338 911 432 961 q 153 717 213 846 q 104 489 104 613 q 218 163 104 293 q 543 22 340 22 q 867 160 744 22 q 982 489 982 290 z "},"":{"ha":1029,"x_min":85,"x_max":949,"o":"m 765 1165 q 665 1085 765 1085 q 569 1164 569 1085 q 667 1246 569 1246 q 765 1165 765 1246 m 464 1165 q 365 1085 464 1085 q 268 1165 268 1085 q 365 1246 268 1246 q 464 1165 464 1246 m 942 906 l 932 789 l 932 328 q 904 197 932 279 q 513 -17 832 -17 q 279 24 367 -17 q 113 233 153 83 q 94 338 94 301 l 94 819 q 90 863 94 822 q 85 906 85 903 q 167 982 85 982 q 192 981 178 982 q 218 981 200 979 q 240 983 240 983 q 325 906 325 983 l 315 815 l 313 410 q 306 367 311 394 q 297 369 303 367 q 285 450 290 394 l 282 810 q 263 875 282 840 q 204 917 239 917 q 146 875 169 917 q 126 813 126 842 l 126 421 q 136 335 126 417 q 517 21 174 21 q 758 86 664 21 q 892 338 875 167 q 901 432 901 439 l 901 813 q 881 879 901 846 q 821 917 856 917 q 758 869 782 917 q 742 806 742 835 l 742 471 q 726 374 742 404 q 718 376 719 374 q 711 429 711 418 l 711 807 q 706 856 711 811 q 701 903 701 900 q 779 982 701 982 q 804 981 790 982 q 836 981 813 979 q 860 983 860 983 q 942 906 949 983 z "},"":{"ha":824,"x_min":53,"x_max":751,"o":"m 578 971 q 525 893 578 944 q 453 833 488 857 q 386 814 425 814 q 326 857 326 814 q 360 932 326 883 q 418 993 393 981 q 494 1010 450 1010 q 578 971 578 1010 m 751 64 q 676 1 751 1 q 576 14 607 1 q 519 35 538 35 q 433 8 503 35 q 307 -19 364 -19 q 133 28 201 -19 q 53 193 53 83 q 89 314 53 269 q 214 393 131 365 q 347 422 238 400 q 492 444 456 444 q 521 400 521 444 q 512 350 521 368 q 460 321 503 332 q 382 303 433 315 q 324 285 365 299 q 285 272 288 272 q 256 297 272 272 q 213 322 239 322 q 149 292 178 322 q 110 217 121 261 q 110 193 110 217 q 140 101 110 142 q 226 54 174 54 q 279 87 267 54 q 318 119 292 119 q 345 117 319 119 q 374 115 371 115 q 510 164 435 115 q 528 167 518 169 q 536 151 536 158 q 615 65 547 65 q 688 110 664 65 q 707 197 707 146 l 704 417 q 700 460 703 431 q 660 590 697 533 q 561 654 618 654 q 514 624 525 654 q 481 594 503 594 q 448 597 478 594 q 415 600 418 600 q 303 554 343 600 q 178 508 263 508 q 90 563 90 508 q 118 624 90 586 q 174 676 146 661 q 418 736 275 736 q 738 538 717 736 l 735 168 q 751 64 751 63 z "},"":{"ha":824,"x_min":53,"x_max":754,"o":"m 494 857 q 433 814 494 814 q 367 833 400 814 q 299 890 344 846 q 240 971 240 946 q 325 1010 240 1010 q 390 999 354 1010 q 460 932 422 989 q 494 857 494 881 m 754 63 q 676 1 754 1 q 590 10 619 1 q 558 25 586 11 q 519 35 538 35 q 435 8 504 35 q 308 -19 367 -19 q 133 28 201 -19 q 53 194 53 85 q 99 324 53 275 q 317 417 165 393 l 494 444 q 524 401 524 444 q 515 351 524 365 q 469 322 504 332 q 421 311 446 317 q 343 290 386 304 q 283 271 283 271 q 256 297 271 271 q 215 322 242 322 q 138 274 169 322 q 110 192 110 231 q 144 99 110 143 q 229 54 178 54 q 275 76 264 54 q 288 108 282 93 q 318 119 294 119 q 346 117 321 119 q 374 115 371 115 q 517 165 432 115 q 528 167 519 167 q 536 154 536 158 q 615 65 549 65 q 683 100 656 65 q 707 164 707 131 l 707 403 q 697 500 707 436 q 649 610 688 564 q 557 656 610 656 q 515 625 522 656 q 482 594 507 594 q 451 597 481 594 q 419 600 422 600 q 304 554 347 600 q 179 508 261 508 q 93 563 93 508 q 182 676 93 621 q 303 725 258 725 q 317 728 307 725 q 332 731 328 731 q 414 736 378 736 q 621 699 536 736 q 740 521 743 643 l 735 264 q 736 182 733 215 q 740 135 736 167 q 754 63 754 57 z "},"":{"ha":824,"x_min":54,"x_max":756,"o":"m 621 856 q 602 825 621 836 q 563 814 583 814 q 481 851 522 814 q 418 889 439 889 q 355 851 397 889 q 272 814 313 814 q 214 856 214 814 q 260 941 214 883 q 332 1000 307 999 q 342 1004 336 1001 q 418 1010 381 1010 q 501 999 474 1010 q 586 924 547 981 q 621 856 621 872 m 756 63 l 756 64 q 678 1 756 1 q 576 14 607 1 q 519 35 543 35 q 436 8 503 35 q 308 -19 369 -19 q 135 28 203 -19 q 54 194 54 83 q 115 340 54 292 q 224 394 156 372 q 293 413 260 407 q 489 442 449 442 q 519 428 513 442 q 522 397 522 421 q 514 349 522 360 q 432 314 501 331 q 344 289 407 308 q 286 272 289 272 q 256 297 272 272 q 215 322 239 322 q 136 274 168 322 q 110 192 110 232 q 144 99 110 143 q 231 54 179 54 l 246 54 q 278 82 264 56 q 297 117 294 114 q 318 119 300 119 q 347 117 321 119 q 375 115 372 115 q 457 133 419 115 q 526 167 519 164 q 535 154 535 163 q 562 85 544 104 q 617 65 579 65 q 682 99 656 65 q 708 165 708 132 l 708 403 q 697 501 708 428 q 649 610 688 564 q 558 656 610 656 q 515 625 525 656 q 482 594 504 594 q 451 597 481 594 q 418 600 421 600 q 304 554 344 600 q 181 508 264 508 q 94 563 94 508 q 113 614 94 589 q 218 700 154 671 q 332 731 257 717 q 417 736 363 736 q 625 697 542 736 q 740 521 742 642 l 736 194 q 742 138 738 174 q 756 63 756 57 z "},"":{"ha":824,"x_min":53,"x_max":751,"o":"m 664 914 q 567 835 664 835 q 468 914 468 835 q 567 997 468 997 q 664 914 664 997 m 363 914 q 265 835 363 835 q 168 914 168 835 q 265 997 168 997 q 363 914 363 997 m 751 65 q 674 4 751 4 q 590 11 614 4 q 551 28 576 15 q 517 36 535 36 q 434 9 500 36 q 307 -18 368 -18 q 131 31 197 -18 q 53 197 53 86 q 119 347 53 294 q 344 424 186 399 q 485 443 469 443 q 518 431 511 443 q 521 401 521 424 q 510 349 521 365 q 458 322 499 332 q 381 304 432 317 q 282 272 268 272 q 256 298 272 272 q 213 324 240 324 q 133 271 165 324 q 107 194 107 229 q 140 103 107 144 q 229 56 178 56 l 244 56 q 275 83 261 57 q 294 118 290 115 q 315 121 299 121 q 345 119 319 121 q 374 117 371 117 q 446 131 413 117 q 525 168 472 147 q 533 156 533 160 q 560 85 543 104 q 615 67 576 67 q 678 98 653 67 q 704 163 704 129 l 704 418 q 679 557 704 497 q 560 656 638 656 q 521 639 532 656 q 504 603 517 625 q 478 597 499 597 q 447 599 475 597 q 415 601 418 601 q 303 556 343 601 q 176 510 263 510 q 92 564 92 510 q 196 688 92 633 q 329 732 279 731 q 374 735 336 732 q 414 738 411 738 q 615 706 533 738 q 738 542 739 657 l 735 176 q 751 65 751 60 z "},"":{"ha":824,"x_min":56,"x_max":754,"o":"m 653 940 q 638 897 653 924 q 513 833 600 833 q 414 852 474 833 q 329 871 354 871 q 267 852 301 871 q 221 833 233 833 q 185 872 185 833 q 221 944 185 907 q 297 988 257 981 q 329 990 314 990 q 426 969 367 990 q 513 949 485 949 q 569 964 532 949 q 615 979 606 979 q 653 940 653 979 m 754 64 q 676 1 750 1 q 593 10 622 1 q 556 26 578 14 q 521 35 539 35 q 440 9 501 35 q 307 -17 379 -17 q 133 29 199 -17 q 56 194 56 83 q 71 281 56 235 q 102 324 76 296 q 146 360 128 351 q 318 417 239 406 l 489 442 q 524 401 524 442 q 515 350 524 369 q 461 321 506 331 q 385 303 435 315 q 285 271 272 271 q 257 297 274 271 q 215 322 240 322 q 151 290 185 322 q 113 219 118 257 q 110 192 110 200 q 142 103 110 146 q 231 54 179 54 q 276 76 267 54 q 301 119 285 97 l 318 119 q 347 117 321 119 q 375 115 372 115 q 454 132 410 115 q 528 167 481 149 q 538 154 535 164 q 556 90 542 110 q 617 65 574 65 q 683 100 657 65 q 707 168 707 131 l 707 408 q 697 506 707 450 q 650 608 688 561 q 563 654 613 654 q 517 624 529 654 q 482 594 506 594 q 450 597 479 594 q 418 600 421 600 q 304 554 347 600 q 181 508 261 508 q 93 564 93 508 q 125 632 93 599 q 415 736 225 736 q 619 701 538 736 q 740 535 742 651 l 738 171 l 754 64 z "},"":{"ha":824,"x_min":54,"x_max":756,"o":"m 550 938 q 510 842 550 883 q 418 801 469 801 q 324 847 364 801 q 285 938 285 889 q 325 1031 285 992 q 419 1069 365 1069 q 512 1030 474 1069 q 550 938 550 990 m 756 65 q 678 4 751 4 q 601 8 633 4 q 576 17 589 10 q 521 36 539 36 q 436 9 503 36 q 310 -18 369 -18 q 138 28 206 -18 q 54 196 54 85 q 115 339 54 288 q 293 414 175 390 q 488 443 443 443 q 525 403 525 443 q 514 350 525 363 q 464 322 497 331 q 415 311 439 317 q 338 290 390 306 q 285 272 293 272 q 257 298 272 272 q 215 324 242 324 q 136 274 168 324 q 111 193 111 232 q 143 101 111 143 q 232 56 179 56 q 276 81 264 56 q 297 118 282 94 q 318 121 300 121 q 347 119 321 121 q 376 117 374 117 q 454 133 411 117 q 492 154 457 135 q 529 168 518 169 q 540 143 538 160 q 551 101 547 113 q 617 67 563 67 q 682 100 656 67 q 708 169 708 133 l 708 403 q 699 504 708 431 q 649 610 692 561 q 556 658 607 658 q 514 628 521 658 q 478 599 507 599 q 449 601 475 599 q 419 604 424 604 q 306 557 349 604 q 181 510 263 510 q 94 564 94 510 q 179 676 94 624 q 297 725 247 718 q 413 736 383 736 q 617 704 536 736 q 742 536 743 654 l 739 172 l 756 65 m 492 938 q 472 990 492 968 q 418 1011 451 1011 q 365 990 386 1011 q 343 938 343 968 q 364 885 343 908 q 418 863 385 863 q 470 885 449 863 q 492 938 492 907 z "},"":{"ha":824,"x_min":57,"x_max":765,"o":"m 758 519 q 679 464 758 464 q 652 467 682 464 q 610 469 622 471 q 560 499 590 467 q 531 549 531 531 q 543 560 531 560 q 576 554 547 560 q 607 549 604 549 q 642 578 642 549 q 590 638 642 608 q 418 667 539 667 q 339 663 361 667 q 153 540 214 640 q 103 351 103 461 q 261 72 103 164 q 288 58 271 68 q 328 18 304 49 q 308 10 325 10 q 214 42 260 10 q 57 346 57 150 q 151 618 57 514 q 425 729 253 729 q 722 600 608 729 q 758 519 758 558 m 765 214 q 738 144 765 192 q 639 45 704 88 q 524 3 574 3 q 497 13 504 3 q 515 35 499 22 q 604 86 560 60 q 658 154 658 121 q 622 186 658 186 q 588 178 619 186 q 553 169 556 169 q 540 181 540 169 q 551 211 540 172 q 683 271 568 271 q 765 214 765 271 m 581 -207 q 526 -304 581 -271 q 429 -329 483 -329 q 365 -321 400 -329 q 319 -289 319 -308 q 386 -268 319 -268 q 450 -208 450 -258 q 402 -151 450 -168 q 354 -108 354 -133 l 354 -3 q 389 4 361 4 q 451 -12 439 4 q 446 -67 446 -74 q 468 -93 451 -90 q 581 -207 581 -126 z "},"":{"ha":849,"x_min":54,"x_max":803,"o":"m 586 968 q 461 832 586 935 q 393 813 438 813 q 335 857 335 813 q 356 911 335 875 q 426 993 390 972 q 504 1008 454 1008 q 586 968 586 1008 m 803 378 q 780 326 803 343 q 729 310 757 310 q 694 313 728 310 q 656 317 660 317 l 557 307 l 343 307 q 310 314 338 307 q 288 361 288 319 q 367 426 288 426 l 551 426 q 598 395 565 426 q 660 364 631 364 q 714 392 693 364 q 732 447 732 415 q 686 560 732 500 q 579 625 636 625 q 551 614 557 625 q 547 588 549 610 q 540 572 547 578 q 432 594 438 594 q 356 579 403 594 q 314 564 310 564 q 300 590 301 564 q 271 615 299 615 q 174 563 221 615 q 111 449 126 510 q 99 353 99 399 q 104 288 99 340 q 163 157 111 224 q 278 86 218 86 q 307 110 306 86 q 314 149 308 143 q 438 124 414 124 q 553 165 501 124 q 679 206 604 206 q 763 158 763 206 q 658 39 763 97 q 544 -7 569 -10 q 534 -10 543 -7 q 522 -12 525 -12 q 436 -21 464 -21 q 304 0 376 -21 q 106 150 171 39 q 54 356 54 239 q 163 626 54 518 q 435 733 272 733 q 778 481 697 733 q 803 378 803 401 z "},"":{"ha":849,"x_min":53,"x_max":803,"o":"m 499 858 q 440 813 499 813 q 372 833 400 813 q 247 968 247 928 q 329 1008 247 1008 q 411 990 371 1008 q 467 931 435 979 q 499 858 499 882 m 803 378 q 780 327 803 344 q 731 310 757 310 q 693 313 728 310 q 656 317 658 317 l 557 307 l 340 307 q 288 363 288 307 q 364 428 288 428 l 551 428 q 597 396 567 428 q 658 364 628 364 q 714 392 693 364 q 732 447 732 415 q 685 560 732 499 q 576 628 633 628 q 546 610 550 628 q 539 574 549 597 q 433 594 450 594 q 371 583 408 594 q 307 564 339 574 q 296 579 297 568 q 293 600 293 600 q 268 615 288 615 q 168 556 221 615 q 111 449 121 500 q 99 353 99 386 q 104 288 99 336 q 160 163 111 228 q 275 89 214 89 q 307 110 307 89 q 306 118 307 113 q 306 128 306 124 q 311 150 306 140 q 367 134 329 144 q 438 124 404 124 q 552 165 499 124 q 676 206 606 206 q 763 160 763 206 q 711 76 763 121 q 436 -19 601 -19 q 159 85 265 -19 q 53 357 53 189 q 163 626 53 518 q 431 733 272 733 q 778 481 697 733 q 803 378 803 401 z "},"":{"ha":849,"x_min":57,"x_max":806,"o":"m 628 860 q 571 818 628 818 q 488 856 532 818 q 428 893 444 893 q 365 856 407 893 q 282 818 322 818 q 224 860 224 818 q 274 949 224 889 q 351 1007 324 1008 q 365 1010 351 1007 q 428 1013 378 1013 q 510 1006 464 1013 q 584 944 540 1001 q 628 860 628 888 m 806 383 q 735 314 806 314 q 698 317 732 314 q 660 321 664 321 l 561 311 l 344 311 q 311 319 347 311 q 289 367 289 325 q 368 432 289 432 l 557 432 q 601 400 568 432 q 663 368 633 368 q 716 394 696 368 q 736 451 736 419 q 688 567 736 506 q 579 632 635 632 q 551 615 553 632 q 543 578 549 586 q 494 590 538 579 q 436 599 458 599 q 318 568 404 599 q 302 594 303 568 q 272 619 301 619 q 132 500 193 619 q 101 358 101 440 q 200 126 101 218 q 279 90 239 90 q 306 101 299 90 q 310 135 308 106 q 317 154 310 149 q 371 138 335 149 q 440 128 407 128 q 556 169 503 128 q 682 211 610 211 q 765 164 765 211 q 732 99 765 135 q 590 11 679 42 q 440 -15 515 -15 q 163 89 269 -15 q 57 361 57 193 q 167 631 57 521 q 435 740 278 740 q 643 678 553 740 q 786 468 746 606 q 806 383 806 401 z "},"":{"ha":849,"x_min":56,"x_max":803,"o":"m 674 913 q 576 832 674 832 q 479 911 479 832 q 576 994 479 994 q 674 913 674 994 m 372 913 q 275 832 372 832 q 178 911 178 832 q 276 994 178 994 q 372 913 372 994 m 803 378 q 731 310 803 310 q 694 313 728 310 q 657 317 660 317 l 560 307 l 343 307 q 310 314 328 307 q 288 361 288 326 q 367 426 288 426 l 553 426 q 599 394 567 426 q 660 363 632 363 q 717 393 694 363 q 735 446 735 418 q 685 562 735 497 q 579 626 635 626 q 552 614 553 626 q 544 572 551 601 q 494 584 528 574 q 433 594 460 594 q 374 583 406 594 q 310 564 322 567 l 300 574 q 269 615 297 615 q 191 577 235 615 q 131 499 147 539 q 100 354 100 426 q 124 224 100 285 q 188 130 143 172 q 276 88 233 88 q 303 96 299 88 q 308 124 307 104 q 315 149 308 143 q 439 124 419 124 q 555 165 501 124 q 679 206 608 206 q 764 158 764 206 q 660 39 764 97 q 546 -7 571 -10 q 525 -12 553 -7 q 508 -15 517 -12 q 439 -21 476 -21 q 161 82 267 -21 q 56 356 56 185 q 174 633 56 524 q 433 735 283 735 q 640 675 551 735 q 783 465 746 604 q 803 378 803 393 z "},"":{"ha":411,"x_min":99,"x_max":371,"o":"m 371 968 q 358 938 371 953 q 219 819 275 836 q 178 813 197 813 q 117 856 117 813 q 160 941 117 883 q 233 1001 203 999 q 262 1004 239 1001 q 288 1007 285 1007 q 371 968 371 1007 m 317 76 q 279 8 317 24 q 207 0 260 0 q 135 10 154 0 q 99 78 99 25 l 108 174 l 108 543 l 99 636 q 135 704 99 689 q 207 713 153 713 q 285 703 264 713 q 315 633 315 686 l 306 526 l 306 188 l 317 76 m 275 192 l 275 522 q 260 593 275 560 q 207 636 240 636 q 157 597 178 636 q 140 538 140 567 l 140 175 q 156 119 140 151 q 206 78 176 78 q 260 124 240 78 q 275 192 275 157 z "},"":{"ha":411,"x_min":29,"x_max":318,"o":"m 281 860 q 224 814 281 814 q 153 836 188 814 q 85 894 128 851 q 29 971 29 949 q 114 1010 29 1010 q 182 999 125 1010 q 244 940 207 994 q 281 860 281 885 m 314 82 q 282 11 318 26 q 206 3 264 3 q 129 11 149 3 q 97 81 93 28 l 107 199 l 107 518 l 97 636 q 126 706 93 690 q 206 715 146 715 q 283 706 263 715 q 314 636 318 689 l 304 511 l 304 213 l 314 82 m 272 168 l 272 551 q 256 601 272 574 q 207 638 235 638 q 153 593 172 638 q 138 518 138 560 l 138 199 q 153 125 138 158 q 206 81 172 81 q 254 115 233 81 q 272 168 272 144 z "},"":{"ha":411,"x_min":4,"x_max":408,"o":"m 408 851 q 351 807 408 807 q 270 845 311 807 q 207 883 229 883 q 144 845 189 883 q 61 807 99 807 q 22 819 40 807 q 4 850 4 831 q 60 944 4 885 q 135 1000 115 1003 q 174 1002 142 999 q 207 1006 206 1006 q 293 994 257 1006 q 365 932 321 986 q 408 851 408 878 m 315 76 q 282 7 315 24 q 208 -4 261 -4 q 132 7 153 -4 q 99 76 99 24 q 103 125 99 79 q 108 174 108 171 l 108 526 l 99 631 q 131 700 99 683 q 206 711 150 711 q 283 700 263 711 q 315 631 319 683 l 303 453 l 306 174 q 310 118 306 158 q 315 76 315 78 m 275 178 l 275 526 q 261 588 275 556 q 207 631 242 631 q 139 496 139 631 l 139 208 q 207 76 139 76 q 260 117 239 76 q 275 178 275 149 z "},"":{"ha":411,"x_min":-39,"x_max":460,"o":"m 460 910 q 360 829 460 829 q 263 910 263 829 q 360 992 263 992 q 460 910 460 992 m 156 910 q 58 829 156 829 q -39 911 -39 829 q 58 992 -39 992 q 156 910 156 992 m 318 78 q 281 8 318 25 q 210 -1 260 -1 q 133 10 156 -1 q 100 79 100 26 l 110 186 l 110 529 l 100 636 q 136 704 100 689 q 210 714 157 714 q 282 704 261 714 q 318 636 322 688 l 307 471 l 310 168 l 318 78 m 279 203 l 279 511 q 264 589 279 553 q 210 636 244 636 q 158 594 178 636 q 142 525 142 561 l 142 189 q 158 118 142 153 q 210 76 178 76 q 264 124 244 76 q 279 203 279 160 z "},"":{"ha":875,"x_min":79,"x_max":792,"o":"m 674 939 q 640 876 674 908 q 574 836 607 843 q 531 831 547 831 q 435 849 494 831 q 349 868 375 868 q 287 851 321 868 q 239 833 253 833 q 203 871 203 833 q 231 933 203 901 q 296 981 260 965 q 349 989 317 989 q 449 967 394 989 q 531 946 503 946 q 591 963 561 946 q 633 979 621 979 q 663 965 651 979 q 674 939 674 951 m 792 81 q 753 8 792 25 q 681 0 733 0 q 606 11 628 0 q 572 79 572 29 l 582 171 l 585 368 q 594 404 588 392 q 601 401 597 406 q 604 394 604 397 q 615 317 615 342 l 615 185 q 629 125 615 158 q 683 78 650 78 q 732 115 711 78 q 749 168 749 146 l 749 429 q 744 463 749 429 q 688 619 742 557 q 554 681 635 681 q 496 668 524 681 q 460 626 460 654 q 466 601 460 618 q 471 575 472 585 q 457 565 465 568 q 343 532 332 532 q 331 551 331 532 q 332 625 331 549 q 382 682 332 646 q 500 726 432 718 q 543 728 511 728 q 785 500 786 728 l 782 185 l 792 81 m 301 78 q 263 8 301 25 q 193 0 242 0 q 114 11 136 0 q 83 81 79 28 l 93 199 l 93 519 l 83 636 q 106 700 79 683 q 176 713 125 713 q 281 663 278 713 q 261 650 275 650 l 200 650 q 154 619 179 650 q 128 564 129 588 q 124 493 124 513 l 124 225 q 128 151 124 189 q 150 102 131 126 q 193 78 169 78 q 249 125 228 78 q 263 192 263 160 l 263 324 q 276 386 263 356 q 290 347 283 383 l 293 161 l 301 78 z "},"":{"ha":849,"x_min":54,"x_max":793,"o":"m 588 968 q 528 886 588 943 q 449 824 475 833 q 394 811 418 811 q 336 857 336 811 q 369 931 336 881 q 428 994 403 982 q 504 1007 454 1007 q 588 968 588 1007 m 793 356 q 687 90 793 197 q 424 -17 581 -17 q 159 91 264 -17 q 54 356 54 199 q 97 540 54 457 q 260 694 151 642 q 431 726 326 726 q 692 619 590 726 q 793 356 793 513 m 749 356 q 649 594 749 506 q 407 678 554 678 q 314 658 369 678 q 149 529 207 621 q 99 357 99 451 q 144 188 99 268 q 308 58 201 89 q 422 47 347 47 q 722 228 647 47 q 749 356 749 292 z "},"":{"ha":849,"x_min":56,"x_max":794,"o":"m 503 857 q 442 811 503 811 q 372 833 407 811 q 310 888 371 835 q 249 969 249 942 q 332 1007 249 1007 q 360 1005 340 1007 q 392 1001 379 1003 q 460 942 418 1000 q 503 857 503 883 m 794 357 q 688 90 794 196 q 425 -17 582 -17 q 159 90 263 -17 q 56 356 56 197 q 139 603 56 500 q 368 724 226 711 q 419 726 392 726 q 697 615 593 726 q 794 357 794 511 m 750 358 q 700 535 750 457 q 540 657 644 622 q 435 678 478 678 q 244 625 332 678 q 114 446 139 561 q 100 357 100 381 q 139 200 100 276 q 271 74 186 107 q 424 46 342 46 q 725 228 651 46 q 750 358 750 290 z "},"":{"ha":849,"x_min":58,"x_max":794,"o":"m 629 856 q 572 813 629 813 q 490 850 535 813 q 428 888 446 888 q 365 850 410 888 q 283 813 321 813 q 225 857 225 813 q 275 944 225 886 q 356 1006 325 1003 q 393 1008 364 1006 q 425 1011 422 1011 q 451 1009 428 1011 q 485 1007 474 1007 q 514 1000 490 1007 q 586 937 543 992 q 629 856 629 882 m 794 357 q 690 91 794 197 q 426 -15 585 -15 q 161 92 264 -15 q 58 357 58 199 q 160 625 58 519 q 425 731 263 731 q 692 625 590 731 q 794 357 794 519 m 750 357 q 658 588 750 501 q 424 674 567 674 q 192 586 282 674 q 103 357 103 499 q 183 139 103 222 q 422 49 269 49 q 713 201 629 49 q 750 357 750 271 z "},"":{"ha":849,"x_min":54,"x_max":793,"o":"m 675 913 q 576 832 675 832 q 476 913 476 832 q 576 994 476 994 q 675 913 675 994 m 371 913 q 275 832 371 832 q 176 913 176 832 q 275 994 176 994 q 371 913 371 994 m 793 358 q 687 92 793 199 q 424 -15 581 -15 q 159 92 264 -15 q 54 358 54 200 q 158 624 54 518 q 424 731 263 731 q 692 622 586 731 q 793 358 793 517 m 747 358 q 706 521 747 450 q 421 672 617 672 q 138 517 229 672 q 99 360 99 451 q 182 139 99 224 q 419 49 269 49 q 711 204 625 49 q 747 358 747 269 z "},"":{"ha":849,"x_min":56,"x_max":794,"o":"m 661 936 q 626 870 661 903 q 554 831 592 838 q 537 829 550 831 q 521 828 524 828 q 426 847 485 828 q 338 865 367 865 q 278 848 310 865 q 229 831 246 831 q 192 868 192 831 q 213 919 192 890 q 338 986 260 986 q 438 965 383 986 q 521 943 493 943 q 579 960 551 943 q 624 976 607 976 q 661 936 661 976 m 794 354 q 688 88 794 194 q 425 -19 582 -19 q 159 90 263 -19 q 56 356 56 200 q 159 619 56 513 q 422 726 263 726 q 690 621 586 726 q 794 354 794 515 m 750 356 q 660 581 750 493 q 431 668 571 668 q 121 469 199 668 q 100 357 100 417 q 138 200 100 272 q 271 71 182 113 q 422 44 326 44 q 561 64 507 44 q 707 190 656 99 q 750 356 750 267 z "},"":{"ha":875,"x_min":85,"x_max":797,"o":"m 603 967 q 543 884 603 940 q 463 821 483 828 q 410 808 422 808 q 372 819 390 808 q 350 854 350 832 q 395 942 350 883 q 469 1000 440 1001 q 476 1001 472 1000 q 485 1003 481 1003 q 521 1004 490 1004 q 603 967 603 1004 m 793 78 q 768 11 797 28 q 701 0 750 0 q 593 43 593 0 q 601 55 593 47 q 613 63 610 63 l 674 63 q 704 75 683 63 q 756 229 757 106 l 753 524 q 739 590 756 553 q 685 635 718 635 q 631 590 651 635 q 617 533 617 558 l 617 414 q 599 329 617 365 q 583 415 583 342 l 583 551 l 574 635 q 614 704 574 688 q 685 713 635 713 q 764 701 743 713 q 793 632 793 685 q 790 603 793 632 q 786 556 786 574 l 782 232 l 793 78 m 543 161 q 538 76 543 119 q 489 26 535 58 q 340 -17 426 -17 q 110 129 156 -17 q 94 208 94 178 l 94 539 l 85 633 q 121 703 85 686 q 193 713 140 713 q 265 703 244 713 q 303 635 303 688 q 299 601 303 635 q 294 549 294 567 l 292 344 q 281 310 292 332 q 269 335 275 314 q 264 358 264 351 l 264 504 q 250 586 264 549 q 193 635 231 635 q 143 594 163 635 q 126 528 126 563 l 126 315 q 142 194 126 269 q 211 75 157 119 q 322 35 261 35 q 383 46 356 35 q 418 89 418 61 q 411 113 418 96 q 407 136 404 129 q 424 147 415 144 q 529 178 535 178 q 543 161 543 178 z "},"":{"ha":875,"x_min":88,"x_max":796,"o":"m 518 856 q 460 810 518 810 q 395 827 422 810 q 324 886 368 844 q 267 967 267 940 q 349 1006 267 1006 q 414 997 393 1006 q 483 933 447 983 q 518 856 518 882 m 796 76 q 767 11 796 26 q 703 0 749 0 q 596 43 596 0 q 604 56 596 47 q 615 64 613 64 l 676 64 q 715 84 693 64 q 743 124 738 104 q 756 229 756 169 l 753 533 q 738 599 753 569 q 688 636 719 636 q 635 593 654 636 q 619 533 619 561 l 619 415 q 601 329 619 363 q 586 415 586 342 l 586 551 l 576 636 q 617 704 576 689 q 688 713 636 713 q 763 703 740 713 q 796 635 796 686 l 786 535 l 786 167 l 796 76 m 546 174 q 540 76 544 138 q 494 31 539 67 q 342 -17 436 -17 q 94 229 92 -17 l 97 524 l 88 635 q 124 703 88 688 q 196 713 143 713 q 271 703 249 713 q 304 635 304 686 l 294 531 l 294 378 q 285 308 294 336 q 276 311 282 308 q 264 374 264 336 l 264 479 q 196 633 264 633 q 144 596 164 633 q 129 543 129 567 l 129 297 q 132 274 129 296 q 136 242 135 251 q 197 92 143 150 q 325 35 250 35 q 385 47 357 35 q 419 89 419 61 q 413 109 419 92 q 407 129 407 126 q 426 147 407 142 q 535 182 542 182 q 546 174 538 182 z "},"":{"ha":875,"x_min":81,"x_max":796,"o":"m 644 853 q 621 821 644 833 q 586 811 603 811 q 504 849 546 811 q 440 886 463 886 q 379 849 425 886 q 296 811 333 811 q 258 822 275 811 q 238 853 238 833 q 285 936 238 879 q 354 999 332 993 q 442 1008 392 1008 q 531 996 501 1008 q 614 914 578 975 q 644 853 644 863 m 796 78 q 765 13 796 29 q 701 1 746 1 q 596 44 596 1 q 615 65 596 65 l 674 65 q 703 78 681 65 q 742 128 726 90 q 753 179 753 157 l 753 522 q 738 593 753 560 q 686 636 718 636 q 635 596 654 636 q 619 542 619 567 l 619 426 q 601 331 619 374 q 586 396 586 343 l 586 528 l 576 636 q 613 704 576 689 q 686 714 633 714 q 760 704 739 714 q 796 636 796 689 l 786 536 l 786 168 l 796 78 m 546 167 q 538 75 546 115 q 493 32 536 67 q 340 -15 435 -15 q 94 219 93 -15 l 96 504 l 85 638 q 122 706 81 690 q 196 714 143 714 q 272 703 250 714 q 304 636 308 686 l 292 471 l 292 343 q 282 310 292 339 q 274 315 276 310 q 261 408 261 340 l 261 525 q 246 594 261 561 q 196 636 228 636 q 129 538 142 636 q 126 425 126 518 q 158 149 126 222 q 325 36 207 36 q 383 49 356 36 q 419 90 419 64 q 413 113 419 99 q 407 138 407 128 q 426 149 414 144 q 535 182 526 182 q 546 167 543 182 z "},"":{"ha":875,"x_min":83,"x_max":799,"o":"m 689 910 q 590 829 689 829 q 493 911 493 829 q 590 992 493 992 q 689 910 689 992 m 388 911 q 290 829 388 829 q 192 911 192 829 q 290 992 192 992 q 388 911 388 992 m 794 76 q 765 11 799 28 q 700 1 746 1 q 594 53 590 1 q 615 65 607 65 l 674 65 q 704 77 682 65 q 740 128 726 89 q 753 179 753 157 l 753 522 q 736 594 753 561 q 683 636 717 636 q 631 593 650 636 q 615 521 615 560 l 615 397 q 601 331 615 376 q 593 333 599 332 q 585 379 585 361 l 585 511 l 575 633 q 604 703 571 686 q 683 714 625 714 q 757 704 736 714 q 794 636 794 688 l 785 549 l 782 228 l 794 76 m 543 163 q 538 81 543 164 q 488 29 536 65 q 339 -15 428 -15 q 93 219 90 -15 l 96 504 l 83 638 q 122 706 83 689 q 193 714 143 714 q 271 703 249 714 q 300 635 304 685 l 290 518 l 290 357 q 281 314 290 346 q 272 317 278 315 q 260 386 260 367 l 260 508 q 193 635 260 635 q 142 593 160 635 q 126 521 126 560 l 126 326 q 135 243 126 301 q 143 186 142 192 q 211 77 160 118 q 324 36 263 36 q 382 49 354 36 q 418 90 418 64 q 412 112 418 97 q 407 138 406 126 q 426 149 411 143 q 532 182 529 182 q 543 163 543 182 z "},"":{"ha":875,"x_min":76,"x_max":804,"o":"m 546 917 q 538 864 546 896 q 524 825 529 832 q 490 871 515 828 q 440 908 467 908 q 393 875 413 908 q 361 825 368 831 q 351 832 356 825 q 336 917 336 882 q 368 982 336 967 q 440 993 389 993 q 546 917 546 993 m 804 628 q 722 538 804 538 q 639 563 639 538 q 665 588 639 569 q 692 626 692 606 q 665 667 692 651 q 639 693 639 683 q 722 718 639 714 q 804 628 804 718 m 242 563 q 158 538 242 538 q 94 558 111 538 q 76 626 76 579 q 158 718 76 718 q 242 693 242 718 q 216 668 242 686 q 190 628 190 650 q 216 588 190 606 q 242 563 242 569 m 546 -167 q 506 -233 546 -218 q 439 -242 486 -242 q 367 -231 388 -242 q 336 -164 336 -214 l 346 -81 l 346 357 q 350 411 346 393 q 358 424 354 419 q 370 407 364 422 q 376 383 376 392 l 376 -32 q 386 -101 376 -68 q 440 -160 401 -160 q 489 -118 471 -160 q 503 -50 503 -86 l 503 376 q 521 424 503 406 q 533 393 533 411 l 533 -33 l 546 -167 z "},"":{"ha":556,"x_min":64,"x_max":494,"o":"m 494 757 q 429 603 494 667 q 278 540 364 540 q 126 606 189 540 q 64 757 64 672 q 128 910 64 846 q 278 974 192 974 q 431 908 368 974 q 494 757 494 843 m 393 757 q 365 839 393 801 q 279 883 333 883 q 194 845 225 883 q 164 757 164 807 q 193 672 164 708 q 279 632 225 632 q 361 669 329 632 q 393 757 393 707 z "},"":{"ha":875,"x_min":83,"x_max":789,"o":"m 469 540 q 451 510 469 522 q 432 540 432 511 q 450 561 432 561 q 469 540 469 561 m 789 217 q 706 85 789 158 q 579 11 629 15 q 522 0 565 11 q 485 -37 508 -4 q 449 -69 461 -69 q 425 -51 439 -69 q 408 -28 415 -39 q 383 -3 400 -17 q 285 22 350 4 q 211 67 254 32 q 144 138 168 103 q 83 350 83 225 q 126 550 83 463 q 296 704 181 660 q 355 717 328 717 q 409 752 382 717 q 450 788 436 788 q 475 772 460 788 q 492 749 483 760 q 521 724 501 739 q 572 713 538 719 q 640 689 613 704 q 733 617 692 663 q 782 522 782 565 q 703 467 782 467 q 635 472 669 467 q 604 483 621 475 q 586 503 597 488 q 575 526 575 519 q 621 546 575 544 q 667 579 667 547 q 604 651 667 614 q 524 694 564 674 q 479 703 511 703 q 396 700 449 703 q 364 686 386 700 q 325 665 332 668 q 171 529 224 621 q 125 357 125 450 q 164 197 125 271 q 308 65 213 108 q 379 28 332 51 q 450 22 393 22 q 506 22 506 22 q 571 57 511 24 q 635 94 625 88 q 681 156 681 126 q 640 189 681 189 q 624 188 638 189 q 607 186 610 186 q 579 207 579 186 q 714 274 579 274 q 789 217 789 274 m 467 182 q 450 161 467 161 q 432 182 436 161 q 438 198 432 186 q 449 210 443 210 q 467 182 461 210 z "},"":{"ha":875,"x_min":64,"x_max":826,"o":"m 806 743 q 708 681 806 681 q 649 683 671 681 q 604 712 622 686 q 586 764 586 738 q 600 782 586 782 q 639 769 603 782 q 678 756 675 756 q 709 771 697 756 q 721 803 721 786 q 628 914 721 864 q 510 953 553 953 q 478 954 501 953 q 453 956 454 956 q 171 803 236 956 q 153 697 156 767 q 138 647 151 647 q 110 688 119 647 q 104 732 104 714 q 229 944 104 871 q 457 1003 328 1003 q 622 974 546 1003 q 768 847 725 933 q 806 743 806 772 m 563 488 q 485 421 563 421 q 460 425 465 421 q 419 526 446 432 q 486 551 419 551 q 540 535 517 551 q 563 488 563 518 m 429 328 q 408 294 429 303 q 399 311 399 304 q 415 346 399 338 q 429 328 429 346 m 603 150 q 558 139 596 139 q 488 158 508 139 l 488 167 q 515 174 492 174 q 603 150 547 174 m 826 86 q 750 6 826 33 q 626 -17 692 -17 q 351 50 543 -17 q 392 61 360 61 l 607 33 q 669 42 664 40 q 714 86 714 54 q 692 121 714 107 q 647 147 669 135 q 743 193 711 193 q 803 151 776 193 q 826 86 826 115 m 179 453 q 133 426 179 426 q 64 488 64 426 q 81 529 64 510 q 121 549 99 549 q 142 542 133 549 q 163 501 146 538 q 179 453 179 464 m 288 53 q 243 21 279 39 q 186 3 207 3 q 130 35 156 3 q 104 93 104 67 q 136 151 104 119 q 204 196 165 179 q 201 138 208 183 q 232 81 196 106 q 288 53 260 67 z "},"":{"ha":875,"x_min":60,"x_max":822,"o":"m 742 813 q 663 751 742 751 q 593 764 668 751 q 556 799 578 768 q 535 843 535 831 q 556 853 535 853 q 571 853 558 853 q 585 851 582 851 q 618 872 618 851 q 576 917 618 900 q 522 929 546 929 l 444 929 q 419 931 442 929 q 393 933 396 933 q 228 835 275 933 q 211 769 218 815 q 207 729 210 749 q 192 699 203 699 q 164 732 175 699 q 156 779 156 758 q 240 940 156 875 q 415 1004 315 997 q 456 1006 440 1006 q 700 903 614 1006 q 742 813 742 853 m 822 364 q 821 347 822 363 q 819 322 819 331 q 785 242 819 290 q 724 194 750 194 q 703 218 703 194 q 733 275 703 232 q 764 360 764 318 q 704 478 764 425 q 571 556 661 514 q 425 654 432 619 l 431 660 l 439 660 q 581 599 454 660 q 738 521 693 546 q 790 472 767 504 q 822 364 822 428 m 579 443 q 569 435 583 435 q 408 503 544 435 q 386 528 393 514 q 403 536 392 536 q 501 503 431 536 q 579 443 578 465 m 500 253 q 485 239 493 239 q 383 278 454 239 q 304 336 311 317 q 318 344 308 344 q 388 319 332 344 q 444 292 436 297 q 500 253 482 271 m 474 121 q 464 113 478 113 q 390 139 457 113 q 89 322 132 240 q 60 424 60 378 q 65 471 60 439 q 105 551 72 510 q 165 592 138 592 q 185 571 185 592 q 153 511 185 556 q 121 422 121 467 q 207 278 121 342 q 372 189 251 244 q 474 121 465 146 m 747 -10 q 717 -121 747 -71 q 438 -253 636 -253 q 156 -122 244 -253 q 131 -50 131 -86 q 214 11 131 11 q 281 0 242 11 q 317 -35 296 -4 q 338 -79 338 -65 q 325 -90 338 -90 q 301 -87 321 -90 q 278 -83 281 -83 q 240 -107 240 -83 q 285 -161 240 -140 q 361 -179 322 -179 q 392 -177 364 -179 q 424 -175 419 -175 q 465 -180 426 -175 q 507 -185 504 -185 q 640 -131 586 -185 q 690 19 700 -71 q 690 64 688 40 q 707 86 697 86 q 735 57 721 86 q 747 -10 747 24 m 446 -129 q 426 -142 443 -142 q 403 -129 418 -142 q 418 -118 410 -118 q 446 -129 435 -118 z "},"":{"ha":694,"x_min":115,"x_max":585,"o":"m 585 494 q 517 326 585 393 q 350 260 449 260 q 183 330 250 260 q 115 496 115 400 q 185 660 115 593 q 350 728 256 728 q 518 660 451 728 q 585 494 585 592 m 533 494 q 481 622 533 568 q 350 676 428 676 q 223 621 276 676 q 169 494 169 565 q 222 365 169 419 q 351 311 275 311 q 479 364 425 311 q 533 494 533 417 z "},"":{"ha":861,"x_min":-12,"x_max":754,"o":"m 754 -143 q 679 -244 754 -244 q 599 -151 599 -244 l 603 763 q 611 828 611 804 q 607 849 611 843 q 522 874 593 874 l 457 867 q 421 889 439 867 q 388 925 399 918 q 310 940 361 940 q 138 904 208 940 q 39 750 39 856 q 199 565 39 628 q 215 543 217 553 q 188 533 211 533 q 103 556 154 533 q -12 747 -12 606 q 126 956 -12 910 q 204 972 169 969 q 526 992 513 992 l 672 989 q 724 971 700 989 q 751 925 749 953 l 754 -143 m 446 -129 q 439 -200 446 -178 q 371 -244 422 -244 q 293 -149 292 -244 l 297 407 q 301 442 299 425 q 319 472 306 464 q 367 486 335 475 q 390 528 383 497 q 401 603 396 558 l 403 713 q 418 761 403 728 q 432 732 419 760 l 443 444 l 446 -129 z "},"":{"ha":875,"x_min":85,"x_max":815,"o":"m 539 483 q 517 474 531 474 q 403 544 403 474 q 443 604 403 583 q 515 619 476 624 q 525 606 525 610 q 522 576 525 600 q 521 538 519 551 q 539 483 528 521 m 761 751 q 746 674 761 740 q 727 643 744 665 q 696 621 710 621 q 683 631 696 621 q 694 694 685 660 q 704 754 704 728 q 686 832 704 797 q 560 933 646 908 q 401 949 508 949 q 139 728 182 949 q 128 629 128 671 l 128 199 q 143 124 128 160 q 197 81 164 81 q 267 167 254 81 l 264 404 l 274 521 l 274 578 q 272 599 274 581 q 271 621 271 618 q 279 685 271 664 q 290 628 293 678 q 289 519 288 583 q 292 472 289 504 q 294 438 294 439 l 294 210 q 293 194 294 211 q 293 171 292 181 q 300 115 294 154 q 304 79 304 82 q 268 13 304 28 q 194 3 249 3 q 85 79 85 3 l 94 158 l 94 744 q 118 835 94 774 q 257 975 154 929 q 429 1010 335 1010 q 660 943 565 1010 q 761 751 761 871 m 815 301 q 715 74 815 157 q 486 -3 625 -3 q 396 81 396 -3 q 493 165 396 165 q 525 156 510 165 q 519 125 524 146 q 514 103 514 104 q 563 61 514 61 q 625 76 589 61 q 736 178 700 108 q 765 296 765 232 q 733 417 765 358 q 700 482 700 475 q 715 497 700 497 q 751 475 726 497 q 815 301 815 419 z "},"":{"ha":1111,"x_min":26,"x_max":1092,"o":"m 1092 496 q 933 119 1092 268 q 558 -24 781 -24 q 179 124 332 -24 q 26 496 26 271 q 182 872 26 726 q 560 1014 333 1014 q 938 868 783 1014 q 1092 496 1092 722 m 939 496 q 750 838 939 722 q 558 892 661 892 q 293 785 403 892 q 176 496 176 672 q 372 149 176 264 q 558 100 456 100 q 824 207 714 100 q 939 496 939 319 m 789 610 q 756 514 789 549 q 694 471 744 501 q 661 425 661 451 q 695 347 661 404 q 729 268 729 290 q 690 231 729 231 q 587 338 642 231 q 493 444 532 444 q 475 419 475 444 l 475 290 q 469 268 475 283 q 413 225 453 225 q 368 247 385 225 q 351 293 351 269 l 351 699 q 372 749 351 725 q 421 774 392 774 l 581 774 q 718 740 663 774 q 789 610 789 697 m 657 614 q 619 669 657 650 q 556 686 590 686 q 478 607 478 686 q 493 555 478 567 q 549 543 508 543 q 657 614 657 543 z "},"":{"ha":1111,"x_min":24,"x_max":1092,"o":"m 1092 497 q 933 118 1092 267 q 558 -25 782 -25 q 178 122 332 -25 q 24 494 24 268 q 178 868 24 722 q 560 1014 332 1014 q 935 872 782 1014 q 1092 497 1092 725 m 939 496 q 726 849 939 744 q 558 890 642 890 q 285 774 393 890 q 176 496 176 658 q 281 221 176 336 q 558 100 390 100 q 738 146 653 100 q 893 299 838 199 q 939 496 939 381 m 800 360 q 768 292 800 332 q 576 206 699 206 q 371 296 450 206 q 297 501 297 381 q 373 709 297 624 q 575 794 449 794 q 661 782 610 794 q 745 729 700 772 q 790 647 790 686 q 744 604 790 604 q 674 637 724 604 q 582 669 625 669 q 475 617 511 669 q 443 504 443 571 q 475 389 443 438 q 588 331 514 331 q 681 368 633 331 q 751 406 729 406 q 785 391 771 406 q 800 360 800 376 z "},"":{"ha":1389,"x_min":63,"x_max":1340,"o":"m 1340 536 q 1269 418 1340 418 q 1197 522 1197 418 q 1200 600 1197 560 q 1213 656 1203 633 q 1263 718 1231 676 q 1286 815 1286 756 q 1271 876 1286 851 q 1218 907 1253 907 q 1171 886 1193 907 q 1132 792 1132 850 q 1135 749 1132 778 q 1138 704 1138 719 q 1135 675 1138 689 q 1106 596 1133 669 q 1081 499 1089 553 q 1052 444 1076 468 q 1000 421 1028 421 q 932 474 954 421 q 910 556 921 515 q 865 674 893 593 q 863 700 863 685 q 866 746 863 714 q 869 794 869 778 q 847 869 869 835 q 782 907 821 907 q 729 874 747 907 q 715 815 715 847 q 719 788 715 814 q 725 751 724 761 q 756 699 726 731 q 792 647 786 663 q 801 536 801 619 q 796 464 801 479 q 732 418 779 418 q 661 531 660 418 l 663 660 q 667 749 663 686 q 672 836 672 811 q 669 872 672 843 q 665 903 665 901 q 697 969 665 953 q 767 981 717 981 q 839 972 817 981 q 881 935 871 961 q 915 840 890 903 q 964 704 964 735 q 952 662 964 693 q 940 608 940 631 q 954 560 940 582 q 1000 533 972 533 q 1049 563 1031 533 q 1063 610 1063 585 q 1050 658 1063 628 q 1038 703 1038 689 q 1071 809 1038 732 q 1104 890 1104 886 q 1108 904 1104 890 q 1111 912 1110 907 q 1113 918 1113 917 q 1160 972 1126 961 q 1235 981 1186 981 q 1288 978 1272 981 q 1328 947 1315 972 q 1335 921 1335 938 q 1332 813 1333 869 l 1339 671 l 1339 576 q 1340 557 1339 574 q 1340 536 1340 540 m 524 922 q 419 860 524 863 q 403 858 415 860 q 389 856 392 856 q 348 889 374 856 q 292 922 322 922 q 236 889 261 922 q 196 856 211 856 q 165 860 206 856 q 97 872 115 865 q 63 924 63 888 q 96 974 63 957 q 158 985 122 988 l 292 976 l 428 985 q 490 972 463 988 q 524 922 524 956 m 371 515 q 292 415 372 415 q 211 507 211 415 q 213 544 211 508 q 215 582 215 579 l 215 729 q 222 771 215 749 q 244 801 231 801 q 267 790 247 801 q 292 778 286 778 q 319 790 299 778 q 347 801 339 803 q 364 757 360 789 q 369 708 367 733 l 371 515 z "},"":{"ha":411,"x_min":119,"x_max":369,"o":"m 369 960 q 326 894 369 936 q 260 835 293 864 q 222 814 249 824 q 178 806 201 806 q 119 851 119 806 q 140 904 119 869 q 211 985 176 965 q 286 999 236 999 q 369 960 369 999 z "},"":{"ha":411,"x_min":-37,"x_max":458,"o":"m 458 901 q 361 821 458 821 q 264 901 264 821 q 361 986 264 986 q 458 901 458 986 m 157 901 q 58 821 157 821 q -37 901 -37 821 q 58 986 -37 986 q 157 901 157 986 z "},"":{"ha":1415,"x_min":13,"x_max":1361,"o":"m 1318 510 q 1236 418 1318 418 q 1197 422 1233 418 q 1157 426 1160 426 l 1050 426 q 985 440 1004 426 l 985 449 q 1006 459 988 453 q 1031 465 1024 465 l 1092 465 q 1206 510 1206 465 q 1160 547 1206 539 q 1064 553 1131 553 q 992 567 1017 554 q 985 572 989 568 q 990 582 985 579 q 1044 593 1017 593 l 1153 593 q 1192 597 1156 593 q 1233 600 1229 600 q 1318 510 1318 600 m 690 558 q 675 471 690 492 q 665 481 665 475 q 663 561 663 499 q 675 658 663 647 q 690 558 690 632 m 1349 894 q 1267 800 1349 796 l 1101 810 l 1019 810 q 989 819 1006 810 q 988 825 989 821 q 1038 842 1001 842 l 1140 842 q 1249 894 1249 842 q 1203 936 1249 925 q 1153 943 1178 940 l 611 946 q 443 867 507 946 q 371 725 432 851 q 229 446 300 586 q 108 161 144 275 q 104 131 104 149 q 156 65 104 65 q 213 88 179 65 q 268 125 264 122 q 276 103 276 119 q 249 33 276 65 q 179 0 222 1 l 86 -3 q 13 47 13 -6 q 67 157 13 67 q 143 314 74 169 q 203 442 164 358 l 294 638 q 396 856 354 761 q 435 950 404 888 q 511 986 460 986 q 549 983 514 986 q 586 979 583 979 l 1157 979 l 1268 988 q 1349 894 1349 993 m 1361 103 q 1279 0 1361 0 l 1169 10 l 835 10 l 728 0 q 653 67 653 0 q 676 115 653 115 q 728 78 679 115 q 819 42 778 42 l 1185 42 q 1241 58 1210 42 q 1272 101 1272 75 q 1153 163 1272 163 l 1033 163 q 992 178 1007 163 q 1007 189 996 189 q 1054 196 1031 196 l 1197 196 l 1282 204 q 1361 103 1361 204 m 518 682 q 489 600 518 664 q 462 539 476 571 q 428 485 447 507 q 419 500 421 492 q 456 601 419 522 q 508 694 492 681 q 518 682 518 688 m 554 203 q 485 190 539 190 q 410 203 429 190 q 490 228 421 228 q 554 211 536 228 l 554 203 z "},"":{"ha":1081,"x_min":63,"x_max":1021,"o":"m 1010 960 q 1006 939 1010 947 q 963 879 997 922 q 915 831 925 831 q 873 861 901 831 q 844 901 844 892 q 883 942 844 908 q 938 988 921 976 q 971 1000 956 1000 q 1010 960 1010 1000 m 1021 492 q 896 132 1021 272 q 540 -17 764 -17 q 301 53 368 -17 q 321 65 308 65 q 365 53 322 65 q 429 38 407 42 q 543 26 488 26 q 869 167 749 26 q 981 493 981 296 q 965 619 981 549 q 943 693 960 646 q 932 747 932 728 q 938 764 932 761 q 957 753 946 767 q 1021 492 1021 653 m 733 646 q 722 615 733 628 q 685 576 703 596 q 565 447 643 531 l 478 351 q 393 281 414 281 q 360 301 372 281 q 350 335 350 318 q 375 381 350 354 q 425 432 400 407 q 650 676 565 592 q 693 704 678 704 q 722 679 710 704 q 733 646 733 660 m 781 926 q 761 918 779 918 q 701 931 751 918 q 647 944 675 938 q 542 957 581 957 q 392 932 463 957 q 163 742 236 878 q 103 490 103 633 q 126 326 103 414 q 150 249 150 239 l 150 222 l 144 217 q 129 226 133 219 q 63 493 63 325 q 183 849 63 711 q 540 997 314 997 q 764 947 683 997 q 781 926 778 939 m 238 81 q 215 53 238 72 q 138 -15 190 29 q 106 -28 125 -28 q 76 -15 88 -28 q 65 11 65 -1 q 75 44 65 28 q 168 150 160 150 q 209 122 181 150 q 238 81 238 93 z "},"":{"ha":833,"x_min":69,"x_max":768,"o":"m 768 478 q 685 386 768 386 q 639 392 665 386 q 603 411 603 399 q 628 437 603 418 q 654 478 654 456 q 628 515 654 494 q 601 542 601 536 q 636 561 601 554 q 685 567 664 567 q 768 478 768 567 m 507 647 q 482 608 507 608 q 450 617 479 608 q 418 625 421 625 q 387 618 415 625 q 356 611 358 611 q 331 647 331 611 q 418 713 331 713 q 507 647 507 713 m 507 304 q 418 239 507 239 q 331 303 331 239 q 354 340 331 340 q 385 332 357 340 q 418 324 414 324 q 449 332 421 324 q 481 340 478 340 q 507 304 507 340 m 233 410 q 197 392 233 399 q 150 386 171 386 q 69 478 69 386 q 150 567 69 567 q 233 542 233 567 q 208 517 233 533 q 182 478 182 500 q 208 437 182 456 q 233 410 233 418 m 768 74 q 682 -17 768 -17 q 642 -13 679 -17 q 601 -10 604 -10 l 235 -10 q 194 -13 232 -10 q 154 -17 157 -17 q 69 72 69 -17 q 150 164 69 164 q 308 149 192 164 q 331 140 317 149 q 315 131 326 133 q 296 125 297 125 q 235 117 265 121 q 185 72 185 104 q 211 40 185 53 q 254 31 232 31 l 581 31 q 625 40 603 31 q 653 72 653 51 q 571 119 653 113 q 504 136 554 121 q 526 149 508 149 q 685 164 668 164 q 768 74 768 164 z "},"":{"ha":875,"x_min":42,"x_max":839,"o":"m 839 942 q 826 897 839 919 q 774 817 807 869 q 733 736 753 776 q 697 692 719 710 q 690 704 690 693 q 717 778 690 721 q 744 856 744 836 q 700 910 744 910 q 592 796 639 910 q 567 736 579 765 q 532 682 553 703 l 524 682 q 521 693 521 688 q 536 744 521 701 q 597 907 561 799 q 621 953 603 931 q 671 985 643 981 q 760 990 715 990 q 839 942 839 990 m 808 500 q 778 446 808 465 q 725 432 756 432 q 643 463 643 432 q 651 483 643 465 q 667 510 657 492 q 700 554 676 528 q 735 564 719 564 q 785 546 763 564 q 808 500 808 528 m 358 693 q 350 679 358 679 q 328 704 342 679 q 276 814 319 719 q 222 890 253 863 q 176 910 200 910 q 135 858 135 910 q 162 775 135 831 q 189 706 189 719 q 183 692 189 700 q 167 704 171 694 q 111 807 164 708 q 68 872 90 839 q 42 940 42 913 q 118 990 42 990 q 153 988 117 990 q 209 985 190 985 q 249 961 228 985 q 278 914 271 938 q 299 850 289 878 q 358 693 358 707 m 808 247 q 700 181 808 181 q 601 193 625 181 q 589 225 589 200 q 600 290 589 279 q 703 315 621 315 q 808 247 808 315 m 236 463 q 154 432 236 436 q 72 500 72 432 q 93 547 72 529 q 143 564 114 564 q 179 554 165 564 q 211 508 186 547 q 236 463 236 469 m 558 65 q 507 3 558 14 q 439 0 496 0 q 364 4 379 0 q 318 65 318 17 q 343 117 318 117 q 383 90 351 117 q 439 63 414 63 q 494 89 465 63 q 533 115 522 115 q 558 65 558 115 m 288 224 q 178 181 288 181 q 72 247 72 181 q 174 315 72 315 q 266 300 244 315 q 288 224 288 285 z "},"":{"ha":875,"x_min":82,"x_max":790,"o":"m 790 79 q 763 13 790 29 q 696 1 743 1 q 593 44 593 1 q 669 65 593 65 q 732 115 710 69 q 750 189 750 151 l 750 525 q 736 592 750 558 q 682 638 717 638 q 632 597 651 638 q 617 539 617 565 l 617 417 q 608 349 617 396 q 599 329 608 342 q 592 333 594 331 q 583 413 583 369 l 583 544 l 574 638 q 610 706 574 689 q 682 714 629 714 q 757 704 738 714 q 790 636 790 689 q 785 588 790 633 q 781 539 781 543 l 781 174 q 785 126 781 171 q 790 79 790 82 m 540 178 q 539 150 542 168 q 538 121 538 128 q 538 88 538 88 q 477 24 519 50 q 396 -3 435 -3 q 367 7 378 -3 q 369 19 367 15 q 404 56 382 31 q 418 89 418 76 q 411 110 418 92 q 404 132 404 129 q 422 149 404 144 q 528 183 518 183 q 540 178 535 183 m 301 -171 q 258 -239 301 -224 q 190 -246 239 -246 q 122 -237 142 -246 q 82 -169 82 -221 q 88 -125 82 -178 q 94 -18 94 -72 l 92 556 l 82 639 q 121 706 82 690 q 190 714 140 714 q 264 706 243 714 q 301 639 301 689 l 289 508 l 289 350 q 279 313 289 335 q 263 343 265 319 q 258 379 258 379 l 257 544 q 192 638 242 638 q 140 597 160 638 q 125 528 125 565 l 125 -58 q 140 -128 125 -96 q 193 -168 160 -168 q 242 -137 217 -168 q 274 -107 267 -107 q 294 -133 286 -107 q 301 -171 301 -154 z "},"":{"ha":524,"x_min":3,"x_max":499,"o":"m 497 574 q 419 504 497 504 q 367 511 417 504 q 314 518 317 518 q 255 505 297 518 q 169 492 213 492 q 60 518 106 492 q 3 619 3 553 q 113 753 3 711 q 235 771 133 761 q 277 779 246 772 q 311 786 308 786 q 344 746 344 786 q 310 710 344 714 q 254 706 282 707 q 210 689 239 701 q 161 633 161 661 q 199 603 161 613 q 239 596 221 596 q 299 613 271 596 q 340 629 328 629 q 367 617 343 629 q 396 606 392 606 q 442 718 442 606 q 367 853 442 853 q 356 851 364 853 q 344 850 347 850 q 300 858 342 850 q 256 867 258 867 q 185 847 233 867 q 111 826 138 826 q 42 875 42 826 q 114 951 42 922 q 204 971 168 972 q 233 971 211 971 q 257 972 257 972 q 488 792 499 972 q 486 715 486 769 q 497 574 486 699 z "},"":{"ha":538,"x_min":7,"x_max":535,"o":"m 535 732 q 454 550 535 615 q 272 490 382 490 q 88 550 160 490 q 7 732 7 615 q 88 914 7 847 q 271 974 160 974 q 456 911 382 974 q 535 732 535 844 m 386 731 q 353 811 386 776 q 272 846 321 846 q 189 813 222 846 q 156 731 156 779 q 189 651 156 685 q 272 618 222 618 q 353 651 319 618 q 386 731 386 683 z "},"":{"ha":1311,"x_min":51,"x_max":1271,"o":"m 1271 382 q 1194 314 1271 314 q 1161 317 1193 314 q 1125 319 1129 319 l 1006 310 l 832 310 q 783 319 797 310 q 765 367 765 332 q 821 429 765 428 l 964 432 q 1032 429 1018 433 q 1068 400 1040 428 q 1113 369 1096 372 q 1128 368 1115 368 q 1183 396 1164 368 q 1200 450 1200 418 q 1157 557 1200 499 q 1054 622 1108 622 q 1031 608 1035 622 q 1015 574 1024 583 q 908 596 915 596 q 840 582 879 596 q 778 564 794 567 q 765 588 769 571 q 756 613 761 606 q 731 636 750 621 q 715 656 715 647 q 747 692 715 668 q 860 735 796 726 q 910 738 883 738 q 1104 681 1018 738 q 1246 488 1203 615 q 1271 382 1271 414 m 1229 163 q 1138 53 1229 111 q 1021 -3 1063 4 q 915 -15 949 -15 q 831 -9 854 -15 q 765 11 807 -3 q 724 35 749 18 q 688 78 688 60 q 693 89 688 88 q 751 113 713 94 q 763 137 760 118 q 772 161 765 156 q 828 143 779 163 q 910 128 864 128 q 1023 169 972 128 q 1146 211 1074 211 q 1229 163 1229 211 m 636 661 q 620 645 636 650 q 571 624 604 640 q 543 593 564 614 q 524 589 539 589 q 472 595 521 589 q 421 601 424 601 q 303 556 343 601 q 175 511 263 511 q 92 565 92 511 q 129 643 92 603 q 206 697 163 679 q 417 740 307 740 q 531 728 424 740 q 590 706 550 725 q 636 661 636 681 m 617 96 q 581 54 617 81 q 335 -18 481 -18 q 147 24 219 -18 q 51 196 51 78 q 88 318 51 275 q 183 385 125 361 q 281 413 210 396 q 415 438 326 424 q 501 449 493 449 q 532 435 525 449 q 535 403 535 428 q 524 344 535 356 q 453 314 504 325 q 378 299 415 306 q 288 274 289 274 q 258 299 275 274 q 213 324 240 324 q 181 315 197 324 q 108 194 108 279 q 128 122 108 157 q 197 64 151 81 q 232 56 219 56 q 282 90 269 56 q 318 124 294 124 q 349 122 321 124 q 379 119 376 119 q 490 147 443 119 q 529 176 497 151 q 563 192 550 192 q 585 149 568 183 q 606 121 589 139 q 617 96 617 106 z "},"":{"ha":849,"x_min":56,"x_max":793,"o":"m 793 354 q 689 88 793 192 q 424 -17 585 -17 q 308 0 360 -17 q 276 17 306 1 q 235 32 246 32 q 182 15 215 32 q 138 -1 149 -1 q 115 22 115 -1 q 124 66 115 25 q 133 110 133 107 q 110 164 133 126 q 76 224 81 211 q 56 354 56 278 q 158 621 56 515 q 424 726 261 726 q 518 717 479 726 q 574 694 536 713 q 613 675 611 675 q 659 690 615 675 q 706 706 703 706 q 733 676 733 706 q 723 631 733 674 q 713 583 713 588 q 718 568 713 574 q 764 507 750 536 q 793 354 793 446 m 747 354 q 738 443 747 403 q 713 525 728 471 q 704 575 711 546 q 647 629 688 597 q 600 661 606 661 l 538 661 q 492 665 535 661 q 447 668 449 668 q 294 647 346 668 q 100 354 100 569 q 126 217 100 306 q 140 167 132 200 q 158 124 143 151 q 208 81 194 90 q 254 51 240 54 q 404 42 307 42 q 713 204 632 42 q 747 354 747 274 m 553 454 q 514 406 553 436 q 465 360 489 386 q 400 283 433 321 q 328 214 340 214 q 304 231 314 214 q 296 253 296 243 q 315 285 296 272 q 393 357 349 307 q 458 435 425 396 q 486 469 472 453 q 522 493 507 493 q 553 454 553 493 z "},"":{"ha":797,"x_min":57,"x_max":746,"o":"m 542 638 q 538 568 542 586 q 486 518 526 522 q 418 517 471 517 q 351 518 388 517 q 321 533 339 518 q 301 561 303 547 q 299 638 299 582 l 299 701 q 324 741 299 724 q 372 757 349 758 q 463 757 372 757 q 536 713 519 757 q 542 638 542 694 m 519 354 q 471 238 519 296 q 357 154 422 181 l 349 154 q 346 161 346 157 q 390 219 346 172 q 433 301 433 267 q 396 347 433 347 q 350 331 379 347 q 317 315 321 315 l 304 315 q 301 325 301 317 q 315 379 301 340 q 435 425 332 425 q 519 354 519 425 m 746 17 q 699 -98 746 -28 q 601 -194 651 -168 q 575 -210 593 -200 q 396 -246 490 -246 q 172 -186 265 -246 q 57 29 57 -111 q 253 275 57 188 l 264 272 q 214 214 247 244 q 167 167 171 171 q 108 24 108 100 q 133 -69 108 -25 q 393 -199 206 -199 q 633 -100 540 -199 q 658 -44 658 -74 q 615 4 658 4 q 571 -9 597 4 q 535 -22 544 -22 q 519 -1 519 -22 q 535 46 519 21 q 651 79 556 79 q 746 17 746 79 m 475 635 q 458 673 475 654 q 418 692 440 692 q 381 674 399 692 q 364 635 364 657 q 380 597 364 615 q 418 578 396 578 q 456 595 438 578 q 475 635 475 613 z "},"":{"ha":411,"x_min":86,"x_max":325,"o":"m 325 629 q 319 550 325 567 q 250 507 306 507 l 164 507 q 86 581 86 507 l 86 675 q 139 746 86 740 q 247 749 163 749 q 321 704 306 749 q 325 629 325 690 m 318 -160 q 282 -231 318 -215 q 208 -239 265 -239 q 133 -231 153 -239 q 94 -161 94 -215 l 104 -54 l 104 4 q 119 103 104 -4 q 132 228 122 144 q 142 332 136 279 q 207 410 157 410 q 272 339 261 410 q 281 282 276 319 q 290 143 285 192 q 303 57 293 115 q 311 3 311 4 l 311 -85 q 315 -122 311 -87 q 318 -160 318 -156 m 260 628 q 244 665 260 649 q 207 681 229 681 q 169 665 183 681 q 154 628 154 650 q 169 589 154 606 q 207 572 183 572 q 244 589 229 572 q 260 628 260 606 m 276 -58 q 263 83 276 8 q 207 189 242 189 q 151 67 168 189 q 140 -60 140 -4 q 151 -121 140 -92 q 208 -167 169 -167 q 263 -124 243 -167 q 276 -58 276 -92 z "},"":{"ha":833,"x_min":69,"x_max":769,"o":"m 764 250 q 671 168 769 168 q 582 251 582 168 q 588 300 582 271 q 607 339 596 339 q 632 311 614 339 q 671 283 650 283 q 718 417 718 283 q 642 558 718 525 q 597 569 617 569 l 299 569 q 185 524 185 569 q 218 488 185 501 q 271 478 243 478 l 425 478 q 481 461 458 478 q 444 443 479 451 l 235 440 q 184 435 218 440 q 149 431 150 431 q 69 524 69 431 q 151 615 69 615 l 251 606 l 611 606 q 647 609 614 606 q 685 613 681 613 q 764 539 764 613 q 759 474 764 536 q 754 410 754 413 l 764 250 z "},"":{"ha":875,"x_min":89,"x_max":789,"o":"m 789 947 q 696 854 789 854 q 665 868 667 854 q 660 913 663 882 q 615 943 658 943 q 549 921 593 943 q 464 819 493 886 q 426 708 444 764 q 407 675 424 697 q 397 697 397 679 q 407 781 397 710 q 510 964 424 906 q 572 992 536 982 q 708 1014 656 1014 q 789 947 789 1014 m 707 518 q 685 463 707 482 q 632 444 663 444 q 588 472 588 444 q 596 522 588 486 q 610 561 604 557 q 644 576 622 576 q 707 518 707 576 m 333 547 q 323 496 333 533 q 308 454 313 458 q 275 442 296 442 q 211 501 211 442 q 233 555 211 533 q 286 576 254 576 q 333 547 333 576 m 344 289 q 339 240 344 269 q 299 54 328 176 q 282 31 294 40 q 274 47 274 36 q 285 119 274 57 q 303 224 293 171 q 333 317 315 283 q 344 289 344 315 m 524 318 q 507 208 524 290 q 494 139 503 188 q 471 6 483 72 q 432 -121 456 -75 q 346 -208 400 -182 q 261 -233 318 -222 q 168 -244 204 -244 q 89 -176 89 -244 q 179 -85 89 -85 q 210 -117 210 -85 q 210 -126 210 -119 q 210 -135 210 -132 q 258 -176 210 -176 q 348 -137 300 -176 q 415 -44 396 -99 q 454 100 435 10 q 481 247 468 174 q 515 343 492 304 q 524 318 524 338 z "},"":{"ha":617,"x_min":69,"x_max":554,"o":"m 554 213 q 514 150 554 150 q 376 246 472 150 q 350 297 356 267 q 344 371 344 326 q 348 400 344 369 q 350 444 351 431 q 417 534 349 476 q 514 592 485 592 q 554 529 554 592 q 512 435 554 478 q 469 371 469 392 q 493 326 469 349 q 539 276 531 290 q 554 213 554 254 m 281 529 q 238 439 281 485 q 196 372 196 393 q 237 305 196 346 q 278 214 278 264 q 238 150 278 150 q 157 194 210 150 q 92 258 115 229 q 69 369 69 286 q 79 460 69 399 q 147 539 83 486 q 238 592 211 592 q 281 529 281 592 z "},"":{"ha":617,"x_min":61,"x_max":546,"o":"m 546 374 q 538 290 546 342 q 469 204 532 258 q 378 150 406 150 q 336 214 336 150 q 378 307 336 264 q 421 374 421 350 q 378 438 421 394 q 336 529 336 482 q 379 593 336 593 q 444 560 404 593 q 506 507 475 533 q 535 463 521 494 q 546 374 546 438 m 271 372 q 260 283 271 321 q 190 203 251 257 q 101 150 128 150 q 61 213 61 150 q 103 308 61 264 q 146 372 146 351 q 103 438 146 394 q 61 531 61 482 q 103 593 61 593 q 201 531 133 593 q 265 447 268 469 q 267 401 264 433 q 271 372 271 369 z "},"":{"ha":1389,"x_min":111,"x_max":1279,"o":"m 1279 128 q 1274 53 1279 69 q 1203 8 1258 8 l 1119 8 q 1047 53 1063 8 q 1042 129 1042 71 q 1043 189 1042 181 q 1090 244 1050 233 q 1161 249 1106 249 q 1261 228 1243 249 q 1279 128 1279 208 m 814 128 q 808 53 814 69 q 738 8 793 8 l 654 8 q 582 53 597 8 q 576 128 576 69 q 583 208 576 190 q 650 247 597 243 q 696 249 667 249 q 796 228 778 249 q 814 128 814 208 m 349 129 q 342 50 349 69 q 271 8 326 8 l 189 8 q 117 53 132 8 q 111 129 111 71 q 118 208 111 190 q 183 247 132 243 q 231 249 201 249 q 331 231 314 249 q 349 129 349 213 m 1214 129 q 1199 165 1214 149 q 1161 181 1183 181 q 1125 165 1140 181 q 1110 128 1110 150 q 1124 92 1110 108 q 1161 76 1139 76 q 1196 92 1178 76 q 1214 129 1214 107 m 749 128 q 733 165 749 149 q 696 181 718 181 q 658 165 675 181 q 642 129 642 149 q 658 94 642 113 q 696 76 674 76 q 731 92 713 76 q 749 128 749 107 m 283 128 q 267 165 283 149 q 231 181 250 181 q 194 164 211 181 q 176 128 176 147 q 194 93 176 110 q 231 76 211 76 q 265 92 247 76 q 283 128 283 107 z "},"":{"ha":438,"x_min":0,"x_max":0,"o":""},"":{"ha":978,"x_min":18,"x_max":964,"o":"m 565 1110 q 547 1077 565 1089 q 507 1065 529 1065 q 439 1085 465 1065 q 314 1221 314 1179 q 399 1256 314 1256 q 467 1249 436 1256 q 528 1190 492 1243 q 565 1110 565 1136 m 606 488 l 600 482 q 588 492 597 482 q 574 526 583 497 q 565 567 565 556 l 572 574 q 589 560 582 571 q 606 511 606 532 l 606 488 m 964 47 q 888 -6 964 -8 l 793 -3 q 732 28 754 -1 q 713 92 713 53 q 724 117 713 117 q 767 90 731 117 q 828 63 803 63 q 869 88 854 63 q 882 132 882 107 q 854 231 882 153 q 731 563 813 342 q 665 732 706 624 q 642 799 642 799 q 603 871 624 842 q 551 918 585 896 q 493 940 517 940 q 403 893 453 940 q 343 810 358 850 q 169 346 285 656 q 149 289 163 326 q 119 214 135 251 q 100 132 100 160 q 113 88 100 108 q 153 63 126 63 q 210 90 172 63 q 254 117 249 117 q 267 94 267 117 q 249 35 267 64 q 186 -3 225 -1 l 96 -6 q 18 47 18 -8 q 39 110 18 71 q 74 181 68 167 q 318 835 196 503 q 347 928 333 881 q 425 981 372 981 q 458 977 428 981 q 493 974 489 974 q 523 976 494 974 q 554 979 551 979 q 649 879 625 979 q 732 650 649 878 q 849 333 764 561 q 896 208 865 290 q 926 140 907 178 q 964 47 964 67 m 411 560 q 382 482 411 519 q 371 496 371 488 q 383 543 371 514 q 406 576 396 572 q 411 560 411 565 m 585 201 q 488 183 582 183 q 394 199 418 183 q 489 224 407 224 q 585 201 563 224 z "},"":{"ha":978,"x_min":18,"x_max":965,"o":"m 726 1199 q 692 1133 726 1167 q 623 1094 657 1099 q 583 1090 589 1090 q 485 1110 544 1090 q 403 1129 426 1129 q 343 1110 376 1129 q 293 1090 310 1090 q 254 1129 254 1090 q 297 1203 254 1163 q 371 1246 339 1244 q 387 1247 375 1246 q 401 1249 399 1249 q 497 1227 438 1249 q 585 1206 556 1206 q 642 1221 607 1206 q 688 1236 676 1236 q 726 1199 726 1236 m 607 494 q 599 489 601 489 q 567 568 582 489 q 572 582 567 576 q 589 565 581 579 q 607 518 607 533 l 607 494 m 965 53 q 888 1 965 -1 l 792 4 q 729 40 751 6 q 711 101 711 68 q 725 124 711 124 q 766 97 731 124 q 826 69 801 69 q 881 140 881 69 q 847 263 881 176 q 808 365 810 358 q 799 386 806 371 q 760 492 796 394 q 669 732 731 568 q 614 863 653 781 q 556 917 593 894 q 492 940 519 940 q 415 911 456 940 q 356 842 374 882 q 274 628 328 771 q 101 140 101 183 q 153 72 101 72 q 213 98 182 72 q 256 124 244 124 q 268 104 264 124 q 249 40 268 69 q 185 4 225 6 l 96 1 q 18 54 18 -1 q 26 93 18 74 q 67 172 42 121 q 108 278 81 201 q 213 561 143 372 q 346 935 257 674 q 431 988 361 988 q 462 985 433 988 q 492 982 490 982 q 522 985 494 982 q 551 988 549 988 q 625 950 601 988 q 660 853 639 928 q 703 725 672 807 q 753 596 728 661 q 792 494 767 560 l 819 419 q 882 256 878 267 q 954 94 919 163 q 965 53 965 74 m 411 569 q 401 525 411 556 q 381 486 390 494 q 372 506 372 489 q 403 582 372 554 q 411 569 411 574 m 586 207 q 488 189 565 189 q 393 204 417 189 q 489 229 404 229 q 586 207 569 229 z "},"":{"ha":1081,"x_min":61,"x_max":1019,"o":"m 775 1190 q 768 1161 775 1174 q 632 1083 724 1083 q 535 1102 594 1083 q 451 1121 475 1121 q 392 1102 425 1121 q 343 1083 360 1083 q 306 1122 306 1083 q 341 1192 306 1154 q 418 1238 376 1231 q 451 1242 442 1242 q 547 1220 488 1242 q 635 1199 606 1199 q 691 1214 658 1199 q 738 1229 724 1229 q 775 1190 775 1229 m 1019 490 q 899 131 1019 272 q 543 -21 768 -21 q 185 128 315 -21 q 61 489 61 268 q 118 753 61 638 q 351 961 193 901 q 525 994 440 994 q 747 956 657 994 q 963 746 892 893 q 1019 490 1019 629 m 979 488 q 701 928 979 815 q 558 958 624 958 q 224 828 346 958 q 101 489 101 699 q 210 164 101 292 q 538 25 329 25 q 865 160 746 25 q 979 488 979 286 z "},"":{"ha":1543,"x_min":51,"x_max":1479,"o":"m 1469 892 q 1389 797 1469 792 l 1261 807 l 1124 807 q 1099 813 1115 807 q 1082 822 1083 818 q 1089 832 1085 829 q 1182 844 1111 844 l 1297 844 q 1341 858 1318 844 q 1364 890 1364 871 q 1251 940 1364 939 l 963 943 q 874 940 915 943 q 834 935 863 939 q 803 932 806 932 q 767 949 767 932 q 842 979 767 979 l 1274 976 l 1389 986 q 1469 892 1469 993 m 1428 507 q 1344 417 1428 410 l 1238 425 l 1118 425 q 1079 440 1089 425 q 1099 453 1081 446 q 1125 461 1117 461 l 1210 461 q 1314 508 1314 461 q 1226 553 1314 553 l 1138 553 q 1104 560 1125 553 q 1079 572 1083 567 q 1088 582 1079 578 q 1131 590 1115 590 l 1244 590 l 1346 600 q 1428 507 1428 600 m 788 492 q 775 417 788 449 q 767 422 769 417 q 761 492 761 469 q 767 567 761 519 q 776 564 775 567 q 788 492 788 531 m 1479 101 q 1467 26 1479 47 q 1399 0 1449 0 q 1321 7 1383 0 l 836 4 q 797 10 821 4 q 767 33 767 19 q 803 51 767 51 q 835 48 806 51 q 881 43 865 44 q 974 40 922 40 l 1297 42 q 1358 54 1331 42 q 1392 101 1392 71 q 1356 147 1392 131 q 1292 160 1326 160 l 1139 160 q 1086 178 1100 160 q 1132 193 1104 193 l 1290 193 l 1399 201 q 1468 175 1450 206 q 1479 101 1479 154 m 660 951 q 635 939 660 940 q 569 947 632 939 q 503 956 506 956 q 301 897 396 956 q 139 714 194 833 q 90 494 90 610 q 196 178 90 311 q 503 31 313 31 q 581 38 553 31 q 633 44 610 44 q 660 36 650 44 l 660 29 q 617 -1 660 14 q 511 -17 575 -17 q 167 146 297 -17 q 51 492 51 292 q 168 839 51 693 q 513 1003 297 1003 q 576 996 544 1003 q 660 951 660 978 z "},"":{"ha":1338,"x_min":49,"x_max":1294,"o":"m 1294 375 q 1219 308 1294 308 q 1185 310 1218 308 q 1150 313 1153 313 l 1032 304 l 849 304 q 781 363 781 304 q 839 426 781 426 l 1047 426 q 1088 394 1057 426 q 1150 363 1118 363 q 1208 390 1186 363 q 1226 444 1226 414 q 1182 556 1226 494 q 1074 624 1131 624 q 1048 610 1050 624 q 1035 574 1046 597 q 929 590 926 590 q 842 570 893 590 q 793 550 790 550 q 780 562 785 550 q 764 596 775 574 q 740 616 763 599 q 718 642 718 633 q 756 685 718 660 q 796 707 782 703 q 870 729 844 724 q 932 735 896 735 q 1119 683 1036 735 q 1261 503 1218 624 q 1294 375 1294 408 m 1258 157 q 1208 76 1258 118 q 932 -21 1092 -21 q 793 3 849 -21 q 718 65 718 35 q 724 78 718 75 q 760 90 731 82 q 788 107 783 96 q 792 142 789 108 q 799 156 793 150 q 856 138 796 156 q 939 122 906 122 q 1051 163 1000 122 q 1178 204 1101 204 q 1258 157 1258 204 m 618 650 q 596 640 611 640 q 533 654 599 640 q 396 668 467 668 q 168 569 251 668 q 92 346 92 481 q 163 139 92 224 q 368 44 240 44 q 492 60 401 44 q 581 75 582 75 q 610 65 601 75 q 603 50 610 57 q 404 -17 549 -17 q 145 86 242 -17 q 49 347 49 189 q 150 622 49 515 q 421 729 251 729 q 542 711 488 729 q 618 650 607 690 z "},"":{"ha":694,"x_min":3,"x_max":694,"o":"m 694 376 q 613 285 694 285 q 576 288 610 285 q 540 292 543 292 l 164 292 l 85 285 q 3 378 3 285 q 88 468 3 468 l 167 461 l 540 461 q 576 465 543 461 q 613 468 608 468 q 679 443 660 468 q 694 376 694 424 m 579 378 q 553 410 579 397 q 510 419 532 419 l 190 419 q 147 410 168 419 q 121 378 121 397 q 143 346 121 358 q 181 335 161 335 l 518 335 q 554 346 535 335 q 579 378 579 358 z "},"":{"ha":1389,"x_min":-3,"x_max":1396,"o":"m 1396 379 q 1314 288 1396 288 q 1278 291 1311 288 q 1243 294 1246 294 l 150 294 q 115 291 147 294 q 79 288 83 288 q -3 379 -3 288 q 79 471 -3 471 q 115 467 82 471 q 151 464 149 464 l 1313 471 q 1396 379 1396 471 m 1282 381 q 1254 413 1282 400 q 1213 422 1232 422 l 181 422 q 139 413 160 422 q 113 379 113 400 q 136 349 113 363 q 174 338 156 338 l 1219 338 q 1256 347 1236 338 q 1282 381 1282 361 z "},"":{"ha":694,"x_min":83,"x_max":618,"o":"m 615 575 q 514 492 618 492 q 414 547 422 492 q 415 604 415 539 l 415 679 q 413 706 415 682 q 410 733 410 731 q 496 925 410 854 q 564 958 536 958 q 606 919 606 958 q 568 856 606 899 q 531 782 531 814 q 569 731 531 747 q 613 675 607 714 l 615 575 m 288 574 q 257 504 289 522 q 186 492 235 492 q 93 525 111 492 q 83 557 83 550 l 83 758 q 88 781 83 760 q 141 899 92 839 q 236 958 190 958 q 279 919 279 958 q 242 858 279 897 q 206 782 206 818 q 242 730 206 747 q 286 672 279 713 l 288 574 m 551 628 q 539 665 551 640 q 510 689 526 689 q 478 672 490 689 q 467 638 467 656 q 480 601 467 621 q 513 582 493 582 q 540 598 529 582 q 551 628 551 614 m 225 628 q 214 663 225 642 q 181 689 200 689 q 151 671 163 689 q 140 638 140 653 q 151 603 140 618 q 186 583 165 583 q 213 597 201 583 q 225 628 225 610 z "},"":{"ha":694,"x_min":83,"x_max":617,"o":"m 617 754 q 594 642 617 707 q 539 563 582 603 q 463 524 496 524 q 421 563 421 524 q 458 625 421 583 q 494 697 494 667 q 456 751 494 731 q 414 814 417 771 q 411 907 411 867 q 513 989 411 989 q 613 932 604 989 q 611 878 611 940 l 611 801 q 614 778 611 799 q 617 754 617 757 m 286 717 q 283 703 286 715 q 281 686 281 690 q 232 583 278 639 q 135 524 182 524 q 94 561 94 524 q 131 625 94 583 q 167 699 167 667 q 129 750 167 731 q 86 808 92 769 l 85 904 q 115 975 83 957 q 186 989 138 989 q 260 974 239 989 q 276 953 267 969 q 286 929 286 936 l 286 717 m 560 844 q 547 878 560 860 q 514 897 533 897 q 485 883 496 897 q 475 854 475 869 q 486 818 475 839 q 517 792 500 792 q 549 813 535 792 q 560 844 560 829 m 233 843 q 220 879 233 861 q 186 897 207 897 q 160 883 171 897 q 149 854 149 868 q 160 818 149 840 q 192 792 174 792 q 224 811 210 792 q 233 843 233 828 z "},"":{"ha":411,"x_min":106,"x_max":307,"o":"m 307 604 q 293 517 307 538 q 207 490 274 490 q 113 526 131 490 q 106 551 106 540 l 106 767 q 149 879 106 813 q 257 957 200 957 q 299 918 299 957 q 262 855 299 897 q 225 781 225 813 q 249 738 225 751 q 293 706 285 717 q 304 680 301 694 q 307 604 307 665 m 244 628 q 235 661 244 642 q 203 686 221 686 q 172 670 183 686 q 161 636 161 654 q 174 599 161 615 q 207 582 188 582 q 244 628 244 582 z "},"":{"ha":411,"x_min":101,"x_max":308,"o":"m 308 718 q 306 708 308 715 q 304 697 304 701 q 256 586 304 649 q 154 519 204 519 q 113 557 113 519 q 149 619 113 578 q 185 694 185 660 q 153 744 185 731 q 106 803 115 760 l 103 900 q 131 971 101 951 q 206 985 153 985 q 303 944 293 985 q 306 936 303 943 q 308 925 308 929 l 308 718 m 251 839 q 238 876 251 857 q 206 896 225 896 q 178 879 189 896 q 167 850 167 863 q 176 815 167 836 q 208 788 189 788 q 251 839 251 788 z "},"":{"ha":833,"x_min":68,"x_max":765,"o":"m 542 643 q 506 554 542 592 q 418 517 469 517 q 328 554 365 517 q 292 643 292 592 q 330 731 292 694 q 417 767 368 767 q 506 731 469 767 q 542 643 542 696 m 765 349 q 682 258 765 258 l 482 276 q 478 285 482 281 q 544 301 488 293 q 600 308 572 304 q 650 350 650 319 q 547 394 650 394 q 513 399 531 397 q 478 414 490 403 q 517 426 488 424 q 681 439 667 439 q 747 417 729 439 q 765 349 765 396 m 356 285 q 326 272 350 281 q 153 258 185 258 q 68 349 68 258 q 153 439 68 439 q 215 433 154 439 q 319 426 285 429 q 356 418 333 425 q 350 407 356 410 q 286 394 329 403 q 183 350 183 394 q 233 308 183 319 q 290 301 263 304 q 356 285 314 300 m 542 56 q 504 -32 542 3 q 418 -67 467 -67 q 329 -31 367 -67 q 292 57 292 6 q 329 144 292 108 q 418 181 367 181 q 506 142 469 181 q 542 56 542 104 m 461 640 q 417 686 461 686 q 386 673 399 686 q 374 642 374 660 q 417 594 374 594 q 461 640 461 594 m 461 58 q 417 106 461 106 q 385 90 399 106 q 372 58 372 74 q 386 27 372 42 q 417 13 400 13 q 461 58 461 13 z "},"":{"ha":746,"x_min":22,"x_max":729,"o":"m 625 914 q 528 831 625 831 q 429 914 429 831 q 528 996 429 996 q 625 914 625 996 m 324 914 q 225 831 324 831 q 129 914 129 831 q 226 996 129 996 q 324 914 324 996 m 729 664 q 710 604 729 644 q 682 547 696 575 q 474 -22 614 357 q 443 -107 458 -65 q 375 -196 419 -164 q 304 -228 343 -219 q 146 -242 239 -242 q 65 -157 65 -242 q 143 -68 65 -68 q 185 -87 185 -68 q 178 -113 185 -90 q 171 -139 171 -136 q 232 -187 171 -187 q 288 -176 257 -187 q 435 -31 381 -142 q 500 146 467 57 q 515 194 506 161 q 564 336 535 253 q 607 446 585 390 q 646 575 646 549 q 604 633 646 633 q 514 513 557 633 q 496 450 504 482 q 461 386 483 413 q 453 407 453 389 q 464 461 453 424 q 497 586 488 540 q 504 632 501 608 q 522 681 511 665 q 563 710 539 704 q 647 718 599 718 q 729 664 729 718 m 306 394 l 299 389 q 269 438 281 406 q 251 493 260 465 q 224 572 238 533 q 150 638 193 638 q 106 578 106 638 q 132 482 106 557 q 242 178 174 381 q 256 125 256 126 q 250 111 256 122 q 238 121 243 111 q 140 358 217 160 q 90 503 125 404 q 50 589 82 525 q 22 665 22 644 q 99 718 22 718 q 208 706 183 718 q 257 618 242 689 q 272 543 261 594 q 306 425 306 413 l 306 394 z "},"":{"ha":926,"x_min":18,"x_max":913,"o":"m 713 1171 q 615 1090 713 1090 q 517 1171 517 1090 q 617 1253 517 1253 q 713 1171 713 1253 m 411 1171 q 314 1090 411 1090 q 215 1171 215 1090 q 315 1253 215 1253 q 411 1171 411 1253 m 913 946 q 890 890 913 922 q 851 839 871 864 q 735 646 810 779 q 613 443 656 508 q 599 433 604 435 q 593 443 593 436 q 701 647 593 465 q 808 868 808 828 q 758 925 808 925 q 704 904 735 925 q 622 794 665 878 q 558 694 578 711 q 550 704 550 697 q 563 743 550 722 q 640 918 593 804 q 672 965 649 943 q 718 986 696 986 l 782 986 q 810 989 783 986 q 839 992 836 992 q 913 946 913 992 m 378 696 q 372 693 378 693 q 338 735 360 693 q 292 824 315 778 q 221 906 260 882 q 169 925 189 925 q 133 906 146 925 q 119 867 119 888 q 156 775 119 844 q 247 621 201 697 q 336 451 322 492 l 333 433 q 264 526 317 442 q 156 713 251 546 q 38 890 94 817 q 18 944 18 915 q 92 992 18 992 q 119 989 93 992 q 147 986 144 986 l 210 986 q 242 976 221 986 q 271 951 264 965 q 378 713 378 731 l 378 696 m 585 78 q 496 1 585 1 l 433 1 q 346 79 340 1 l 354 193 l 354 261 q 368 310 354 289 q 385 244 385 293 l 385 183 q 403 115 385 151 q 464 67 426 67 q 533 142 514 67 q 543 238 544 186 q 553 304 543 253 q 561 310 556 304 q 576 226 576 288 l 576 164 q 581 122 576 161 q 585 78 585 82 z "},"":{"ha":875,"x_min":75,"x_max":790,"o":"m 757 756 q 726 676 757 719 q 674 721 707 688 q 619 774 625 768 q 661 794 626 781 q 708 808 696 808 q 757 756 757 808 m 790 482 q 733 321 790 356 q 725 353 725 325 q 732 417 725 356 q 739 482 739 479 q 731 551 739 485 q 722 619 722 617 q 731 650 722 636 q 790 482 790 611 m 617 779 q 550 765 606 763 l 435 771 l 319 765 q 251 776 275 763 q 433 843 304 843 q 617 779 543 843 m 504 701 q 489 693 496 693 q 462 695 486 693 q 435 697 438 697 q 368 690 421 697 q 363 699 363 696 q 396 719 363 710 q 432 728 422 728 q 504 701 478 728 m 760 208 q 708 158 760 158 q 624 190 674 158 q 675 245 631 203 q 722 288 719 288 q 749 250 735 288 q 760 208 760 218 m 240 768 q 192 722 238 767 q 142 678 147 678 q 103 758 124 678 q 120 793 103 778 q 157 808 138 808 q 199 797 174 808 q 240 776 219 786 l 240 768 m 501 274 q 475 249 503 258 q 433 239 453 239 q 367 265 392 239 q 379 274 369 274 q 405 272 381 274 q 433 269 429 269 l 501 274 m 611 188 q 435 124 557 124 q 257 182 321 124 q 261 190 257 186 q 336 199 272 197 l 549 201 q 611 188 593 201 m 143 347 q 136 317 143 326 q 75 483 75 349 q 89 575 75 529 q 133 647 106 632 q 142 611 142 639 l 126 482 l 143 347 m 247 190 q 163 154 199 154 q 111 204 111 154 q 122 246 111 214 q 146 283 135 283 q 247 190 147 283 z "},"":{"ha":335,"x_min":68,"x_max":276,"o":"m 276 215 q 235 151 276 151 q 106 239 207 151 q 84 270 96 247 q 71 306 72 293 q 68 374 68 331 q 75 456 68 424 q 146 542 82 489 q 235 594 210 594 q 276 531 276 594 q 234 440 276 483 q 192 374 192 396 q 234 308 192 354 q 276 215 276 261 z "},"":{"ha":335,"x_min":61,"x_max":271,"o":"m 271 375 q 264 288 271 336 q 196 208 261 264 q 103 153 131 153 q 61 215 61 153 q 103 310 61 267 q 146 375 146 354 q 103 441 146 397 q 61 533 61 485 q 104 596 61 596 q 194 542 131 596 q 264 463 258 488 q 271 375 271 433 z "},"":{"ha":875,"x_min":72,"x_max":801,"o":"m 543 911 q 521 819 543 844 q 488 867 514 824 q 439 906 465 906 q 392 872 414 906 q 364 821 378 846 l 356 821 q 333 913 333 838 q 368 979 333 961 q 439 990 389 990 q 543 911 543 990 m 801 624 q 721 532 801 532 q 674 538 700 532 q 638 558 638 546 q 663 584 638 565 q 689 624 689 603 q 663 663 689 644 q 638 689 638 681 q 674 710 638 701 q 722 715 700 715 q 801 624 801 715 m 531 372 q 521 325 531 335 q 506 372 506 335 q 518 419 506 410 q 531 372 531 408 m 801 119 q 724 28 801 28 q 679 35 710 28 q 638 54 638 43 q 665 81 638 63 q 692 119 692 99 q 663 158 692 136 q 635 185 635 179 q 672 204 635 197 q 724 210 701 210 q 801 119 801 210 m 239 558 q 154 532 239 536 q 72 624 72 532 q 153 715 72 715 q 199 710 168 715 q 239 689 239 701 q 212 663 239 682 q 185 624 185 644 q 212 583 185 603 q 239 558 239 564 m 371 371 q 358 325 371 335 q 346 372 346 329 q 358 417 346 408 q 371 371 371 408 m 543 -169 q 506 -237 543 -222 q 439 -244 489 -244 q 368 -236 386 -244 q 333 -169 333 -221 q 340 -117 333 -150 q 356 -78 347 -85 l 364 -78 q 392 -129 378 -104 q 439 -162 410 -162 q 485 -129 465 -162 q 515 -75 500 -103 q 525 -81 522 -75 q 543 -169 543 -107 m 242 56 q 154 28 225 28 q 72 119 72 28 q 154 210 72 210 q 242 185 233 210 q 203 151 233 175 q 185 119 185 136 q 207 85 185 101 q 242 56 238 63 z "},"":{"ha":438,"x_min":107,"x_max":339,"o":"m 339 397 q 303 317 339 353 q 224 281 268 281 q 141 316 175 281 q 107 397 107 351 q 142 479 107 446 q 224 513 176 513 q 306 478 272 513 q 339 397 339 443 m 243 397 q 224 417 243 417 q 203 397 203 417 q 224 376 203 376 q 243 397 243 376 z "},"":{"ha":411,"x_min":104,"x_max":307,"o":"m 307 -21 q 305 -29 307 -22 q 304 -40 303 -36 q 256 -147 304 -83 q 154 -215 203 -215 q 127 -203 139 -215 q 115 -175 115 -190 q 151 -112 115 -156 q 188 -37 188 -69 q 154 11 188 -6 q 107 68 117 29 l 106 167 q 133 238 104 219 q 207 251 156 251 q 279 238 253 251 q 298 216 289 232 q 307 192 307 200 l 307 -21 m 251 107 q 242 139 251 122 q 207 161 228 161 q 180 147 190 161 q 169 118 169 132 q 179 82 169 103 q 210 56 193 56 q 238 72 225 56 q 251 107 251 88 z "},"":{"ha":694,"x_min":85,"x_max":618,"o":"m 618 17 q 597 -86 618 -32 q 529 -183 572 -150 q 464 -211 493 -211 q 424 -174 424 -211 q 460 -110 424 -150 q 496 -36 496 -71 q 468 11 496 -3 q 423 45 432 28 q 414 138 414 63 q 428 226 414 207 q 515 253 447 253 q 581 244 567 253 q 618 176 618 222 q 615 142 618 165 q 613 108 613 119 q 615 55 613 92 q 618 17 618 18 m 289 -19 q 285 -37 289 -21 q 230 -156 276 -97 q 136 -214 183 -214 q 96 -174 96 -214 q 133 -110 96 -150 q 169 -36 169 -71 q 128 16 169 -3 q 86 79 88 35 q 85 172 85 111 q 188 253 85 253 q 238 250 226 253 q 281 217 265 243 q 289 190 289 201 l 289 -19 m 560 108 q 549 144 560 124 q 517 164 538 164 q 478 118 478 164 q 489 83 478 106 q 519 57 501 57 q 549 74 538 57 q 560 108 560 90 m 235 110 q 222 144 235 124 q 189 164 208 164 q 161 149 172 164 q 150 119 150 135 q 161 85 150 106 q 193 57 174 57 q 222 75 208 57 q 235 110 235 93 z "},"":{"ha":1621,"x_min":99,"x_max":1515,"o":"m 1515 215 q 1474 54 1515 117 q 1318 -22 1424 -22 q 1163 54 1213 -22 q 1124 208 1124 114 q 1164 371 1124 310 q 1321 447 1215 447 q 1515 215 1515 447 m 1040 213 q 999 53 1040 115 q 843 -24 946 -24 q 689 50 739 -24 q 646 208 646 110 q 689 368 646 307 q 846 444 740 444 q 1040 213 1040 444 m 878 954 q 800 783 878 924 q 715 628 742 678 q 651 508 693 589 q 542 308 614 442 q 457 150 514 249 q 397 35 426 93 q 311 -36 356 -36 q 267 7 267 -36 q 278 46 267 28 q 357 196 304 96 q 432 338 382 243 q 768 957 536 535 q 799 984 776 971 q 835 997 821 997 q 878 954 878 997 m 494 743 q 450 582 494 644 q 293 506 397 506 q 139 582 189 506 q 99 739 99 642 q 142 900 99 838 q 299 976 193 976 q 453 900 403 976 q 494 743 494 839 m 1392 217 q 1319 347 1392 347 q 1247 210 1247 347 q 1317 78 1247 78 q 1379 136 1360 78 q 1392 217 1392 172 m 1144 150 l 1144 265 l 1140 265 l 1140 150 l 1144 150 m 914 215 q 844 346 914 346 q 772 208 772 346 q 843 75 772 75 q 914 215 914 75 m 368 744 q 358 819 368 785 q 297 878 340 878 q 235 815 253 878 q 224 738 224 779 q 294 607 224 607 q 368 744 368 607 z "},"":{"ha":978,"x_min":17,"x_max":963,"o":"m 692 1113 q 674 1081 692 1093 q 635 1069 656 1069 q 550 1108 593 1069 q 489 1146 507 1146 q 428 1108 471 1146 q 344 1069 386 1069 q 288 1113 288 1069 q 329 1194 288 1140 q 401 1256 371 1247 q 442 1263 413 1258 q 489 1263 442 1263 q 583 1253 546 1263 q 649 1192 607 1247 q 692 1113 692 1136 m 607 489 l 601 483 q 587 497 590 490 q 574 531 583 503 q 565 568 565 558 q 571 581 565 575 q 583 572 578 581 q 607 511 607 528 l 607 489 m 963 51 q 892 -3 963 -3 q 867 -1 890 -3 q 842 1 844 1 l 783 1 q 728 39 749 1 q 711 97 711 68 q 724 122 711 122 q 767 94 728 122 q 828 65 806 65 q 881 138 881 65 q 856 236 881 168 q 822 319 839 278 q 781 433 815 340 q 725 581 761 485 q 650 774 700 646 q 618 851 642 800 q 560 915 596 889 q 490 940 524 940 q 408 907 450 940 q 349 828 367 874 q 244 546 314 733 q 188 397 224 494 q 143 283 178 379 q 99 138 99 165 q 111 93 99 114 q 153 68 126 68 q 210 95 175 68 q 254 122 246 122 q 267 99 267 122 q 218 10 267 29 q 89 -3 186 -3 q 17 51 17 -3 q 38 113 17 69 q 72 182 69 174 q 285 747 132 332 q 329 878 301 788 q 363 960 343 936 q 428 985 383 985 q 460 983 431 985 q 492 981 489 981 q 522 983 493 981 q 553 985 550 985 q 638 928 614 985 q 667 825 651 876 q 717 693 681 790 q 756 585 729 656 q 792 490 769 551 q 832 385 806 454 l 894 213 q 954 88 915 171 q 963 51 963 68 m 413 568 q 401 524 413 556 q 381 485 390 493 l 372 485 q 369 500 369 493 q 404 583 369 551 q 413 568 413 575 m 586 208 q 488 188 578 188 q 392 206 399 188 q 415 222 397 217 q 490 229 439 229 q 586 208 565 229 z "},"":{"ha":951,"x_min":92,"x_max":889,"o":"m 675 1113 q 618 1071 675 1071 q 535 1107 574 1071 q 475 1143 496 1143 q 414 1107 456 1143 q 329 1071 372 1071 q 272 1111 272 1071 q 317 1194 272 1139 q 389 1254 361 1250 q 396 1257 392 1256 q 406 1260 400 1258 q 475 1263 426 1263 q 563 1253 536 1263 q 644 1175 604 1236 q 665 1145 656 1160 q 675 1113 675 1131 m 878 893 q 796 797 878 797 l 690 807 l 479 807 q 440 819 453 807 q 447 832 438 825 q 493 842 472 842 l 681 842 q 740 853 713 842 q 776 893 776 868 q 731 942 776 922 q 678 960 704 951 q 685 968 678 965 q 797 986 767 986 q 878 893 878 986 m 581 963 q 578 958 581 961 q 478 947 535 947 q 381 960 421 947 q 389 968 381 964 q 474 976 422 976 q 515 974 475 976 q 575 969 554 971 l 581 963 m 828 508 q 747 417 828 411 l 633 425 l 476 425 q 432 440 451 425 q 507 465 449 465 l 640 465 q 686 475 663 465 q 715 508 715 489 q 650 550 715 542 l 490 553 q 435 569 474 556 l 435 578 q 503 593 453 593 l 668 593 q 708 597 672 593 q 747 600 744 600 q 828 508 828 600 m 889 101 q 811 0 889 -6 l 647 11 l 254 8 l 168 0 q 92 76 92 0 l 100 169 l 100 817 l 92 911 q 167 986 92 986 q 258 967 214 986 q 253 956 258 958 q 166 899 199 940 q 133 813 133 858 l 133 172 q 138 151 133 172 q 279 42 160 42 l 694 42 q 761 54 731 42 q 801 101 801 72 q 671 163 801 163 l 483 163 q 442 176 460 163 q 447 186 442 183 q 488 194 469 194 l 718 194 l 811 204 q 878 171 861 204 q 889 101 889 150 z "},"":{"ha":978,"x_min":19,"x_max":965,"o":"m 653 1224 q 599 1146 653 1197 q 526 1087 554 1103 q 463 1071 499 1071 q 403 1114 403 1071 q 421 1164 403 1135 q 492 1247 460 1228 q 571 1263 518 1263 q 653 1224 653 1263 m 610 500 q 604 485 610 493 q 568 553 592 489 l 571 583 q 590 565 585 581 q 610 500 610 519 m 965 50 q 893 -3 965 -3 q 856 -1 890 -3 q 819 0 822 0 q 771 4 806 0 q 726 44 744 7 q 711 99 711 74 q 725 119 711 119 q 769 92 733 119 q 828 65 804 65 q 869 89 854 65 q 883 136 883 108 q 831 304 883 165 q 781 433 804 375 q 743 535 779 436 q 660 756 692 674 q 624 843 629 832 q 544 925 593 900 q 490 946 504 946 q 428 922 463 946 q 378 874 394 899 q 331 775 353 835 q 294 674 313 725 q 193 407 261 585 q 101 136 101 167 q 154 68 101 68 q 213 94 179 68 q 254 119 247 119 q 269 99 268 119 q 241 26 269 53 q 164 0 213 0 q 107 -1 129 0 q 89 -3 85 -3 q 19 50 19 -3 q 39 113 19 72 q 72 181 71 178 q 232 606 83 208 q 324 853 265 688 q 357 947 350 938 q 428 983 378 983 q 459 980 431 983 q 490 976 488 976 q 523 980 493 976 q 556 983 553 983 q 626 946 604 983 q 660 853 631 938 q 900 203 736 625 q 939 124 903 194 q 965 50 965 74 m 413 565 q 379 482 413 513 q 369 497 369 485 q 383 544 369 511 q 407 581 396 576 l 411 578 q 413 565 413 575 m 589 208 q 492 188 582 188 q 393 203 424 188 q 490 228 404 228 q 589 208 561 228 z "},"":{"ha":951,"x_min":90,"x_max":890,"o":"m 724 1169 q 626 1086 724 1086 q 528 1169 528 1086 q 625 1251 528 1251 q 724 1169 724 1251 m 422 1169 q 326 1086 422 1086 q 226 1169 226 1086 q 325 1251 226 1251 q 422 1169 422 1251 m 829 508 q 747 417 829 411 l 635 425 l 478 425 q 435 438 460 425 l 435 446 q 467 459 439 453 q 508 465 494 465 l 642 465 q 686 475 664 465 q 714 508 714 488 q 650 550 714 540 l 492 553 q 435 572 456 553 q 501 593 442 593 l 671 593 q 707 597 672 593 q 746 600 742 600 q 829 508 829 600 m 890 101 q 878 29 890 51 q 811 0 861 -3 l 647 11 l 254 8 l 165 0 q 90 78 90 0 l 100 179 l 100 806 l 90 910 q 165 986 90 986 q 215 980 169 986 q 264 974 261 974 l 656 974 q 728 981 660 974 q 799 988 796 988 q 879 893 879 988 q 796 797 879 797 l 688 807 l 478 807 q 456 813 472 807 q 439 822 440 818 q 446 832 442 828 q 494 842 472 842 l 678 842 q 729 850 703 842 q 775 893 775 864 q 696 946 775 936 q 608 947 689 946 l 319 950 q 250 947 269 950 q 131 782 131 926 l 131 200 q 167 86 131 131 q 275 42 204 42 l 694 42 q 760 54 728 42 q 801 100 801 72 q 672 163 801 163 l 483 163 q 442 176 456 163 q 447 186 442 183 q 488 194 469 194 l 715 194 l 811 204 q 881 169 863 204 q 890 101 890 147 z "},"":{"ha":951,"x_min":94,"x_max":892,"o":"m 553 1115 q 494 1072 553 1072 q 440 1084 467 1072 q 363 1144 414 1096 q 301 1226 301 1200 q 383 1265 301 1265 q 456 1254 400 1265 q 516 1195 479 1250 q 553 1115 553 1140 m 881 896 q 799 799 881 799 l 692 808 l 482 808 q 460 814 476 808 q 443 824 444 819 q 458 836 446 833 q 499 843 483 843 l 682 843 q 779 894 779 843 q 717 942 779 931 q 649 947 682 944 q 568 958 622 951 q 561 963 563 960 q 565 969 563 967 q 801 989 744 989 q 881 896 881 989 m 833 510 q 751 418 833 413 l 638 426 l 482 426 q 439 439 464 426 l 439 447 q 510 467 454 467 l 643 467 q 689 478 667 467 q 718 511 718 490 q 653 551 718 544 l 496 554 q 438 574 460 554 q 506 594 446 594 l 672 594 q 710 598 675 594 q 750 601 746 601 q 833 510 833 601 m 892 103 q 881 31 892 51 q 815 1 864 -1 l 651 13 l 258 10 l 168 1 q 94 79 94 1 l 104 181 l 104 807 l 94 911 q 172 988 94 993 l 296 978 l 367 978 q 449 969 393 978 q 457 964 454 967 q 444 957 454 960 q 335 947 383 947 l 272 947 q 246 943 265 947 q 135 789 135 919 l 135 200 q 279 43 135 43 l 697 43 q 765 56 733 43 q 806 103 806 72 q 676 164 806 164 l 486 164 q 446 178 460 164 q 450 189 446 181 q 492 196 482 196 l 719 196 l 815 206 q 881 174 865 206 q 892 103 892 154 z "},"":{"ha":438,"x_min":93,"x_max":381,"o":"m 381 1224 q 326 1146 381 1197 q 256 1088 282 1103 q 192 1069 224 1069 q 131 1115 131 1069 q 154 1171 131 1128 q 213 1244 183 1225 q 300 1263 243 1263 q 381 1224 381 1263 m 338 76 q 299 6 342 19 q 218 0 283 0 q 135 7 151 0 q 99 78 94 21 l 107 193 l 107 796 l 99 908 q 175 986 93 986 q 208 983 190 986 q 237 984 215 982 q 258 986 258 986 q 338 910 343 986 l 329 803 l 329 182 l 338 76 m 299 233 l 296 810 q 276 881 296 843 q 217 926 253 926 q 156 875 178 926 q 138 792 138 835 l 138 192 q 154 117 138 153 q 219 65 176 65 q 290 147 271 65 q 299 233 294 190 z "},"":{"ha":438,"x_min":18,"x_max":424,"o":"m 424 1111 q 365 1071 424 1071 q 281 1107 321 1071 q 219 1143 242 1143 q 158 1107 197 1143 q 76 1071 119 1071 q 18 1111 18 1071 q 67 1200 18 1142 q 149 1258 115 1258 q 165 1263 156 1260 q 221 1263 165 1263 q 307 1256 289 1263 q 346 1232 321 1249 q 392 1176 364 1214 q 424 1111 424 1131 m 339 78 q 299 6 339 19 q 218 0 282 0 q 142 6 158 0 q 99 76 99 21 l 108 163 l 108 822 l 99 911 q 142 981 99 967 q 218 986 157 986 q 299 981 282 986 q 339 908 339 967 l 329 808 l 329 178 l 339 78 m 299 190 l 299 794 q 283 869 299 831 q 218 922 260 922 q 161 882 185 922 q 142 817 142 847 l 142 165 q 163 103 142 136 q 219 65 188 65 q 283 119 261 65 q 299 190 299 157 z "},"":{"ha":438,"x_min":-26,"x_max":472,"o":"m 472 1169 q 371 1088 472 1088 q 275 1169 275 1088 q 372 1253 275 1253 q 472 1169 472 1253 m 168 1171 q 69 1088 168 1088 q -26 1171 -26 1088 q 71 1253 -26 1253 q 168 1171 168 1253 m 340 76 q 294 6 340 21 q 218 0 276 0 q 136 7 154 0 q 97 78 97 22 l 107 178 l 107 808 l 97 911 q 138 982 97 969 q 219 986 151 986 q 294 983 282 986 q 340 913 340 969 l 328 774 l 331 163 l 340 76 m 300 207 l 300 783 q 283 872 300 832 q 219 924 261 924 q 156 875 179 924 q 138 807 138 838 l 138 181 q 157 111 138 147 q 219 67 182 67 q 283 118 261 67 q 300 207 300 157 z "},"":{"ha":438,"x_min":44,"x_max":342,"o":"m 296 1114 q 236 1069 296 1069 q 172 1088 203 1069 q 103 1144 149 1101 q 44 1225 44 1199 q 126 1263 44 1263 q 192 1256 174 1263 q 260 1191 225 1242 q 296 1114 296 1140 m 338 79 q 300 6 342 21 q 218 0 283 0 q 140 6 158 0 q 99 75 94 21 l 110 222 l 110 772 l 99 911 q 140 981 94 967 q 219 985 156 985 q 301 979 286 985 q 338 908 342 964 l 329 785 l 329 200 l 338 79 m 296 175 l 296 808 q 279 876 296 842 q 218 924 257 924 q 158 878 182 924 q 140 810 140 842 l 140 178 q 158 111 140 147 q 218 65 181 65 q 276 110 253 65 q 296 175 296 144 z "},"":{"ha":1081,"x_min":63,"x_max":1022,"o":"m 706 1221 q 692 1190 706 1208 q 561 1075 618 1097 q 513 1065 538 1065 q 453 1111 453 1065 q 481 1177 453 1125 q 549 1247 510 1229 q 622 1260 575 1260 q 706 1221 706 1260 m 1022 489 q 897 129 1022 268 q 542 -18 765 -18 q 186 132 317 -18 q 63 489 63 271 q 110 726 63 618 q 292 936 168 865 q 418 978 364 978 q 442 969 432 978 q 385 933 436 953 q 164 739 239 878 q 103 490 103 626 q 217 161 103 289 q 542 25 338 25 q 869 164 750 25 q 981 490 981 292 q 946 688 981 576 q 862 823 926 751 q 736 915 797 894 q 664 943 713 925 q 632 953 640 950 q 592 976 617 960 q 626 988 600 988 q 765 950 686 988 q 971 738 904 883 q 1022 489 1022 625 z "},"":{"ha":1081,"x_min":64,"x_max":1021,"o":"m 743 1106 q 685 1065 743 1065 q 603 1101 643 1065 q 542 1138 564 1138 q 483 1101 524 1138 q 399 1065 443 1065 q 339 1106 339 1065 q 390 1195 339 1133 q 463 1251 440 1257 q 471 1253 464 1253 q 488 1257 478 1254 q 543 1257 488 1257 q 635 1247 599 1257 q 702 1185 661 1240 q 743 1106 743 1131 m 1021 488 q 899 129 1021 268 q 542 -21 768 -21 q 186 129 318 -21 q 64 488 64 269 q 163 817 64 682 q 449 978 268 963 q 495 983 451 978 q 542 989 539 989 q 635 978 536 989 q 940 793 838 954 q 1021 488 1021 665 m 981 488 q 753 907 981 783 q 649 955 681 946 q 558 964 618 964 q 497 961 564 964 q 433 956 474 961 q 174 760 258 897 q 103 488 103 643 q 214 161 103 290 q 542 22 335 22 q 869 160 749 22 q 981 488 981 288 z "},"":{"ha":1081,"x_min":60,"x_max":1018,"o":"m 613 1106 q 554 1060 613 1060 q 501 1072 538 1060 q 426 1132 482 1079 q 364 1215 364 1190 q 444 1254 364 1254 q 508 1247 475 1254 q 574 1189 536 1242 q 613 1106 613 1136 m 1018 485 q 893 124 1018 263 q 538 -24 761 -24 q 256 58 372 -24 q 71 354 118 156 q 60 485 60 400 q 124 759 60 631 q 319 947 188 888 q 446 979 390 979 q 479 972 468 979 q 431 943 476 960 q 376 925 413 938 q 157 731 228 868 q 100 485 100 622 q 213 156 100 283 q 538 19 332 19 q 865 158 744 19 q 978 485 978 286 q 915 733 978 621 q 689 931 840 871 q 635 964 675 936 q 660 972 639 972 q 789 931 715 972 q 971 722 911 861 q 1018 485 1018 613 z "},"":{"ha":1029,"x_min":90,"x_max":947,"o":"m 682 1215 q 626 1136 682 1189 q 556 1079 582 1094 q 490 1061 524 1061 q 432 1106 432 1061 q 453 1160 432 1124 q 525 1240 488 1221 q 600 1254 550 1254 q 682 1215 682 1254 m 947 903 l 938 818 l 938 319 q 910 194 938 275 q 519 -24 835 -24 q 106 276 147 -24 q 100 407 100 317 l 100 792 l 90 900 q 182 976 90 986 q 222 976 194 975 q 250 979 254 979 q 331 901 331 979 l 321 797 l 319 392 q 315 376 318 388 q 311 361 313 365 q 303 364 308 361 q 290 432 296 393 l 289 800 q 269 868 292 829 q 211 914 244 914 q 143 856 164 914 q 131 783 131 821 l 131 451 q 133 427 131 450 q 135 392 135 404 q 518 17 144 17 q 892 300 850 17 q 904 425 904 383 l 904 801 q 886 868 904 833 q 826 914 863 914 q 800 906 817 914 q 747 783 747 881 l 747 439 q 732 365 747 393 q 725 371 726 367 q 717 431 717 407 l 717 804 q 712 852 717 807 q 707 900 707 897 q 797 976 707 979 q 837 978 808 976 q 867 979 865 979 q 947 903 947 979 z "},"":{"ha":1029,"x_min":88,"x_max":944,"o":"m 721 1106 q 664 1065 721 1065 q 581 1101 619 1065 q 519 1138 542 1138 q 457 1101 499 1138 q 374 1065 415 1065 q 317 1106 317 1065 q 329 1142 317 1125 q 432 1250 386 1235 q 518 1257 453 1257 q 610 1247 586 1257 q 693 1165 653 1231 q 721 1106 721 1121 m 944 903 l 935 793 l 938 388 q 832 74 939 174 q 518 -21 729 -21 q 118 224 186 -21 q 97 339 97 297 l 97 824 l 88 907 q 131 975 88 961 q 208 981 146 981 q 288 975 271 981 q 331 906 335 961 l 318 746 l 318 397 q 311 367 318 392 q 301 372 304 363 q 293 400 297 382 q 288 475 288 440 l 288 790 q 271 871 288 835 q 210 917 249 917 q 147 871 171 917 q 131 800 131 835 l 131 428 q 136 356 131 432 q 518 19 161 19 q 890 304 849 19 q 904 428 904 400 l 904 804 q 885 876 904 842 q 825 917 861 917 q 776 890 796 917 q 750 831 756 863 q 744 758 744 799 l 744 428 q 729 371 744 396 q 717 421 717 383 l 717 788 l 707 903 q 743 975 701 961 q 825 981 758 981 q 907 975 892 981 q 944 903 944 961 z "},"":{"ha":1029,"x_min":86,"x_max":943,"o":"m 592 1107 q 533 1063 592 1063 q 468 1079 501 1063 q 400 1136 450 1089 q 340 1217 340 1192 q 422 1254 340 1254 q 488 1247 460 1254 q 554 1186 517 1240 q 592 1107 592 1132 m 943 901 l 933 808 l 933 317 q 910 206 933 285 q 514 -24 842 -24 q 121 204 192 -24 q 96 336 96 285 l 96 821 l 86 904 q 139 976 86 968 q 247 979 157 979 q 326 901 326 979 l 317 790 l 317 436 q 307 363 317 385 q 293 383 296 365 q 286 454 286 421 l 286 761 q 239 901 286 867 q 207 914 222 914 q 146 867 169 914 q 128 797 128 829 l 128 421 q 130 402 128 418 q 132 378 132 386 q 515 17 149 17 q 893 339 869 17 q 899 397 894 356 q 903 438 903 435 l 903 797 q 885 865 903 829 q 822 914 861 914 q 777 891 799 914 q 749 838 756 868 q 743 756 743 807 l 743 422 q 728 361 743 389 q 719 367 722 361 q 713 428 713 413 l 713 797 l 703 901 q 793 978 703 985 q 863 979 775 979 q 943 901 943 979 z "},"":{"ha":411,"x_min":4,"x_max":408,"o":"m 408 842 q 350 801 408 801 q 267 838 306 801 q 206 874 228 874 q 144 838 183 874 q 61 801 106 801 q 4 842 4 801 q 51 929 4 872 q 129 988 99 986 q 142 990 133 989 q 206 994 161 994 q 234 992 206 994 q 281 989 263 989 q 360 928 313 989 q 408 842 408 867 z "},"":{"ha":411,"x_min":-29,"x_max":442,"o":"m 442 931 q 408 867 442 900 q 342 828 375 833 q 300 822 310 822 q 204 842 272 822 q 118 863 136 863 q 58 842 94 863 q 8 822 21 822 q -19 836 -10 822 q -29 863 -29 850 q -15 903 -29 881 q 118 981 32 981 q 219 959 164 981 q 301 938 274 938 q 359 954 328 938 q 406 971 390 971 q 442 931 442 971 z "},"":{"ha":411,"x_min":-1,"x_max":422,"o":"m 422 899 q 400 860 422 876 q 360 844 378 844 l 61 844 q 18 862 38 844 q -1 899 -1 879 q 22 938 -1 924 q 72 953 46 953 l 347 953 q 396 940 374 953 q 422 899 422 924 z "},"":{"ha":411,"x_min":115,"x_max":379,"o":"m 379 -203 q 326 -299 379 -265 q 228 -324 285 -324 q 168 -317 200 -324 q 115 -283 115 -306 q 150 -267 115 -271 q 214 -256 199 -261 q 249 -204 249 -240 q 202 -150 249 -169 q 156 -103 156 -131 q 169 -69 156 -86 q 200 -53 182 -53 q 233 -72 213 -53 q 269 -93 254 -90 q 379 -203 379 -118 z "},"":{"ha":926,"x_min":43,"x_max":885,"o":"m 667 1221 q 622 1140 667 1194 q 547 1076 576 1086 q 465 1065 514 1065 q 397 1071 471 1065 q 311 1135 360 1074 q 264 1222 264 1192 q 321 1264 264 1264 q 406 1226 364 1264 q 465 1189 447 1189 q 525 1226 483 1189 q 608 1264 567 1264 q 667 1221 667 1264 m 850 764 q 771 706 850 703 l 690 708 q 628 732 657 710 q 600 782 600 754 q 614 796 600 796 q 656 784 622 796 q 706 772 689 772 q 751 818 751 772 q 671 914 751 868 q 563 972 617 943 q 583 986 564 986 q 756 911 661 986 q 850 764 850 836 m 535 410 q 525 404 531 404 q 388 435 499 404 q 267 469 292 460 q 71 715 71 542 q 114 856 71 790 q 256 965 163 931 q 343 986 313 986 q 367 978 354 986 q 340 954 364 965 q 295 934 315 943 q 242 907 275 925 q 122 718 122 831 q 188 569 122 629 q 335 488 239 522 q 485 439 410 463 q 535 410 506 432 m 885 304 q 739 46 885 126 q 465 -12 632 -12 q 304 6 382 -12 q 138 90 210 28 q 75 172 107 117 q 43 258 43 228 q 121 319 43 321 l 213 318 q 270 291 246 318 q 294 235 294 264 q 283 219 294 219 q 242 237 279 219 q 182 254 204 254 q 132 201 132 254 q 186 114 132 157 q 465 33 288 33 q 604 46 538 33 q 776 139 713 67 q 838 297 838 207 q 669 517 838 440 q 429 603 550 560 q 424 617 422 610 l 446 617 q 550 594 460 617 q 790 500 719 553 q 885 304 885 432 z "},"":{"ha":772,"x_min":57,"x_max":728,"o":"m 589 967 q 540 878 589 936 q 461 818 490 819 q 388 813 376 813 q 301 822 326 813 q 210 911 251 842 q 183 967 183 954 q 202 998 183 986 q 242 1010 221 1010 q 325 972 283 1010 q 389 935 367 935 q 449 972 406 935 q 532 1010 492 1010 q 589 967 589 1010 m 728 228 q 603 32 728 100 q 390 -18 507 -18 q 206 15 294 -18 q 106 78 150 36 q 57 169 57 125 q 144 226 57 226 q 246 199 217 226 q 286 149 265 174 q 393 121 317 121 q 430 124 396 121 q 468 128 464 128 q 500 103 488 128 q 546 78 513 78 q 636 129 600 78 q 668 221 668 174 q 608 338 668 290 q 490 379 554 379 q 431 364 446 379 q 444 332 432 351 q 454 301 456 313 q 426 294 449 294 q 297 319 417 294 q 125 383 178 344 q 61 521 61 431 q 185 699 61 642 q 385 738 269 738 q 414 735 386 738 q 456 733 442 733 q 606 686 528 732 q 692 574 692 635 q 607 518 692 518 q 531 533 556 518 q 457 588 493 560 q 422 599 453 590 q 406 603 407 603 l 326 603 q 294 628 315 603 q 243 653 272 653 q 153 608 190 653 q 121 522 121 568 q 186 408 121 451 q 299 372 239 372 q 356 388 335 372 q 343 417 354 393 q 338 444 335 433 q 360 453 346 453 q 469 432 372 453 q 600 401 572 411 q 694 333 660 381 q 728 228 728 286 m 250 103 q 236 122 250 114 q 211 129 222 129 q 192 114 192 129 q 228 88 192 88 q 250 103 250 88 z "},"":{"ha":308,"x_min":64,"x_max":247,"o":"m 247 714 q 156 633 247 633 q 64 714 64 633 l 75 822 l 64 931 q 157 1013 64 1013 q 247 932 247 1013 l 238 822 l 247 714 m 247 57 q 156 -25 247 -25 q 64 57 64 -25 l 75 167 l 64 275 q 156 356 64 356 q 247 275 247 356 l 238 167 l 247 57 m 199 822 q 156 897 199 897 q 114 822 114 897 q 121 781 114 801 q 157 746 133 746 q 199 822 199 746 m 199 167 q 157 243 199 243 q 121 210 133 243 q 114 167 114 188 q 121 125 114 146 q 157 90 133 90 q 199 167 199 90 z "},"":{"ha":1054,"x_min":-17,"x_max":1001,"o":"m 1001 497 q 700 24 1001 114 q 585 1 625 1 l 256 1 l 164 -8 q 86 69 86 -8 q 91 124 86 68 q 96 208 96 181 q 99 264 97 225 q 108 296 99 274 q 124 271 119 293 q 139 118 124 215 q 190 57 151 82 q 258 35 225 35 l 494 35 q 564 40 507 35 q 878 199 778 61 q 960 496 960 313 q 871 796 960 682 q 538 947 763 933 q 489 951 521 949 l 340 954 q 192 932 231 956 q 126 767 126 894 q 114 724 126 739 q 104 729 107 726 q 96 826 96 761 q 91 881 96 844 q 86 918 86 918 q 165 994 86 1001 l 282 985 l 517 988 q 875 858 749 990 q 1001 497 1001 726 m 563 508 q 485 415 563 415 q 446 421 469 415 q 414 443 414 429 q 435 470 414 447 q 456 508 456 493 q 435 548 456 525 q 414 576 414 571 q 483 601 414 601 q 563 508 563 601 m 526 181 q 489 168 521 168 q 465 172 474 168 q 472 183 465 176 l 526 181 m 67 447 q 44 419 67 419 q -17 510 -17 419 q 44 600 -17 600 q 67 571 67 600 q 62 540 67 568 q 57 510 57 513 q 62 479 57 507 q 67 447 67 451 z "},"":{"ha":849,"x_min":49,"x_max":801,"o":"m 690 1039 q 660 993 690 1013 q 576 943 579 943 q 527 968 563 943 q 492 1006 492 993 q 538 1049 492 1019 q 594 1078 572 1069 q 633 1088 617 1088 q 672 1074 653 1088 q 690 1039 690 1060 m 415 1022 q 376 1006 415 1007 q 340 997 354 1003 q 303 971 325 990 q 272 951 282 951 q 233 971 253 951 q 214 1007 214 990 q 258 1063 214 1039 q 318 1082 293 1082 q 377 1062 339 1082 q 415 1022 415 1042 m 363 853 q 268 779 363 821 q 231 771 239 771 q 194 782 211 771 q 174 817 174 794 q 224 878 174 842 q 286 910 268 910 q 332 889 301 910 q 363 853 363 868 m 801 392 q 697 94 801 206 q 425 -18 592 -18 q 163 78 271 -18 q 49 338 49 179 q 142 584 49 481 q 363 688 236 688 q 421 665 421 688 q 403 644 421 656 q 374 638 388 639 q 165 533 242 628 q 97 338 97 449 q 125 211 97 267 q 415 46 208 46 q 522 54 481 46 q 710 196 647 79 q 758 401 758 285 q 742 535 758 457 q 711 640 728 603 q 661 740 683 706 q 604 840 604 828 q 611 853 604 853 l 618 853 q 658 818 632 853 q 768 600 733 721 q 801 392 801 486 z "},"":{"ha":926,"x_min":18,"x_max":910,"o":"m 625 1225 q 568 1142 625 1196 q 490 1083 519 1096 q 435 1071 461 1071 q 375 1115 375 1071 q 403 1178 375 1131 q 467 1250 435 1232 q 543 1263 492 1263 q 625 1225 625 1263 m 910 942 q 867 854 910 914 q 821 793 844 824 q 700 589 781 725 q 656 508 678 549 q 596 425 626 458 q 589 436 589 429 q 621 510 589 451 q 799 822 682 614 q 808 865 808 840 q 794 905 808 886 q 758 924 781 924 q 711 907 736 924 q 626 803 661 874 q 558 689 585 718 q 547 699 547 689 q 565 747 547 708 q 635 904 590 794 q 672 965 647 942 q 703 981 686 978 q 735 986 719 983 l 833 988 q 910 942 910 989 m 378 694 l 372 689 q 353 706 364 692 q 285 831 318 768 q 168 924 228 924 q 132 903 144 924 q 119 864 119 883 q 135 811 119 839 q 239 625 204 686 q 300 521 269 574 q 338 431 332 463 q 332 428 338 428 q 307 454 326 428 q 222 596 294 471 q 108 789 179 671 q 50 871 107 792 q 18 942 18 915 q 93 988 18 989 l 193 986 q 247 971 211 985 q 297 893 269 954 q 378 707 378 714 l 378 694 m 582 78 q 544 6 586 21 q 464 0 528 0 q 381 7 399 0 q 344 78 340 22 l 354 203 l 354 264 q 364 303 354 274 q 382 264 378 297 q 390 144 383 225 q 416 92 394 118 q 464 65 438 65 q 528 117 506 65 q 543 192 543 153 l 543 253 q 557 307 543 279 q 568 297 564 310 q 574 263 574 253 l 574 192 l 582 78 z "},"":{"ha":746,"x_min":25,"x_max":732,"o":"m 540 969 q 488 893 540 944 q 415 832 449 856 q 350 813 388 813 q 289 857 289 813 q 332 944 289 888 q 408 1004 375 1001 q 436 1007 415 1004 q 460 1010 457 1010 q 540 969 540 1010 m 732 664 q 706 586 732 638 q 674 519 675 522 q 599 306 647 436 q 518 93 531 126 q 485 1 510 71 q 458 -78 472 -37 q 413 -164 439 -132 q 311 -226 372 -212 q 151 -244 228 -244 q 68 -158 68 -244 q 146 -69 68 -69 q 186 -82 176 -69 q 179 -115 185 -92 q 174 -142 174 -139 q 236 -187 174 -187 q 432 -40 361 -187 q 522 204 458 15 q 563 322 536 244 q 607 435 585 379 q 649 575 649 546 q 608 632 649 632 q 524 531 557 632 q 501 454 513 493 q 467 386 486 410 q 456 404 456 392 q 467 457 456 413 q 481 503 469 467 q 496 560 492 540 q 510 633 503 597 q 540 696 518 675 q 640 717 563 717 q 732 664 732 717 m 310 404 q 301 389 310 397 q 264 463 289 399 q 231 568 247 515 q 154 636 203 636 q 110 578 110 636 q 184 353 110 546 q 258 129 258 160 l 258 114 q 250 110 258 114 q 203 204 233 131 q 165 303 192 236 q 138 383 156 333 q 36 622 85 531 q 25 664 25 643 q 114 717 25 717 q 204 708 183 717 q 250 656 238 696 q 264 593 257 625 q 310 404 310 396 z "},"":{"ha":951,"x_min":94,"x_max":911,"o":"m 911 540 q 810 281 911 358 q 550 214 724 214 q 436 229 454 214 q 482 250 440 244 q 651 264 542 251 q 819 368 763 285 q 867 532 867 438 q 825 685 867 619 q 675 792 775 765 q 565 808 635 803 q 456 819 486 814 q 440 829 450 819 q 454 842 447 840 q 564 849 482 849 q 807 781 718 849 q 911 540 911 700 m 521 693 q 483 682 515 682 q 451 685 460 682 l 446 690 q 481 703 450 703 q 521 693 506 703 m 535 365 q 483 347 531 347 q 439 361 453 347 q 486 376 447 376 q 529 371 501 376 l 535 365 m 318 514 l 313 508 q 304 528 304 511 q 310 547 304 538 q 318 543 314 547 l 318 514 m 335 69 q 288 4 335 18 q 215 0 272 0 q 138 6 154 0 q 94 75 94 19 l 104 168 l 104 817 l 94 910 q 136 981 94 967 q 214 986 151 986 q 285 983 272 986 q 331 926 331 972 q 308 894 331 894 q 269 910 303 894 q 222 925 235 925 q 157 878 181 925 q 138 808 138 842 l 138 176 q 157 108 138 143 q 217 65 179 65 q 273 96 243 65 q 310 126 303 126 q 329 103 321 126 q 335 69 335 85 z "},"":{"ha":875,"x_min":81,"x_max":817,"o":"m 817 342 q 749 103 817 200 q 518 -14 667 -14 q 410 10 457 -14 q 342 108 343 42 q 338 132 342 114 q 333 153 333 150 q 350 165 333 165 q 401 151 346 165 q 492 128 435 147 q 486 106 490 122 q 482 86 482 89 q 549 43 482 43 q 631 65 586 43 q 743 192 706 103 q 774 349 774 264 q 718 564 774 471 q 547 671 654 671 q 482 633 482 671 q 492 592 482 646 q 486 588 490 592 q 481 583 482 585 q 346 547 331 547 q 336 561 336 547 q 356 658 336 613 q 426 714 369 693 q 517 733 474 733 q 756 594 676 733 q 817 342 817 488 m 300 -167 q 264 -236 300 -219 q 193 -244 244 -244 q 115 -235 136 -244 q 85 -165 81 -218 l 93 -60 l 85 913 q 115 982 81 965 q 193 992 136 992 q 267 981 246 992 q 300 913 300 964 q 290 814 300 892 q 279 785 289 797 q 268 792 282 785 q 247 861 258 826 q 192 914 226 914 q 160 899 171 914 q 124 781 124 865 l 124 -36 q 138 -118 124 -82 q 192 -167 156 -167 q 243 -126 222 -167 q 274 -65 258 -96 l 281 -65 q 300 -167 300 -87 z "},"":{"ha":833,"x_min":71,"x_max":768,"o":"m 768 350 q 683 261 768 261 q 647 265 681 261 q 611 268 614 268 l 557 268 l 290 271 l 156 261 q 89 279 107 257 q 71 351 71 301 q 154 442 71 447 l 276 433 l 561 433 l 683 442 q 768 350 768 447 m 651 351 q 550 397 651 397 l 286 397 q 183 350 183 397 q 217 315 183 329 q 268 306 243 306 l 571 306 q 621 315 597 306 q 651 351 651 329 z "},"":{"ha":833,"x_min":108,"x_max":724,"o":"m 724 551 q 703 506 724 529 q 657 465 690 492 q 603 432 617 432 q 593 442 593 432 q 605 475 593 444 q 617 517 617 506 q 585 550 617 550 q 547 538 581 550 q 511 526 514 526 q 500 532 503 526 l 500 539 q 519 571 500 543 q 619 656 579 656 q 688 618 651 656 q 724 551 724 581 m 724 144 q 685 78 724 115 q 621 42 647 42 q 542 97 586 42 q 500 161 511 138 l 500 168 q 511 174 503 174 q 542 162 518 174 q 583 150 567 150 q 615 182 615 150 q 604 223 615 196 q 593 254 593 250 q 603 265 593 265 q 643 242 607 265 q 724 144 724 188 m 332 538 q 321 526 332 526 q 291 537 317 526 q 249 547 265 547 q 217 515 217 547 q 227 476 217 497 q 238 453 238 456 l 238 435 q 231 432 232 432 q 124 513 204 432 q 108 553 108 538 q 145 619 108 583 q 213 656 182 656 q 251 642 233 656 q 301 588 269 628 q 332 538 332 547 m 335 163 q 314 128 335 156 q 213 42 249 42 q 145 81 182 42 q 108 146 108 119 q 147 210 108 175 q 213 260 179 235 q 233 268 217 263 q 239 256 239 257 q 227 217 239 251 q 215 181 215 183 q 249 147 215 147 q 290 159 268 147 q 315 171 313 171 l 332 171 q 333 168 332 169 q 335 163 335 167 z "},"":{"ha":525,"x_min":90,"x_max":396,"o":"m 396 449 q 388 425 396 442 q 317 389 369 389 q 238 485 235 389 l 240 579 q 246 638 243 608 q 272 681 251 681 q 287 677 275 681 q 303 674 299 674 q 339 721 326 674 q 346 774 346 750 q 281 858 346 858 q 233 825 244 858 q 222 764 228 793 q 169 735 217 735 q 117 749 139 735 q 90 792 90 764 q 118 840 90 819 q 172 859 133 851 q 225 876 210 867 q 259 923 232 882 q 329 964 286 964 q 374 944 353 964 q 396 904 396 925 l 396 449 z "},"":{"ha":525,"x_min":22,"x_max":517,"o":"m 517 792 q 344 592 517 682 q 261 556 276 556 l 196 556 q 172 547 186 556 q 136 496 136 525 q 189 447 136 447 q 240 467 214 447 q 292 500 278 494 q 383 508 311 508 q 457 504 439 508 q 506 449 506 492 q 372 386 506 378 l 186 397 l 100 389 q 50 401 71 389 q 25 444 25 418 q 93 557 25 496 q 210 646 110 572 q 293 701 251 674 q 376 796 376 763 q 329 838 376 821 q 276 850 296 850 q 183 794 221 850 q 96 739 144 739 q 22 800 22 739 q 89 915 22 861 q 219 974 151 967 q 274 976 247 976 q 429 939 363 976 q 517 792 517 889 z "},"":{"ha":525,"x_min":22,"x_max":542,"o":"m 528 814 q 510 754 528 786 q 469 722 493 722 q 444 780 450 722 q 401 838 439 838 q 389 838 400 838 q 375 836 378 836 q 333 842 372 836 q 292 847 294 847 q 206 812 249 847 q 119 776 163 776 q 47 831 47 776 q 75 894 47 864 q 286 975 150 975 q 436 944 371 975 q 528 814 528 903 m 386 629 q 365 622 376 622 q 299 636 333 622 q 253 685 253 654 q 289 732 253 714 q 342 746 317 746 q 381 694 372 746 q 386 629 383 661 m 542 556 q 443 407 542 456 q 282 372 372 372 q 153 392 215 372 q 64 446 101 407 q 22 529 22 486 q 96 589 22 589 q 189 543 146 589 q 285 497 232 497 q 374 522 321 497 q 409 533 394 532 q 425 535 424 535 q 438 543 435 538 q 444 578 447 558 q 443 624 444 644 q 472 664 446 664 q 508 642 488 664 q 535 601 529 619 q 542 556 542 567 z "},"":{"ha":1313,"x_min":29,"x_max":1293,"o":"m 1293 401 q 1257 301 1293 344 q 1156 221 1221 258 q 1054 168 1150 217 q 1017 163 1040 163 q 1006 164 1015 163 q 993 165 997 165 q 942 151 965 165 q 911 103 911 135 q 963 57 911 57 q 1022 82 986 57 q 1076 113 1057 107 q 1154 117 1092 117 q 1238 111 1206 117 q 1267 90 1254 108 q 1281 56 1281 72 q 1143 -4 1281 -12 l 960 7 l 875 -1 q 801 54 801 -1 q 832 129 801 90 q 993 258 875 183 q 1133 372 1104 331 q 1151 406 1151 399 q 1117 440 1151 422 q 1072 457 1088 456 q 1060 458 1068 457 q 1050 460 1053 460 q 958 404 996 460 q 869 349 921 349 q 822 363 843 349 q 796 408 796 381 q 814 467 796 436 q 1047 586 885 586 q 1208 547 1140 586 q 1293 401 1293 499 m 908 958 q 869 865 908 936 q 825 785 847 825 q 747 642 799 736 q 682 521 706 564 q 393 1 590 346 q 332 -35 371 -35 q 300 -22 315 -35 q 285 8 285 -8 q 374 189 285 25 q 453 336 400 239 q 521 460 489 401 q 801 965 683 760 q 849 997 814 988 q 863 999 854 999 q 908 958 908 999 m 335 479 q 254 392 335 392 q 175 486 172 392 l 178 586 q 181 628 178 601 q 186 660 183 643 q 210 683 192 683 q 224 681 213 683 q 238 679 235 679 q 283 776 283 679 q 217 860 283 860 q 169 818 179 860 q 156 753 163 786 q 107 738 147 738 q 29 794 29 738 q 86 854 29 835 q 161 879 124 867 q 199 929 163 881 q 267 965 225 965 q 333 878 333 965 q 326 811 333 874 q 325 768 324 788 l 331 665 l 331 553 q 333 517 331 550 q 335 479 335 483 z "},"":{"ha":1313,"x_min":44,"x_max":1275,"o":"m 1190 490 q 1181 329 1190 432 q 1165 304 1175 304 q 1147 319 1156 304 q 1139 343 1139 335 l 1139 422 q 1119 467 1139 446 q 1078 488 1099 488 q 1033 463 1049 488 q 1004 394 1026 439 q 950 338 978 367 q 908 265 908 292 q 968 232 908 235 q 1018 208 1007 231 q 1024 161 1024 196 q 1022 130 1024 139 q 1008 121 1019 121 q 944 118 953 118 l 822 121 q 750 199 750 122 q 768 264 750 238 q 1021 547 882 426 q 1106 569 1047 569 q 1190 490 1190 569 m 1275 175 q 1249 136 1275 150 q 1193 101 1200 107 q 1188 49 1192 85 q 1111 -4 1181 -4 q 1035 67 1035 -4 q 1060 99 1035 99 q 1084 95 1063 99 q 1110 92 1106 92 q 1178 115 1167 92 q 1182 181 1182 124 q 1189 225 1182 196 q 1210 236 1193 236 q 1253 218 1232 236 q 1275 175 1275 200 m 946 954 q 863 782 946 935 q 435 6 724 522 q 403 -24 426 -10 q 368 -37 381 -37 q 322 6 322 -37 q 404 176 322 24 q 485 325 457 274 q 839 963 600 540 q 886 994 853 986 q 900 996 892 996 q 946 954 946 996 m 350 476 q 269 389 350 389 q 190 479 188 389 l 194 611 q 203 656 199 632 q 225 681 208 681 q 239 677 226 681 q 256 674 251 674 q 290 715 278 674 q 301 775 301 746 q 283 832 301 807 q 233 857 265 857 q 183 813 194 857 q 174 751 179 782 q 124 735 164 735 q 44 792 44 735 q 78 843 44 824 q 142 865 97 854 q 183 881 179 874 q 282 963 235 963 q 347 876 347 963 q 342 814 347 863 q 342 767 340 807 l 346 543 q 350 476 350 513 z "},"":{"ha":1313,"x_min":28,"x_max":1282,"o":"m 1197 492 l 1190 414 l 1190 350 q 1185 325 1190 342 q 1171 303 1178 303 q 1155 317 1163 303 q 1147 336 1147 331 q 1143 431 1147 368 q 1085 486 1133 486 q 1021 411 1040 486 q 990 371 1017 397 q 950 329 956 338 q 917 265 917 285 q 940 236 917 243 q 978 233 942 236 q 1025 210 1014 231 q 1032 164 1032 197 q 1030 132 1032 140 q 1017 124 1028 124 q 960 121 968 121 l 832 122 q 760 200 760 135 q 782 275 760 247 q 921 444 886 408 q 1089 569 1018 551 l 1113 569 q 1197 492 1197 569 m 1282 178 q 1250 133 1282 151 q 1200 101 1207 108 q 1192 44 1197 85 q 1165 11 1189 24 q 1119 -1 1140 -1 q 1043 69 1043 -1 q 1067 101 1043 101 q 1091 98 1069 101 q 1115 94 1113 94 q 1158 104 1135 94 q 1189 133 1189 115 l 1189 194 q 1214 240 1189 240 q 1259 220 1236 240 q 1282 178 1282 200 m 1015 954 q 1004 917 1015 939 q 921 760 976 864 q 846 624 896 714 q 690 342 793 529 q 606 186 643 254 q 543 72 585 150 q 439 -35 489 -35 q 408 -22 421 -35 q 394 8 394 -10 q 421 78 394 24 q 489 204 443 121 q 564 340 515 251 l 753 682 q 836 836 781 738 q 892 935 864 885 q 969 993 931 993 q 1015 954 1015 993 m 533 815 q 514 757 533 792 q 472 722 494 722 q 440 807 440 722 q 407 836 440 836 q 396 836 404 836 q 385 835 389 835 q 341 842 382 835 q 296 849 300 849 q 213 813 256 849 q 125 778 171 778 q 56 832 56 778 q 117 925 56 881 q 218 969 168 963 q 290 975 261 975 q 439 946 372 975 q 533 815 533 903 m 390 650 q 364 624 390 624 q 299 638 331 624 q 258 685 258 656 q 297 732 258 714 q 350 746 326 746 q 378 731 369 746 q 390 650 390 701 m 544 560 q 449 410 544 458 q 289 375 379 375 q 119 411 196 375 q 55 465 82 429 q 28 532 28 500 q 103 590 28 590 q 192 546 153 590 q 290 501 231 501 q 390 529 328 501 q 446 543 411 528 q 453 581 457 556 q 476 665 438 665 q 510 646 490 665 q 530 621 525 631 q 542 592 535 611 q 544 560 544 575 z "},"":{"ha":849,"x_min":6,"x_max":811,"o":"m 594 674 q 572 611 594 636 q 478 538 547 582 q 378 489 404 489 q 364 504 364 489 q 386 613 364 531 q 459 678 390 629 q 551 726 528 726 q 583 708 572 726 q 594 674 594 690 m 340 913 q 338 882 340 911 q 332 836 333 849 q 321 743 332 806 q 315 740 321 740 q 300 778 303 740 q 285 867 296 835 q 219 922 264 922 q 157 876 179 922 q 140 810 140 842 l 140 579 q 125 515 140 532 q 115 525 118 515 q 110 565 110 546 l 110 813 q 105 862 110 815 q 100 911 100 908 q 172 989 100 986 q 261 990 219 990 q 340 913 340 990 m 811 104 q 800 33 811 53 q 733 1 783 1 l 643 11 l 264 11 l 174 1 q 100 76 100 1 q 125 150 100 142 q 169 93 143 140 q 215 58 179 75 q 267 44 247 44 l 638 44 q 690 60 663 44 q 724 103 724 78 q 604 164 724 164 l 494 164 q 451 179 471 164 q 482 194 453 190 l 638 197 l 733 207 q 801 172 783 207 q 811 104 811 150 m 93 365 q 89 294 93 328 q 81 258 89 282 q 56 249 74 249 q 6 307 6 249 q 11 340 6 315 q 38 374 14 354 q 78 394 61 394 q 93 365 93 394 z "},"":{"ha":411,"x_min":-8,"x_max":426,"o":"m 426 686 q 424 674 426 683 q 421 658 421 664 q 388 617 421 642 q 340 592 356 592 q 324 617 324 592 q 326 631 324 618 q 328 651 328 644 q 382 735 328 735 q 426 686 426 735 m 317 911 q 294 829 317 856 q 282 838 286 829 q 208 911 243 911 q 158 872 178 911 q 142 807 142 839 l 142 682 q 125 613 142 624 q 111 650 111 626 l 111 781 l 100 913 q 133 979 96 964 q 210 989 154 989 q 283 979 263 989 q 317 911 317 963 m 93 465 q 91 446 93 464 q 89 421 89 428 q 35 349 88 349 q -8 399 -8 349 q 4 443 -8 425 q 39 475 14 457 q 78 493 64 493 q 93 465 93 493 m 317 78 q 281 10 317 25 q 208 1 263 1 q 138 10 157 1 q 100 75 100 25 q 108 150 100 74 q 113 201 110 176 q 124 240 115 235 q 135 231 128 242 q 147 147 140 189 q 208 78 164 78 q 265 133 249 78 q 276 204 276 165 l 276 415 q 294 474 276 450 q 307 424 307 456 l 307 183 l 317 78 z "},"":{"ha":926,"x_min":39,"x_max":893,"o":"m 668 1219 q 581 1089 668 1183 q 467 1065 558 1065 q 438 1068 467 1065 q 396 1071 408 1071 q 315 1130 365 1071 q 265 1219 265 1189 q 322 1260 265 1260 q 406 1224 367 1260 q 467 1188 444 1188 q 526 1224 485 1188 q 611 1260 568 1260 q 668 1219 668 1260 m 875 903 q 861 804 875 832 q 843 771 854 782 q 446 349 715 631 q 424 338 442 344 q 421 344 421 340 q 471 418 421 351 q 754 728 568 519 q 811 854 811 794 q 775 918 811 893 q 701 944 744 939 q 588 960 665 944 q 593 968 588 965 q 717 978 632 971 q 794 985 793 985 q 875 903 875 985 m 406 807 q 401 800 404 803 q 369 792 372 792 l 274 792 l 149 782 q 79 811 97 778 q 67 883 67 833 q 79 954 67 933 q 149 985 96 985 q 357 963 297 985 q 281 946 346 954 q 214 938 247 942 q 154 885 154 924 q 158 874 154 882 q 164 860 163 865 q 292 822 171 822 l 367 822 q 406 807 394 822 m 893 100 q 882 31 893 51 q 814 -1 864 -1 l 722 8 l 203 8 l 114 -1 q 39 86 39 -1 q 51 196 39 160 q 68 225 57 214 q 189 349 110 265 q 465 646 281 451 l 476 646 q 479 638 479 640 q 431 569 479 625 q 143 249 332 463 q 115 197 131 233 q 97 133 97 156 q 138 65 97 93 q 206 42 171 42 l 718 42 q 772 57 746 42 q 804 101 804 74 q 692 161 804 161 l 535 161 q 492 176 507 161 q 521 192 489 192 l 721 194 l 814 204 q 882 171 865 204 q 893 100 893 149 z "},"":{"ha":746,"x_min":38,"x_max":718,"o":"m 579 963 q 529 874 579 933 q 458 817 479 814 q 453 816 457 817 q 449 814 450 815 q 376 808 401 808 q 348 812 378 808 q 304 814 318 815 q 226 871 278 811 q 174 963 174 931 q 229 1006 174 1006 q 313 968 271 1006 q 376 931 354 931 q 439 968 394 931 q 522 1006 483 1006 q 579 963 579 1006 m 689 626 q 669 539 689 563 q 501 371 613 483 q 415 293 443 310 l 406 293 l 400 299 q 410 321 403 313 q 540 454 475 388 q 617 590 617 535 q 457 675 617 675 q 347 665 411 675 q 258 629 258 653 q 275 607 258 628 q 292 582 292 586 q 154 550 292 550 q 65 632 65 550 q 151 714 65 718 l 453 700 q 551 706 497 699 q 611 713 611 713 q 689 626 689 713 m 718 82 q 632 -1 718 -1 q 605 1 629 -1 q 578 4 581 4 l 490 4 l 257 11 q 163 7 203 13 q 115 1 124 1 q 38 88 38 1 q 50 168 38 140 q 94 221 63 196 q 207 326 126 246 q 310 421 279 401 l 319 421 q 325 414 325 415 q 314 393 325 410 q 185 261 249 326 q 108 126 108 181 q 251 44 108 44 q 429 67 361 44 q 461 88 461 76 q 447 109 461 90 q 433 131 433 128 q 474 156 433 153 q 626 164 588 164 q 718 82 718 164 z "},"":{"ha":232,"x_min":-190,"x_max":431,"o":"m 431 951 q 386 843 431 924 q 339 758 363 800 q 263 622 315 717 l 199 504 l -64 25 q -85 -7 -71 13 q -144 -37 -114 -37 q -190 4 -190 -37 q -107 176 -190 25 q -29 319 -81 225 q 326 960 85 533 q 388 996 349 996 q 431 951 431 996 z "}}}
